<svg width="215" height="64" viewBox="0 0 215 64" fill="none" xmlns="http://www.w3.org/2000/svg">
<mask id="mask0_2346_756" style="mask-type:luminance" maskUnits="userSpaceOnUse" x="0" y="0" width="215" height="64">
<path d="M214.535 0.830078H0.535156V63.8301H214.535V0.830078Z" fill="white"/>
</mask>
<g mask="url(#mask0_2346_756)">
<mask id="mask1_2346_756" style="mask-type:luminance" maskUnits="userSpaceOnUse" x="0" y="0" width="215" height="64">
<path d="M214.535 0.830078H0.535156V63.8301H214.535V0.830078Z" fill="white"/>
</mask>
<g mask="url(#mask1_2346_756)">
<path d="M75.1247 34.2924C76.3173 33.7528 77.235 32.9771 77.8778 31.9641C78.5206 30.9511 78.8413 29.7379 78.8413 28.3258C78.8413 26.9137 78.5193 25.6951 77.8778 24.6729C77.235 23.6506 76.3173 22.8696 75.1247 22.3313C73.9321 21.7916 72.4907 21.5225 70.8019 21.5225H63.2861V41.0401H66.0393V35.1013H70.8019C71.2261 35.1013 71.6332 35.084 72.026 35.0509L76.1707 41.0414H79.1712L74.5984 34.5059C74.7778 34.4396 74.9545 34.3707 75.1247 34.2938M70.7207 32.7318H66.0406V23.9489H70.7207C72.4828 23.9489 73.8182 24.3308 74.7267 25.0919C75.6353 25.8543 76.0895 26.9322 76.0895 28.3258C76.0895 29.7193 75.6353 30.8026 74.7267 31.5743C73.8182 32.346 72.4828 32.7318 70.7207 32.7318Z" fill="black"/>
<path d="M99.3242 24.1293C98.4065 23.2277 97.3239 22.5303 96.0763 22.0383C94.8273 21.5464 93.4698 21.2998 92.0022 21.2998C90.5347 21.2998 89.1483 21.5504 87.9007 22.0529C86.6531 22.5555 85.5704 23.2569 84.6527 24.1585C83.735 25.0601 83.0189 26.1156 82.5057 27.3235C81.9912 28.5314 81.7346 29.852 81.7346 31.2827C81.7346 32.7134 81.9912 34.034 82.5057 35.2419C83.0189 36.4511 83.735 37.5053 84.6527 38.4069C85.5704 39.3085 86.6583 40.0099 87.9151 40.5125C89.1719 41.015 90.5347 41.2656 92.0035 41.2656C93.4724 41.2656 94.83 41.019 96.0776 40.527C97.3252 40.0351 98.4078 39.3377 99.3255 38.4361C100.243 37.5344 100.954 36.4803 101.459 35.2711C101.963 34.0632 102.216 32.7333 102.216 31.284C102.216 29.8348 101.963 28.5287 101.459 27.3102C100.954 26.093 100.243 25.0336 99.3255 24.132M98.8975 34.2647C98.5204 35.1756 97.9981 35.9698 97.3278 36.6487C96.6575 37.3276 95.8681 37.8526 94.9596 38.2239C94.051 38.5965 93.0548 38.7821 91.9721 38.7821C90.8894 38.7821 89.9207 38.5965 89.0121 38.2239C88.1036 37.8526 87.3089 37.3276 86.6308 36.6487C85.9514 35.9698 85.4238 35.1756 85.0481 34.2647C84.671 33.3538 84.4838 32.3593 84.4838 31.2814C84.4838 30.2034 84.6723 29.2129 85.0481 28.3113C85.4238 27.4097 85.9514 26.6154 86.6308 25.9273C87.3089 25.2405 88.1036 24.7101 89.0121 24.3375C89.9207 23.9662 90.9065 23.7793 91.9721 23.7793C93.0377 23.7793 94.051 23.9649 94.9596 24.3375C95.8681 24.7101 96.6575 25.2391 97.3278 25.9273C97.9981 26.6154 98.5204 27.4097 98.8975 28.3113C99.2732 29.2129 99.4617 30.2034 99.4617 31.2814C99.4617 32.3593 99.2732 33.3538 98.8975 34.2647Z" fill="black"/>
<path d="M124.652 21.5225L116.72 35.2325L108.684 21.5225H106.427V41.0401H109.069V26.8964L116.035 38.6706H117.301L124.268 26.8076L124.295 41.0401H126.936L126.909 21.5225H124.652Z" fill="black"/>
<path d="M146.538 31.2534C146.258 31.1235 145.964 31.0187 145.656 30.9325C145.665 30.9272 145.676 30.9246 145.685 30.9193C146.474 30.5295 147.103 29.9713 147.571 29.246C148.04 28.5207 148.273 27.6283 148.273 26.5689C148.273 25.007 147.676 23.7765 146.483 22.8749C145.291 21.9733 143.584 21.5225 141.363 21.5225H132.719V41.0401H141.914C144.355 41.0401 146.195 40.58 147.434 39.6598C148.672 38.7396 149.293 37.4428 149.293 35.7695C149.293 34.6544 149.045 33.7196 148.549 32.9665C148.054 32.2134 147.384 31.6419 146.54 31.2521M141.115 23.7805C142.509 23.7805 143.593 24.0404 144.362 24.5615C145.134 25.0826 145.518 25.8635 145.518 26.9044C145.518 27.9452 145.134 28.7262 144.362 29.246C143.591 29.7671 142.509 30.0269 141.115 30.0269H135.471V23.7818H141.115V23.7805ZM145.3 38.0011C144.492 38.5221 143.327 38.782 141.803 38.782H135.471V32.285H141.803C143.327 32.285 144.492 32.5449 145.3 33.066C146.108 33.5871 146.511 34.4144 146.511 35.5481C146.511 36.6818 146.106 37.4813 145.3 38.0024" fill="black"/>
<path d="M171.714 27.309C171.209 26.0918 170.498 25.0324 169.581 24.1308C168.663 23.2292 167.58 22.5317 166.331 22.0398C165.082 21.5479 163.725 21.3013 162.257 21.3013C160.79 21.3013 159.403 21.5519 158.156 22.0544C156.907 22.5569 155.824 23.2583 154.906 24.16C153.989 25.0616 153.273 26.117 152.759 27.3249C152.245 28.5329 151.988 29.8535 151.988 31.2842C151.988 32.7148 152.245 34.0355 152.759 35.2434C153.273 36.4526 153.989 37.5067 154.906 38.4084C155.824 39.31 156.912 40.0114 158.169 40.5139C159.426 41.0164 160.788 41.267 162.257 41.267C163.726 41.267 165.084 41.0204 166.331 40.5285C167.579 40.0366 168.661 39.3392 169.581 38.4375C170.498 37.5359 171.209 36.4818 171.714 35.2725C172.218 34.0646 172.471 32.7347 172.471 31.2855C172.471 29.8362 172.218 28.5302 171.714 27.3117M169.154 34.2648C168.777 35.1757 168.254 35.97 167.584 36.6489C166.914 37.3277 166.124 37.8528 165.216 38.224C164.307 38.5966 163.311 38.7823 162.228 38.7823C161.146 38.7823 160.177 38.5966 159.268 38.224C158.36 37.8528 157.565 37.3277 156.887 36.6489C156.208 35.97 155.68 35.1757 155.304 34.2648C154.927 33.3539 154.74 32.3595 154.74 31.2815C154.74 30.2035 154.929 29.2131 155.304 28.3114C155.68 27.4098 156.208 26.6156 156.887 25.9274C157.567 25.2406 158.36 24.7102 159.268 24.3376C160.177 23.9664 161.163 23.7794 162.228 23.7794C163.294 23.7794 164.307 23.9651 165.216 24.3376C166.124 24.7102 166.914 25.2393 167.584 25.9274C168.254 26.6156 168.777 27.4098 169.154 28.3114C169.529 29.2131 169.718 30.2035 169.718 31.2815C169.718 32.3595 169.529 33.3539 169.154 34.2648Z" fill="black"/>
<path d="M191.55 21.5225L182.824 41.0401H185.659L187.776 36.1607H198.023L200.14 41.0401H203.03L194.276 21.5225H191.55ZM188.744 33.9305L192.899 24.3533L197.054 33.9305H188.744Z" fill="#F38F1C"/>
<path d="M208.646 21.5225H205.893V41.0414H208.646V21.5225Z" fill="#F38F1C"/>
<path d="M33.9469 15.0627C32.0526 16.9813 28.9813 16.9813 27.087 15.0627C25.1927 13.1441 25.1927 10.0335 27.087 8.11621C28.9813 6.19759 32.0526 6.19759 33.9469 8.11621C35.8412 10.0348 35.8412 13.1454 33.9469 15.0627Z" fill="#F38F1C"/>
<path d="M177.9 40.4728C177.183 41.1994 176.019 41.1994 175.301 40.4728C174.584 39.7462 174.584 38.5675 175.301 37.8409C176.019 37.1142 177.183 37.1142 177.9 37.8409C178.618 38.5675 178.618 39.7462 177.9 40.4728Z" fill="#F38F1C"/>
<path d="M33.9469 56.6662C32.0526 58.5849 28.9813 58.5849 27.087 56.6662C25.1927 54.7476 25.1927 51.637 27.087 49.7197C28.9813 47.8011 32.0526 47.8011 33.9469 49.7197C35.8412 51.6383 35.8412 54.749 33.9469 56.6662Z" fill="#F38F1C"/>
<path d="M33.9744 35.8665C32.0788 37.7838 29.0076 37.7838 27.1145 35.8665C26.0986 34.8376 25.6287 33.4666 25.702 32.1194C25.6928 32.1194 25.6837 32.1194 25.6745 32.1207C25.736 30.7869 25.2634 29.4318 24.258 28.4135C23.7278 27.8778 23.1046 27.4906 22.4409 27.2533C21.8858 27.0557 21.3046 26.9616 20.722 26.9762C20.6788 26.9762 20.6369 26.9775 20.5924 26.9801C20.5872 26.9801 20.3018 26.9815 20.3018 26.9815C18.9992 26.9311 17.6809 27.4097 16.6859 28.4174C15.6857 29.4304 15.2158 30.7736 15.2721 32.1009C15.2734 32.1287 15.276 32.1539 15.276 32.1817C15.2773 32.1937 15.2773 32.2083 15.2773 32.2202C15.3218 33.5342 14.8492 34.8628 13.8595 35.8652C11.9665 37.7851 8.89523 37.7851 6.9996 35.8652C5.10658 33.9479 5.10658 30.8372 6.9996 28.9186C7.99454 27.9109 9.31416 27.4323 10.6168 27.4827C10.6325 27.4827 10.6482 27.484 10.6626 27.484C11.9429 27.5145 13.235 27.0371 14.213 26.0467C15.2027 25.0443 15.6753 23.7157 15.6295 22.4017H15.6347C15.5417 21.0373 16.013 19.6411 17.0433 18.5976C18.9363 16.6803 22.0076 16.6803 23.9019 18.5976C24.9086 19.6173 25.3799 20.9697 25.3184 22.3049C25.3184 22.3169 25.3171 22.3275 25.3171 22.3394C25.2883 22.9467 25.3695 23.5579 25.5658 24.1387C25.7949 24.8374 26.1851 25.4924 26.7336 26.048C27.7115 27.0385 28.9997 27.5185 30.2814 27.484L30.2905 27.4853C30.2971 27.4853 30.3036 27.4853 30.3088 27.484C30.3403 27.484 30.3691 27.484 30.3992 27.4827C31.6887 27.4429 32.9913 27.9215 33.9757 28.9186C35.8688 30.8386 35.8688 33.9492 33.9757 35.8665" fill="#F38F1C"/>
<path d="M44.1622 39.3602C44.1138 39.3164 44.0679 39.27 44.0221 39.2236C43.9881 39.1891 43.9514 39.152 43.9187 39.1162C43.9619 39.1547 44.0038 39.1958 44.0457 39.2382C44.0863 39.2793 44.1242 39.3191 44.1622 39.3615" fill="#F29206"/>
<path d="M37.3154 25.6675C37.2722 25.629 37.2303 25.5879 37.1884 25.5455C37.1452 25.5017 37.1046 25.4593 37.0667 25.4155C37.1164 25.4619 37.1635 25.511 37.212 25.5587C37.246 25.5932 37.2827 25.6303 37.3154 25.6661" fill="#F29206"/>
<path d="M44.1622 39.3602C44.1138 39.3164 44.0679 39.27 44.0221 39.2236C43.9881 39.1891 43.9514 39.152 43.9187 39.1162C43.9619 39.1547 44.0038 39.1958 44.0457 39.2382C44.0863 39.2793 44.1242 39.3191 44.1622 39.3615" fill="#F29206"/>
<path d="M37.3154 25.6675C37.2722 25.629 37.2303 25.5879 37.1884 25.5455C37.1452 25.5017 37.1046 25.4593 37.0667 25.4155C37.1164 25.4619 37.1635 25.511 37.212 25.5587C37.246 25.5932 37.2827 25.6303 37.3154 25.6661" fill="#F29206"/>
<path d="M37.3154 25.6675C37.2722 25.629 37.2303 25.5879 37.1884 25.5455C37.1452 25.5017 37.1046 25.4593 37.0667 25.4155C37.1164 25.4619 37.1635 25.511 37.212 25.5587C37.246 25.5932 37.2827 25.6303 37.3154 25.6661" fill="#F29206"/>
<path d="M54.0907 35.8636C52.8496 37.1206 51.1045 37.5542 49.5166 37.1644C48.6774 36.9602 47.8854 36.5266 47.2308 35.8636C45.3378 33.9463 45.3378 30.8357 47.2308 28.9171C47.8867 28.2528 48.6813 27.8192 49.5218 27.615C51.1085 27.2266 52.8509 27.6615 54.0907 28.9171C55.9837 30.8344 55.9837 33.945 54.0907 35.8636Z" fill="#F38F1C"/>
<path d="M44.0469 46.185C42.1538 48.1023 39.0826 48.1023 37.1883 46.185C35.6985 44.6761 35.3804 42.4326 36.2326 40.6081C36.463 40.1122 36.7824 39.6482 37.1883 39.2371L37.2118 39.2133C37.8834 38.5331 38.3364 37.7163 38.8601 36.9711C39.9872 35.3694 39.1965 28.4003 38.8653 27.8103C38.4398 27.0545 37.9423 26.3213 37.314 25.6676C37.2812 25.6318 37.2459 25.5947 37.2105 25.5602C37.1621 25.5111 37.115 25.4634 37.0652 25.417C36.7144 25.0378 36.4355 24.6161 36.2261 24.168C35.379 22.3462 35.6985 20.1053 37.187 18.5991C39.08 16.6818 42.1512 16.6818 44.0456 18.5991C45.3861 19.9568 45.7775 21.9113 45.2199 23.6164C44.996 24.3138 44.6124 24.9649 44.0691 25.5218L44.0586 25.5324C44.0586 25.5324 44.0495 25.5416 44.0443 25.5469C44.0351 25.5562 44.0272 25.5642 44.0168 25.5735C43.3478 26.2537 42.8202 27.0214 42.3699 27.8143C41.4522 29.4306 41.3383 35.1427 42.3659 36.9751C42.7888 37.7295 43.2876 38.4615 43.9133 39.1151H43.9146L43.916 39.1191C43.9487 39.1549 43.984 39.192 44.0181 39.2265C44.0639 39.2729 44.111 39.3207 44.1581 39.3631C44.1595 39.3644 44.1621 39.3684 44.1634 39.3697C44.653 39.9001 45.0025 40.5127 45.2133 41.161C45.7762 42.8688 45.3861 44.8259 44.0416 46.1876" fill="#F38F1C"/>
<path d="M44.1622 39.3602C44.1138 39.3164 44.0679 39.27 44.0221 39.2236C43.9881 39.1891 43.9514 39.152 43.9187 39.1162C43.9619 39.1547 44.0038 39.1958 44.0457 39.2382C44.0863 39.2793 44.1242 39.3191 44.1622 39.3615" fill="#F29206"/>
<path d="M15.28 32.2186H15.2787C15.2787 32.2067 15.2787 32.1921 15.2773 32.1802C15.2773 32.1921 15.2787 32.204 15.2813 32.2186" fill="#F29206"/>
<path d="M23.9032 46.1847C22.0089 48.1033 18.9376 48.1033 17.0433 46.1847C15.149 44.266 15.149 41.1554 17.0433 39.2368C18.9376 37.3182 22.0089 37.3182 23.9032 39.2368C25.7975 41.1554 25.7975 44.266 23.9032 46.1847Z" fill="#F38F1C"/>
</g>
</g>
</svg>
