<svg width="25" height="25" viewBox="0 0 25 25" fill="none" xmlns="http://www.w3.org/2000/svg">
<path d="M22.459 14.2189V21.5979H18.181V14.7129C18.181 12.9829 17.562 11.8029 16.014 11.8029C14.832 11.8029 14.128 12.5989 13.819 13.3679C13.706 13.6429 13.677 14.0259 13.677 14.4109V21.5979H9.397C9.397 21.5979 9.455 9.93788 9.397 8.72888H13.677V10.5529L13.649 10.5949H13.677V10.5529C14.245 9.67788 15.26 8.42688 17.533 8.42688C20.348 8.42688 22.459 10.2669 22.459 14.2189ZM4.921 2.52588C3.458 2.52588 2.5 3.48588 2.5 4.74888C2.5 5.98388 3.43 6.97288 4.865 6.97288H4.893C6.386 6.97288 7.313 5.98388 7.313 4.74888C7.287 3.48588 6.387 2.52588 4.922 2.52588H4.921ZM2.754 21.5979H7.032V8.72888H2.754V21.5979Z" fill="#202648"/>
</svg>
