<svg width="160" height="162" viewBox="0 0 160 162" fill="none" xmlns="http://www.w3.org/2000/svg">
<g opacity="0.11" clip-path="url(#clip0_2103_9871)">
<path d="M90.6553 26.4328C84.599 32.4797 74.7953 32.4797 68.739 26.4328C62.6827 20.3858 62.6827 10.5731 68.739 4.56241C74.7953 -1.44832 84.599 -1.48453 90.6553 4.56241C96.7116 10.6093 96.7116 20.422 90.6553 26.4328Z" fill="#F38F1C"/>
<path d="M90.6553 157.474C84.599 163.521 74.7953 163.521 68.739 157.474C62.6827 151.427 62.6827 141.614 68.739 135.603C74.7953 129.593 84.599 129.556 90.6553 135.603C96.7116 141.65 96.7116 151.463 90.6553 157.474Z" fill="#F38F1C"/>
<path d="M90.731 91.9353C84.6747 97.9822 74.8711 97.9822 68.8148 91.9353C65.5595 88.7126 64.0833 84.3675 64.3104 80.1311H64.2347C64.4239 75.9308 62.9099 71.6581 59.6925 68.4355C57.9891 66.7337 56.0208 65.5387 53.9011 64.7784C52.1221 64.1628 50.2673 63.8731 48.4126 63.9093C48.2612 63.9093 48.1476 63.9093 47.9962 63.9093H47.0499C42.8862 63.7645 38.6847 65.2491 35.5051 68.4355C32.3255 71.6219 30.8115 75.8584 31.0007 80.0224C31.0007 80.0948 31.0007 80.2035 31.0007 80.2759C31.0007 80.3121 31.0007 80.3483 31.0007 80.3845C31.1521 84.5124 29.638 88.7126 26.4585 91.8629C20.4022 97.9098 10.5985 97.9098 4.54223 91.8629C-1.51408 85.8159 -1.51408 76.0394 4.54223 69.9925C7.72179 66.8061 11.9234 65.3215 16.0871 65.4663C16.1249 65.4663 16.2006 65.4663 16.2385 65.4663C20.3265 65.575 24.4523 64.0542 27.594 60.9402C30.7736 57.79 32.2498 53.5897 32.1363 49.4619C31.8335 45.153 33.3475 40.7716 36.6406 37.4766C42.697 31.4297 52.5006 31.4297 58.5569 37.4766C61.7743 40.6992 63.2884 44.9357 63.0991 49.1722C63.0991 49.2084 63.0991 49.2446 63.0991 49.2808C63.0234 51.1999 63.2505 53.119 63.894 54.9657C64.6132 57.1744 65.8623 59.2383 67.6414 60.9764C70.7831 64.0904 74.8711 65.6112 78.9591 65.5025C78.9591 65.5025 78.9969 65.5025 79.0348 65.5025C79.1483 65.5025 79.224 65.5025 79.3376 65.5025C83.4635 65.3939 87.6272 66.8785 90.7689 70.0287C96.8252 76.0756 96.8252 85.8883 90.7689 91.8991L90.731 91.9353Z" fill="#F38F1C"/>
<path d="M123.284 102.943C123.284 102.943 122.981 102.653 122.829 102.508C122.716 102.4 122.602 102.291 122.489 102.182C122.64 102.291 122.754 102.436 122.905 102.581C123.057 102.726 123.17 102.834 123.284 102.979V102.943Z" fill="#F38F1C"/>
<path d="M101.405 59.8176C101.405 59.8176 101.14 59.5641 100.989 59.4193C100.837 59.2745 100.724 59.1296 100.61 59.021C100.762 59.1658 100.913 59.3107 101.065 59.4917C101.178 59.6003 101.292 59.709 101.405 59.8176Z" fill="#F38F1C"/>
<path d="M123.284 102.943C123.284 102.943 122.981 102.653 122.829 102.508C122.716 102.4 122.602 102.291 122.489 102.182C122.64 102.291 122.754 102.436 122.905 102.581C123.057 102.726 123.17 102.834 123.284 102.979V102.943Z" fill="#F38F1C"/>
<path d="M101.405 59.8176C101.405 59.8176 101.14 59.5641 100.989 59.4193C100.837 59.2745 100.724 59.1296 100.61 59.021C100.762 59.1658 100.913 59.3107 101.065 59.4917C101.178 59.6003 101.292 59.709 101.405 59.8176Z" fill="#F38F1C"/>
<path d="M101.405 59.8176C101.405 59.8176 101.14 59.5641 100.989 59.4193C100.837 59.2745 100.724 59.1296 100.61 59.021C100.762 59.1658 100.913 59.3107 101.065 59.4917C101.178 59.6003 101.292 59.709 101.405 59.8176Z" fill="#F38F1C"/>
<path d="M155.003 91.9351C151.029 95.8819 145.465 97.2579 140.393 96.0268C137.705 95.375 135.169 93.999 133.087 91.9351C127.031 85.8882 127.031 76.1117 133.087 70.0648C135.169 67.9646 137.705 66.6249 140.393 65.9731C145.465 64.742 151.029 66.118 155.003 70.0648C161.06 76.1117 161.06 85.8882 155.003 91.9351Z" fill="#F38F1C"/>
<path d="M122.905 124.451C116.849 130.498 107.045 130.498 100.989 124.451C96.2195 119.708 95.1975 112.647 97.9228 106.89C98.6799 105.333 99.664 103.848 100.989 102.581L101.065 102.508C103.222 100.372 104.66 97.801 106.326 95.4474C109.922 90.4143 107.386 68.4353 106.326 66.5887C104.963 64.1989 103.374 61.8815 101.367 59.8538C101.254 59.7451 101.14 59.6365 101.027 59.5279C100.875 59.383 100.724 59.2382 100.572 59.0571C99.4369 57.8622 98.5663 56.5225 97.885 55.1103C95.1596 49.3531 96.1816 42.3285 100.951 37.5489C107.007 31.5019 116.811 31.5019 122.867 37.5489C127.144 41.8216 128.394 47.9771 126.615 53.3723C125.895 55.5811 124.684 57.6088 122.943 59.383H122.905C122.905 59.383 122.867 59.4917 122.829 59.4917C120.672 61.628 119.006 64.054 117.568 66.5524C114.616 71.6579 114.275 89.6539 117.568 95.4112C118.931 97.801 120.52 100.082 122.527 102.146C122.64 102.255 122.754 102.363 122.867 102.472C123.019 102.617 123.17 102.762 123.321 102.906C124.873 104.572 126.009 106.491 126.69 108.555C128.507 113.95 127.258 120.106 122.943 124.379L122.905 124.451Z" fill="#F38F1C"/>
<path d="M123.284 102.943C123.284 102.943 122.981 102.653 122.829 102.508C122.716 102.4 122.602 102.291 122.489 102.182C122.64 102.291 122.754 102.436 122.905 102.581C123.057 102.726 123.17 102.834 123.284 102.979V102.943Z" fill="#F38F1C"/>
<path d="M58.5571 124.451C52.5008 130.498 42.6972 130.498 36.6409 124.451C30.5846 118.404 30.5846 108.591 36.6409 102.581C42.6972 96.5337 52.5008 96.5337 58.5571 102.581C64.6134 108.628 64.6134 118.44 58.5571 124.451Z" fill="#F38F1C"/>
</g>
<defs>
<clipPath id="clip0_2103_9871">
<rect width="160" height="162" fill="white"/>
</clipPath>
</defs>
</svg>
