<svg width="106" height="600" viewBox="0 0 106 600" fill="none" xmlns="http://www.w3.org/2000/svg">
<g clip-path="url(#clip0_9_6)">
<path d="M65.7436 22.7524C29.5898 -6.90242 -24.5128 -7.66938 -61.4359 20.9629C-103.487 53.6855 -114.513 110.439 -94 155.432C-88.8718 166.425 -82.2051 176.907 -73.2307 185.854L-72.7179 186.366C-58.1025 201.449 -48.359 219.6 -37.0769 236.216C-12.7179 271.751 -29.8974 350.234 -37.0769 363.272C-46.3077 380.145 -57.0769 396.506 -70.6666 410.822C-71.4359 411.589 -72.2051 412.356 -72.9743 413.123C-74 414.146 -75.0256 415.168 -76.0512 416.447C-83.7435 424.883 -89.641 434.342 -94.2564 444.312C-114.513 489.561 -103.487 546.059 -61.4358 579.037C-24.7692 607.669 29.3334 606.902 65.4873 577.503C101.641 548.104 113.949 498.764 100.615 456.839C95.7437 441.244 87.5385 426.928 75.7437 414.401L75.4872 414.401C75.4872 414.401 75.2308 413.634 74.9744 413.634C60.359 398.551 49.077 381.423 39.3334 363.784C19.3334 327.738 17.0257 277.375 39.3334 236.728C48.5641 219.855 59.3334 203.749 72.9231 189.178C73.6924 188.411 74.4616 187.644 75.2308 186.877C76.2564 185.854 77.2821 184.832 78.3077 183.809C88.8206 172.049 96.5129 158.5 101.128 143.928C114.462 102.003 102.923 53.4299 66.2564 23.2638L65.7436 22.7524Z" fill="#FE900F"/>
</g>
<defs>
<clipPath id="clip0_9_6">
<rect width="210" height="600" fill="white" transform="matrix(1 -8.74228e-08 -8.74228e-08 -1 -104 600)"/>
</clipPath>
</defs>
</svg>
