<svg width="123" height="44" viewBox="0 0 123 44" fill="none" xmlns="http://www.w3.org/2000/svg">
<g clip-path="url(#clip0_76_140)">
<path d="M118.336 8.9402C124.415 16.3431 124.573 27.4213 118.703 34.9817C111.995 43.5922 100.361 45.8498 91.1368 41.6496C88.8833 40.5995 86.7346 39.2345 84.9004 37.3968L84.7955 37.2918C81.7035 34.2992 77.9826 32.3041 74.5761 29.9939C67.2915 25.0061 51.2024 28.5238 48.5297 29.9939C45.0708 31.884 41.7167 34.0892 38.7819 36.8718C38.6247 37.0293 38.4675 37.1868 38.3102 37.3443C38.1006 37.5544 37.891 37.7644 37.629 37.9744C35.8995 39.5495 33.9604 40.757 31.9166 41.7021C22.6405 45.8498 11.0584 43.5922 4.29789 34.9817C-1.57173 27.4738 -1.41451 16.3956 4.61233 8.9927C10.6392 1.58977 20.7538 -0.930375 29.3486 1.79978C32.5454 2.79734 35.4802 4.47744 38.0482 6.89258L38.0482 6.94508C38.0482 6.94508 38.2054 6.99758 38.2054 7.05009C41.2975 10.0428 44.8088 12.3529 48.4249 14.348C55.8143 18.4432 66.1385 18.9158 74.4713 14.348C77.9302 12.4579 81.2318 10.2528 84.2191 7.47011C84.3763 7.3126 84.5335 7.15509 84.6907 6.99759C84.9004 6.78757 85.11 6.57756 85.3196 6.36755C87.7304 4.21492 90.5079 2.63983 93.4952 1.69477C102.09 -1.03538 112.047 1.32725 118.231 8.83519L118.336 8.9402Z" fill="#FE900F"/>
</g>
<defs>
<clipPath id="clip0_76_140">
<rect width="43" height="123" fill="white" transform="translate(0.000488281 43.6973) rotate(-90)"/>
</clipPath>
</defs>
</svg>
