<svg width="123" height="42" viewBox="0 0 123 42" fill="none" xmlns="http://www.w3.org/2000/svg">
<g clip-path="url(#clip0_13_138)">
<path d="M118.336 8.27482C124.415 15.3334 124.572 25.8963 118.703 33.1051C111.994 41.3151 100.36 43.4677 91.1363 39.4629C88.8828 38.4616 86.7341 37.16 84.8999 35.4079L84.7951 35.3078C81.703 32.4543 77.9821 30.552 74.5756 28.3493C67.291 23.5935 51.202 26.9476 48.5292 28.3493C45.0703 30.1515 41.7162 32.2541 38.7814 34.9073C38.6242 35.0575 38.467 35.2077 38.3098 35.3578C38.1001 35.5581 37.8905 35.7583 37.6285 35.9586C35.899 37.4604 33.96 38.6118 31.9161 39.5129C22.64 43.4677 11.0579 41.3151 4.2974 33.1051C-1.57222 25.9464 -1.415 15.3835 4.61185 8.32489C10.6387 1.26628 20.7533 -1.13665 29.3481 1.46652C32.545 2.41768 35.4798 4.01963 38.0477 6.32244L38.0477 6.3725C38.0477 6.3725 38.2049 6.42256 38.2049 6.47262C41.297 9.32611 44.8083 11.5288 48.4244 13.4311C55.8138 17.3359 66.138 17.7864 74.4708 13.4311C77.9297 11.6289 81.2314 9.52635 84.2186 6.87311C84.3758 6.72293 84.533 6.57275 84.6902 6.42257C84.8999 6.22232 85.1095 6.02207 85.3191 5.82183C87.7299 3.76933 90.5075 2.26749 93.4947 1.3664C102.089 -1.23678 112.047 1.01597 118.231 8.1747L118.336 8.27482Z" fill="#FE900F"/>
</g>
<defs>
<clipPath id="clip0_13_138">
<rect width="41" height="123" fill="white" transform="translate(0 41.4153) rotate(-90)"/>
</clipPath>
</defs>
</svg>
