<svg width="97" height="100" viewBox="0 0 97 100" fill="none" xmlns="http://www.w3.org/2000/svg">
<g clip-path="url(#clip0_76_290)">
<path d="M74.7238 56.1361C75.7748 53.6087 76.4189 50.9769 76.6561 48.3212C76.6597 48.2918 76.6634 48.2607 76.6652 48.2314C76.7309 47.4653 76.7619 46.7028 76.7619 45.944C76.7619 39.7309 74.6125 33.7854 70.593 28.9982C67.0935 24.8304 62.4956 21.9163 57.343 20.5399C51.9897 19.0829 46.1365 19.3101 40.6226 21.5736C40.5351 21.6103 40.453 21.6506 40.3745 21.6982C31.6987 25.373 25.2744 33.6314 24.4077 43.6787C24.4022 43.7319 24.4004 43.7869 24.4004 43.84C24.4004 44.7802 25.1174 45.5812 26.068 45.6636C27.0716 45.7516 27.9565 45.0038 28.0441 43.9958C29.1169 31.5751 40.0534 22.3269 52.4367 23.3899C53.9785 23.5218 55.4838 23.8059 56.9343 24.2311C63.2546 26.1226 68.7046 30.7595 71.3958 37.3483C73.693 42.9713 73.6784 49.1404 71.3575 54.723C69.0348 60.3057 64.6759 64.6512 59.08 66.9587C58.1476 67.3436 57.7024 68.4139 58.0856 69.3504C58.3757 70.0597 59.0563 70.4886 59.7733 70.4886C60.0032 70.4886 60.2386 70.4446 60.4648 70.3511C66.9621 67.6716 72.0253 62.6241 74.7238 56.138V56.1361Z" fill="#FE900F"/>
<path d="M50.5209 59.0191C50.6468 59.9373 51.4295 60.6008 52.3254 60.6008C52.4093 60.6008 52.4932 60.5953 52.5772 60.5843C53.5752 60.445 54.2722 59.5213 54.1353 58.5187L52.4166 46.0082C52.2798 45.0057 51.3583 44.3056 50.3603 44.443L37.9058 46.1695C36.9078 46.3088 36.2108 47.2325 36.3476 48.235C36.4863 49.2376 37.4059 49.9377 38.4039 49.8002L46.2678 48.7097L9.66145 91.3841C9.00461 92.1502 9.08854 93.3085 9.85303 93.9683C10.1979 94.2671 10.6212 94.4119 11.0426 94.4119C11.5554 94.4119 12.0644 94.1956 12.4257 93.7759L49.375 50.6983L50.519 59.0173L50.5209 59.0191Z" fill="#FE900F"/>
<path d="M25.4822 61.8251C25.6081 62.7433 26.3908 63.4068 27.2867 63.4068C27.3706 63.4068 27.4546 63.4013 27.5385 63.3903C28.5365 63.251 29.2335 62.3273 29.0967 61.3248L27.3779 48.8142C27.3122 48.3322 27.0586 47.8978 26.6718 47.6046C26.2868 47.3113 25.7997 47.1849 25.3198 47.2509L12.8653 48.9773C11.8672 49.1166 11.1703 50.0404 11.3071 51.0429C11.4458 52.0454 12.3654 52.7474 13.3634 52.6081L21.0065 51.5487L1.09682 74.3192C0.432672 75.0798 0.505655 76.2381 1.26285 76.9052C1.60952 77.2113 2.03829 77.3616 2.46707 77.3616C2.9743 77.3616 3.47788 77.1508 3.83914 76.7384L24.3145 53.3229L25.484 61.8269L25.4822 61.8251Z" fill="#FE900F"/>
<path d="M56.0694 70.5106C55.9307 69.5081 55.013 68.8098 54.0131 68.9454L41.5586 70.6719C40.5605 70.8112 39.8636 71.7349 40.0004 72.7374C40.1391 73.74 41.0605 74.4401 42.0567 74.3026L50.1505 73.181L29.3595 96.9576C28.6954 97.7182 28.7684 98.8765 29.5255 99.5436C29.8722 99.8497 30.301 100 30.7298 100C31.237 100 31.7406 99.7892 32.1018 99.3769L53.057 75.4096L54.1718 83.5215C54.2977 84.4397 55.0805 85.1032 55.9763 85.1032C56.0603 85.1032 56.1442 85.0977 56.2281 85.0867C57.2262 84.9474 57.9231 84.0237 57.7863 83.0212L56.0676 70.5106H56.0694Z" fill="#FE900F"/>
<path d="M95.263 35.4386C95.1006 34.0622 94.2649 33.2026 92.9111 33.0193C91.0756 32.7701 89.209 32.4988 87.4009 32.2349C86.2113 32.0608 85.0216 31.8885 83.8211 31.7181C82.7683 29.79 81.6389 27.7922 80.3763 25.6241C80.6536 24.9918 80.9109 24.3576 81.1609 23.74C81.2503 23.5219 81.3378 23.3038 81.4272 23.0857C82.0896 21.4692 82.7501 19.8508 83.4087 18.2398L84.1313 16.473C84.4433 15.7106 84.2097 14.8345 83.562 14.3305L73.1619 6.21496C72.5142 5.71095 71.6111 5.69995 70.9542 6.19113C70.2682 6.70431 69.5821 7.21566 68.8979 7.72517C66.9803 9.15474 64.997 10.632 63.0629 12.1037C61.0687 11.4934 58.9175 10.9014 56.312 10.2416C55.699 8.72403 55.0677 7.1955 54.4565 5.71461C53.9091 4.38951 53.3416 3.0186 52.7961 1.66967C52.2962 0.43988 51.3072 -0.142944 50.0063 0.0293375C45.8755 0.577338 42.033 1.05936 38.2579 1.50839C36.8986 1.66967 36.0484 2.51458 35.8641 3.88733C35.6397 5.5515 35.3952 7.24498 35.158 8.88348C34.9646 10.2269 34.7639 11.6143 34.5723 12.9999C32.5251 14.1252 30.4871 15.2909 28.5056 16.4694C27.1007 15.8755 25.6775 15.2854 24.2981 14.7117C22.8969 14.1307 21.4482 13.5296 20.0305 12.9284C18.7514 12.3859 17.591 12.6993 16.7627 13.8082C15.8121 15.0819 14.814 16.3649 13.8488 17.6075C13.4803 18.0804 13.1117 18.5551 12.745 19.0297L9.17245 23.6483C8.69076 24.2733 8.65975 25.1366 9.09764 25.7927C9.14508 25.8623 9.18705 25.9301 9.22901 25.9943C9.33119 26.1519 9.43701 26.315 9.56473 26.4873C9.97709 27.0445 10.3894 27.6016 10.8018 28.1588C12.1866 30.0301 13.6189 31.9637 15.0549 33.8569C14.4181 36.0471 13.7959 38.3399 13.1518 40.86C12.9019 41.8405 13.4894 42.8394 14.4655 43.0904C15.4417 43.3415 16.4361 42.7514 16.686 41.7708C17.3301 39.2453 17.9541 36.9543 18.5909 34.7678C18.7989 34.0549 18.9704 32.9717 18.0782 31.795C16.6149 29.8688 15.1479 27.8876 13.7302 25.9705C13.4474 25.5893 13.1646 25.208 12.8836 24.8268L15.6278 21.2804C15.9927 20.8075 16.3594 20.3365 16.7262 19.8655C17.5582 18.7951 18.4139 17.6955 19.2568 16.5793C20.4793 17.0943 21.7109 17.6038 22.9078 18.1005C24.3547 18.6998 25.8508 19.3212 27.3141 19.9425C28.3049 20.3622 29.261 20.2852 30.2353 19.7042C32.2825 18.4836 34.3935 17.2758 36.5118 16.1156C37.4715 15.5896 38.0098 14.818 38.1557 13.7587C38.3546 12.3108 38.5681 10.8372 38.7743 9.41132C38.9804 7.98726 39.1921 6.52287 39.3928 5.06581C42.719 4.6681 46.109 4.24106 49.7144 3.76637C50.1742 4.8917 50.6413 6.02069 51.0938 7.12035C51.7378 8.67821 52.402 10.2892 53.0424 11.8746C53.5734 13.1905 54.5823 13.5827 55.2958 13.7623C57.9359 14.4276 60.0944 15.0233 62.0868 15.6336C63.2509 15.9892 64.2361 15.8169 65.1922 15.0893C67.1372 13.6066 69.1424 12.1128 71.0819 10.6686C71.3976 10.434 71.7114 10.1994 72.0271 9.96299L80.2376 16.3704L80.0424 16.8487C79.3837 18.4597 78.7251 20.0763 78.0627 21.6909C77.9715 21.9127 77.8821 22.1363 77.7909 22.3581C77.4935 23.0912 77.2125 23.784 76.9041 24.4658C76.282 25.8385 76.9005 26.8979 77.1322 27.2974C78.4787 29.6085 79.672 31.7199 80.7795 33.7543C81.2703 34.6542 82.0002 35.1618 83.0128 35.3048C84.3046 35.4863 85.5946 35.675 86.8845 35.862C88.4701 36.0929 90.1031 36.3312 91.7269 36.5548C92.1028 39.7108 92.5443 43.325 93.0352 46.9264C91.8255 47.4231 90.6085 47.929 89.428 48.422C87.9574 49.0341 86.4357 49.6683 84.9377 50.2786C83.6423 50.8064 83.2591 51.7833 83.084 52.4706C82.5986 54.3804 81.9454 56.8913 81.1973 59.3765C80.8525 60.5202 81.0204 61.4879 81.7246 62.4244C83.2171 64.4093 84.7261 66.4474 86.1857 68.4176C86.4138 68.7273 86.6437 69.0371 86.8736 69.3468L80.4931 77.5961C80.1464 77.4569 79.8016 77.3212 79.4622 77.1856C77.6486 76.4653 75.9353 75.7854 74.2676 74.9716C74.1253 74.902 73.9921 74.836 73.8644 74.7718C72.4029 74.0461 70.8922 73.2946 68.752 74.6472C68.7118 74.6729 67.1208 75.6809 65.5425 76.6834C64.7525 77.1856 63.9661 77.686 63.3768 78.0617C63.0794 78.2505 62.833 78.4081 62.6615 78.5199L62.4517 78.6555C61.4391 79.3171 61.3716 80.4571 61.8204 81.1957C62.1653 81.7602 62.7546 82.07 63.3695 82.07C63.6961 82.07 64.0281 81.982 64.3347 81.7987C64.3876 81.7675 64.4368 81.7346 64.4861 81.6979C65.2178 81.2232 70.0821 78.1386 70.6969 77.7501C70.8484 77.6548 71.0327 77.5595 71.1038 77.5668C71.3137 77.5961 71.7661 77.8216 72.246 78.0598C72.381 78.1276 72.5233 78.1973 72.673 78.2706C74.4647 79.1448 76.3221 79.8816 78.1193 80.5964C78.8674 80.8933 79.641 81.2012 80.3927 81.511C81.1517 81.8244 82.0239 81.5898 82.5275 80.941L90.6048 70.4978C91.1084 69.8472 91.1175 68.9399 90.6267 68.2783C90.1195 67.5947 89.6159 66.9147 89.1123 66.2329C87.6764 64.2957 86.193 62.2925 84.7206 60.3332C85.4522 57.8975 86.089 55.4635 86.5707 53.5703C87.9957 52.9893 89.4335 52.39 90.8256 51.8108C92.1539 51.2573 93.5278 50.6855 94.8798 50.132C96.666 49.4025 96.8704 48.0224 96.7281 46.9924C96.1734 42.9731 95.679 38.897 95.2684 35.4404L95.263 35.4386Z" fill="#FE900F"/>
</g>
<defs>
<clipPath id="clip0_76_290">
<rect width="96.1165" height="100" fill="white" transform="translate(0.642578)"/>
</clipPath>
</defs>
</svg>
