<svg width="116" height="100" viewBox="0 0 116 100" fill="none" xmlns="http://www.w3.org/2000/svg">
<g clip-path="url(#clip0_11_45)">
<path d="M109.392 22.8039C106.244 22.8039 103.683 25.3655 103.683 28.513C103.683 29.5784 103.976 30.577 104.487 31.4315L85.2412 50.7436C84.4444 50.32 83.5359 50.0802 82.5732 50.0802C81.2843 50.0802 80.0945 50.5093 79.1373 51.2321L74.9695 48.474C74.1385 47.9242 73.0208 48.1532 72.471 48.9824C71.9212 49.8134 72.1501 50.9311 72.9794 51.4809L77.0895 54.1994C76.9435 54.7041 76.8623 55.2359 76.8623 55.7875C76.8623 58.935 79.4239 61.4966 82.5714 61.4966C85.7189 61.4966 88.2805 58.935 88.2805 55.7875C88.2805 54.915 88.084 54.0876 87.7325 53.3485L107.219 33.793C107.888 34.0688 108.622 34.2221 109.388 34.2221C112.536 34.2221 115.097 31.6605 115.097 28.513C115.097 25.3655 112.536 22.8039 109.388 22.8039H109.392ZM82.5732 57.8912C81.4123 57.8912 80.4695 56.9466 80.4695 55.7875C80.4695 54.6284 81.4141 53.6838 82.5732 53.6838C83.7323 53.6838 84.677 54.6284 84.677 55.7875C84.677 56.9466 83.7323 57.8912 82.5732 57.8912ZM109.392 30.6167C108.231 30.6167 107.288 29.6721 107.288 28.513C107.288 27.3539 108.233 26.4093 109.392 26.4093C110.551 26.4093 111.495 27.3539 111.495 28.513C111.495 29.6721 110.551 30.6167 109.392 30.6167Z" fill="#FE900F"/>
<path d="M65.5992 44.6199C66.1706 43.8051 65.9724 42.6802 65.1557 42.1088L53.1787 33.7227C53.6727 32.6177 53.9503 31.3937 53.9503 30.1083C53.9503 25.2033 49.9592 21.2121 45.0541 21.2121C40.149 21.2121 36.1578 25.2033 36.1578 30.1083C36.1578 30.9123 36.266 31.6893 36.4679 32.4302L24.5774 39.3417C23.7176 39.8428 23.4237 40.9461 23.9249 41.8059C24.2602 42.381 24.8641 42.7037 25.486 42.7037C25.7942 42.7037 26.1043 42.6243 26.3909 42.4585L38.1047 35.6498C39.7362 37.6922 42.2455 39.0046 45.0559 39.0046C47.3759 39.0046 49.4905 38.1104 51.0768 36.6503L63.0917 45.0634C63.4071 45.2833 63.7677 45.3897 64.1246 45.3897C64.6924 45.3897 65.2513 45.1211 65.6028 44.6199H65.5992ZM45.0541 35.3992C42.1373 35.3992 39.7632 33.0251 39.7632 30.1083C39.7632 27.1916 42.1373 24.8175 45.0541 24.8175C47.9708 24.8175 50.3449 27.1916 50.3449 30.1083C50.3449 31.0259 50.1088 31.8912 49.696 32.6447C49.5031 32.7673 49.3282 32.9295 49.1894 33.1296C49.0614 33.3117 48.9749 33.51 48.9226 33.7137C47.9564 34.7502 46.5809 35.3992 45.0541 35.3992Z" fill="#FE900F"/>
<path d="M14.0606 45.5555L10.0605 47.899C9.10143 47.1689 7.90446 46.7344 6.60833 46.7344C3.46085 46.7344 0.899246 49.296 0.899246 52.4435C0.899246 55.591 3.46085 58.1526 6.60833 58.1526C9.75581 58.1526 12.3174 55.591 12.3174 52.4435C12.3174 51.9027 12.2399 51.3799 12.0993 50.8824L15.8831 48.6651C16.743 48.1622 17.0296 47.0571 16.5267 46.199C16.0237 45.3392 14.9187 45.0507 14.0606 45.5555ZM6.60833 54.5472C5.4474 54.5472 4.5046 53.6026 4.5046 52.4435C4.5046 51.2844 5.44921 50.3398 6.60833 50.3398C7.76745 50.3398 8.71206 51.2844 8.71206 52.4435C8.71206 53.6026 7.76745 54.5472 6.60833 54.5472Z" fill="#FE900F"/>
<path d="M69.4101 57.2729C69.1973 56.8439 68.8242 56.5176 68.3717 56.3644C67.9192 56.2111 67.4235 56.2436 66.9945 56.4563L66.9368 56.4851L65.8606 54.3111C72.5539 48.6597 76.8137 40.2106 76.8137 30.7843C76.8137 13.8103 63.0015 0 46.0257 0C29.0499 0 15.2396 13.8103 15.2396 30.7861C15.2396 47.762 29.0499 61.5741 46.0275 61.5741C48.49 61.5741 50.8839 61.2821 53.1805 60.7341L54.2009 62.7963L53.9701 62.9117C53.0778 63.3533 52.7136 64.435 53.1553 65.3273L67.8309 94.9579C69.4119 98.1505 72.6314 100.002 75.9736 100.002C77.3238 100.002 78.6956 99.699 79.9846 99.0608C84.466 96.8417 86.3066 91.3886 84.0875 86.9053L69.4119 57.2747L69.4101 57.2729ZM57.3664 60.8855L56.9716 60.0869L63.1043 57.0494L63.4991 57.848L57.3664 60.8855ZM18.8449 30.7861C18.8449 15.7987 31.0382 3.60536 46.0275 3.60536C61.0168 3.60536 73.2083 15.7987 73.2083 30.7861C73.2083 45.7736 61.015 57.9687 46.0275 57.9687C31.04 57.9687 18.8449 45.7754 18.8449 30.7861ZM78.3838 95.8268C75.6834 97.1644 72.3971 96.0557 71.0595 93.3553L57.1843 65.3399L66.98 60.4889L80.8553 88.5043C82.1928 91.2047 81.0842 94.491 78.3838 95.8286V95.8268Z" fill="#FE900F"/>
</g>
<defs>
<clipPath id="clip0_11_45">
<rect width="114.202" height="100" fill="white" transform="translate(0.899246)"/>
</clipPath>
</defs>
</svg>
