<svg width="1440" height="94" viewBox="0 0 1440 94" fill="none" xmlns="http://www.w3.org/2000/svg">
  <path d="M 1442 90.848 L 1442 65.257 C 1442 65.257 1158.09 26.803 975 22.158 C 737.978 16.145 605.921 68.328 369 59.158 C 223.894 53.541 -1 22.158 -1 22.158 L -1 95.158 L 1442 90.848 Z"
        fill="#F7F7F7" style="transform-origin: 720.5px 58.416px;"
        transform="matrix(0.99999499321, 0.003251000075, -0.003251000075, 0.99999499321, -1.2025e-8, -9.8039e-8)"/>
  <path d="M 1442.116 94 C 1442.116 94 1211.198 17.401 1058.236 5.406 C 832.537 -12.293 709.054 111.948 483.888 87.709 C 371.797 75.643 314.722 17.989 202.115 21.657 C 121.052 24.298 -1.116 67.265 -1.116 67.265"
        stroke="#FE900F" stroke-width="7" style=""/>
</svg>
