<svg width="1440" height="94" viewBox="0 0 1440 94" fill="none" xmlns="http://www.w3.org/2000/svg">
  <path d="M -9.003 29.248 L -9.003 54.839 C -9.003 54.839 277.955 93.293 463.012 97.938 C 702.58 103.952 836.055 51.768 1075.52 60.938 C 1222.188 66.555 1449.494 97.938 1449.494 97.938 L 1449.494 24.938 L -9.003 29.248 Z"
        fill="#303767" style="transform-origin: 720.246px 61.68px;"
        transform="matrix(-0.99999499321, -0.003183000023, 0.003183000023, -0.99999499321, -0.000017596621, 0.000009637988)"/>
  <path d="M -16 91.607 C -16 91.607 219.199 18.548 375 7.107 C 604.885 -9.774 730.658 108.726 960 85.607 C 1074.17 74.098 1132.3 19.108 1247 22.607 C 1329.57 25.126 1454 66.107 1454 66.107"
        stroke="#FE900F" stroke-width="7"/>

</svg>
