<svg width="1440" height="94" viewBox="0 0 1440 94" fill="none" xmlns="http://www.w3.org/2000/svg">
  <path d="M 1445.274 91.86 L 1445.274 66.269 C 1445.274 66.269 1159.911 27.815 975.884 23.17 C 737.649 17.157 604.916 69.34 366.783 60.17 C 220.935 54.553 -5.11 23.17 -5.11 23.17 L -5.11 96.17 L 1445.274 91.86 Z"
        fill="#F7F7F7" style="transform-origin: 720.082px 59.428px;"
        transform="matrix(0.999993920326, 0.003595000133, -0.003595000133, 0.999993920326, -0.000042924005, -0.000003249409)"/>
  <path d="M 1455.339 94 C 1455.339 94 1221.327 17.401 1066.317 5.406 C 837.595 -12.293 712.457 111.948 484.275 87.709 C 370.683 75.643 312.843 17.989 198.727 21.657 C 116.578 24.298 -7.226 67.265 -7.226 67.265"
        stroke="#FE900F" stroke-width="7" style=""/>
</svg>
