<svg width="14" height="8" viewBox="0 0 14 8" fill="none" xmlns="http://www.w3.org/2000/svg">
<path d="M7.33073 5.42075L12.2807 0.470755C12.373 0.375244 12.4833 0.299062 12.6053 0.246653C12.7273 0.194244 12.8585 0.166658 12.9913 0.165504C13.1241 0.16435 13.2558 0.189652 13.3787 0.239933C13.5016 0.290214 13.6132 0.364467 13.7071 0.45836C13.801 0.552252 13.8753 0.663904 13.9255 0.786801C13.9758 0.909697 14.0011 1.04138 14 1.17416C13.9988 1.30694 13.9712 1.43815 13.9188 1.56016C13.8664 1.68216 13.7902 1.79251 13.6947 1.88475L8.03773 7.54175C7.8502 7.72923 7.59589 7.83454 7.33073 7.83454C7.06556 7.83454 6.81125 7.72923 6.62373 7.54175L0.966726 1.88475C0.871216 1.79251 0.795034 1.68216 0.742625 1.56016C0.690216 1.43815 0.66263 1.30694 0.661476 1.17416C0.660322 1.04138 0.685624 0.909697 0.735905 0.786801C0.786185 0.663904 0.860438 0.552252 0.954331 0.45836C1.04822 0.364467 1.15988 0.290214 1.28277 0.239933C1.40567 0.189652 1.53735 0.16435 1.67013 0.165504C1.80291 0.166658 1.93413 0.194244 2.05613 0.246653C2.17813 0.299062 2.28848 0.375244 2.38073 0.470755L7.33073 5.42075Z" fill="white"/>
</svg>
