<svg width="1440" height="313" viewBox="0 0 1440 313" fill="none" xmlns="http://www.w3.org/2000/svg">
<g style="mix-blend-mode:exclusion" opacity="0.12" clip-path="url(#clip0_9_8)">
<path d="M101.947 203.617C120.947 195.144 135.582 183.076 145.596 167.156C155.866 151.236 161.001 132.235 161.001 110.153C161.001 88.0714 155.866 68.8138 145.596 52.8942C135.326 36.9746 120.947 24.6497 101.947 16.1764C82.9469 7.70304 60.0955 3.59476 33.3926 3.59476H-86V309.662H-42.3511V216.455H33.3926C40.0683 216.455 46.4873 216.199 52.9062 215.685L118.636 309.662H166.393L93.7308 207.212C96.5551 206.185 99.3795 205.158 102.204 203.874L101.947 203.617ZM32.1088 179.224H-42.3511V41.5964H31.8521C59.8387 41.5964 81.1496 47.5021 95.5281 59.5701C109.907 71.6382 117.096 88.3282 117.096 110.153C117.096 131.979 109.907 148.925 95.5281 160.993C81.1496 173.062 59.8387 179.224 31.8521 179.224H32.1088Z" fill="#1F2447"/>
<path d="M486.057 44.4208C471.422 30.2986 454.219 19.2576 434.449 11.5546C414.679 3.85152 393.111 0 369.746 0C346.381 0 324.556 3.85152 304.529 11.8113C284.759 19.7711 267.556 30.5554 252.921 44.9344C238.286 59.0566 226.988 75.4897 218.772 94.4906C210.556 113.491 206.448 134.033 206.448 156.628C206.448 179.224 210.556 199.765 218.772 218.766C226.988 237.767 238.286 254.2 252.921 268.322C267.556 282.445 284.759 293.486 304.786 301.445C324.813 309.405 346.381 313.257 369.746 313.257C393.111 313.257 414.679 309.405 434.449 301.702C454.219 293.999 471.422 282.958 486.057 268.836C500.693 254.714 511.99 238.281 519.949 219.28C527.909 200.279 532.017 179.481 532.017 156.885C532.017 134.29 527.909 113.748 519.949 94.4906C511.99 75.4897 500.693 58.7998 486.057 44.6776V44.4208ZM479.382 203.36C473.476 217.739 465.003 230.064 454.476 240.848C443.949 251.376 431.368 259.849 416.989 265.498C402.611 271.404 386.692 274.228 369.489 274.228C352.286 274.228 336.881 271.404 322.502 265.498C308.124 259.592 295.543 251.376 284.759 240.848C273.975 230.321 265.502 217.739 259.597 203.36C253.691 188.981 250.61 173.575 250.61 156.628C250.61 139.682 253.691 124.276 259.597 110.153C265.502 96.0312 273.975 83.4495 284.759 72.6653C295.543 61.8811 308.124 53.6645 322.502 47.7588C336.881 41.8532 352.543 39.0287 369.489 39.0287C386.435 39.0287 402.611 41.8532 416.989 47.7588C431.368 53.6645 443.949 61.8811 454.476 72.6653C465.003 83.4495 473.476 96.0312 479.382 110.153C485.287 124.276 488.368 139.682 488.368 156.628C488.368 173.575 485.287 189.238 479.382 203.36Z" fill="#1F2447"/>
<path d="M888.398 3.59476L762.329 218.509L634.72 3.59476H599.031V309.405H640.883V87.8146L751.545 272.431H771.573L882.235 86.274L882.749 309.405H924.601L924.087 3.59476H888.398Z" fill="#1F2447"/>
<path d="M1235.79 156.115C1231.43 154.061 1226.55 152.52 1221.67 150.98C1221.67 150.98 1221.93 150.98 1222.18 150.98C1234.76 144.817 1244.78 136.087 1252.22 124.789C1259.67 113.491 1263.26 99.3692 1263.26 82.936C1263.26 58.5431 1253.76 39.0287 1234.76 24.9065C1215.76 10.7843 1188.8 3.59476 1153.37 3.59476H1016.01V309.662H1162.1C1200.87 309.662 1230.14 302.473 1249.66 288.094C1269.43 273.715 1279.18 253.43 1279.18 227.24C1279.18 209.779 1275.33 195.144 1267.37 183.332C1259.41 171.521 1248.89 162.534 1235.53 156.372L1235.79 156.115ZM1149.78 39.0287C1171.86 39.0287 1189.06 43.137 1201.39 51.3536C1213.71 59.5702 1219.87 71.6382 1219.87 88.0714C1219.87 104.505 1213.71 116.573 1201.39 124.789C1189.06 133.006 1171.86 137.114 1149.78 137.114H1060.17V39.0287H1149.78ZM1216.28 261.903C1203.44 270.12 1184.95 274.228 1160.82 274.228H1060.17V172.291H1160.82C1184.95 172.291 1203.44 176.4 1216.28 184.616C1229.12 192.833 1235.53 205.671 1235.53 223.645C1235.53 241.619 1229.12 253.943 1216.28 262.16V261.903Z" fill="#1F2447"/>
<path d="M1635.56 94.2338C1627.6 75.233 1616.31 58.5431 1601.67 44.4208C1587.04 30.2986 1569.83 19.2576 1550.06 11.5546C1530.29 3.85152 1508.73 0 1485.36 0C1462 0 1440.17 3.85152 1420.14 11.8113C1400.37 19.7711 1383.17 30.5554 1368.54 44.9344C1353.9 59.0566 1342.6 75.4897 1334.39 94.4906C1326.17 113.491 1322.06 134.033 1322.06 156.628C1322.06 179.224 1326.17 199.765 1334.39 218.766C1342.6 237.767 1353.9 254.2 1368.54 268.322C1383.17 282.445 1400.37 293.486 1420.4 301.445C1440.43 309.405 1462 313.257 1485.36 313.257C1508.73 313.257 1530.29 309.405 1550.06 301.702C1569.83 293.999 1587.04 282.958 1601.67 268.836C1616.31 254.714 1627.6 238.281 1635.56 219.28C1643.52 200.279 1647.63 179.481 1647.63 156.885C1647.63 134.29 1643.52 113.748 1635.56 94.4906V94.2338ZM1595 203.36C1589.09 217.739 1580.62 230.064 1570.09 240.848C1559.56 251.632 1546.98 259.849 1532.6 265.498C1518.23 271.404 1502.31 274.228 1485.1 274.228C1467.9 274.228 1452.5 271.404 1438.12 265.498C1423.74 259.592 1411.16 251.376 1400.37 240.848C1389.59 230.321 1381.12 217.739 1375.21 203.36C1369.31 188.981 1366.22 173.575 1366.22 156.628C1366.22 139.682 1369.31 124.276 1375.21 110.153C1381.12 96.0312 1389.59 83.4495 1400.37 72.6653C1411.16 61.8811 1423.74 53.6645 1438.12 47.7588C1452.5 41.8532 1468.16 39.0287 1485.1 39.0287C1502.05 39.0287 1518.23 41.8532 1532.6 47.7588C1546.98 53.6645 1559.56 61.8811 1570.09 72.6653C1580.62 83.4495 1589.09 96.0312 1595 110.153C1600.9 124.276 1603.98 139.682 1603.98 156.628C1603.98 173.575 1600.9 189.238 1595 203.36Z" fill="#1F2447"/>
</g>
<defs>
<clipPath id="clip0_9_8">
<rect width="2308" height="313" fill="white" transform="translate(-86)"/>
</clipPath>
</defs>
</svg>
