<svg width="776" height="791" viewBox="0 0 776 791" fill="none" xmlns="http://www.w3.org/2000/svg">
<g opacity="0.11" clip-path="url(#clip0_28_17)">
<path d="M439.678 129.063C410.305 158.589 362.757 158.589 333.384 129.063C304.011 99.538 304.011 51.6254 333.384 22.2767C362.757 -7.07197 410.305 -7.24877 439.678 22.2767C469.051 51.8022 469.051 99.7148 439.678 129.063Z" fill="#F38F1C"/>
<path d="M439.678 768.9C410.305 798.426 362.757 798.426 333.384 768.9C304.011 739.375 304.011 691.462 333.384 662.113C362.757 632.765 410.305 632.588 439.678 662.113C469.051 691.639 469.051 739.551 439.678 768.9Z" fill="#F38F1C"/>
<path d="M440.045 448.893C410.672 478.419 363.125 478.419 333.752 448.893C317.964 433.158 310.804 411.942 311.905 391.257H311.538C312.456 370.748 305.113 349.886 289.508 334.151C281.247 325.841 271.701 320.007 261.42 316.294C252.792 313.288 243.797 311.874 234.801 312.051C234.067 312.051 233.516 312.051 232.782 312.051H228.192C207.998 311.344 187.621 318.592 172.2 334.151C156.779 349.709 149.436 370.395 150.353 390.726C150.353 391.08 150.353 391.61 150.353 391.964C150.353 392.141 150.353 392.318 150.353 392.494C151.088 412.65 143.745 433.158 128.324 448.54C98.9506 478.065 51.4029 478.065 22.0298 448.54C-7.34327 419.014 -7.34327 371.278 22.0298 341.753C37.4507 326.195 57.8283 318.946 78.0222 319.653C78.2058 319.653 78.573 319.653 78.7566 319.653C98.5834 320.183 118.594 312.758 133.831 297.553C149.252 282.172 156.412 261.663 155.861 241.508C154.392 220.469 161.736 199.076 177.707 182.987C207.08 153.462 254.628 153.462 284.001 182.987C299.605 198.722 306.949 219.408 306.031 240.093C306.031 240.27 306.031 240.447 306.031 240.624C305.664 249.994 306.765 259.365 309.886 268.381C313.374 279.166 319.432 289.244 328.061 297.73C343.298 312.935 363.125 320.36 382.952 319.83C382.952 319.83 383.135 319.83 383.319 319.83C383.869 319.83 384.237 319.83 384.787 319.83C404.798 319.299 424.992 326.548 440.229 341.93C469.602 371.455 469.602 419.368 440.229 448.717L440.045 448.893Z" fill="#F38F1C"/>
<path d="M597.926 502.64C597.926 502.64 596.457 501.226 595.723 500.519C595.172 499.988 594.621 499.458 594.071 498.927C594.805 499.458 595.356 500.165 596.09 500.872C596.824 501.579 597.375 502.11 597.926 502.817V502.64Z" fill="#F38F1C"/>
<path d="M491.815 292.072C491.815 292.072 490.53 290.835 489.796 290.128C489.062 289.42 488.511 288.713 487.96 288.183C488.695 288.89 489.429 289.597 490.163 290.481C490.714 291.012 491.265 291.542 491.815 292.072Z" fill="#F38F1C"/>
<path d="M597.926 502.64C597.926 502.64 596.457 501.226 595.723 500.519C595.172 499.988 594.621 499.458 594.071 498.927C594.805 499.458 595.356 500.165 596.09 500.872C596.824 501.579 597.375 502.11 597.926 502.817V502.64Z" fill="#F38F1C"/>
<path d="M491.815 292.072C491.815 292.072 490.53 290.835 489.796 290.128C489.062 289.42 488.511 288.713 487.96 288.183C488.695 288.89 489.429 289.597 490.163 290.481C490.714 291.012 491.265 291.542 491.815 292.072Z" fill="#F38F1C"/>
<path d="M491.815 292.072C491.815 292.072 490.53 290.835 489.796 290.128C489.062 289.42 488.511 288.713 487.96 288.183C488.695 288.89 489.429 289.597 490.163 290.481C490.714 291.012 491.265 291.542 491.815 292.072Z" fill="#F38F1C"/>
<path d="M751.767 448.893C732.491 468.164 705.505 474.883 680.905 468.872C667.87 465.689 655.57 458.971 645.473 448.893C616.1 419.368 616.1 371.632 645.473 342.107C655.57 331.852 667.87 325.311 680.905 322.128C705.505 316.117 732.491 322.835 751.767 342.107C781.14 371.632 781.14 419.368 751.767 448.893Z" fill="#F38F1C"/>
<path d="M596.09 607.659C566.717 637.185 519.169 637.185 489.796 607.659C466.665 584.498 461.708 550.023 474.926 521.911C478.598 514.309 483.371 507.06 489.796 500.872L490.163 500.519C500.627 490.088 507.603 477.535 515.681 466.043C533.121 441.468 520.821 334.151 515.681 325.134C509.072 313.465 501.362 302.15 491.632 292.249C491.081 291.719 490.53 291.188 489.98 290.658C489.245 289.951 488.511 289.244 487.777 288.36C482.269 282.525 478.047 275.984 474.742 269.089C461.524 240.977 466.481 206.678 489.612 183.341C518.986 153.815 566.533 153.815 595.906 183.341C616.651 204.203 622.709 234.259 614.081 260.602C610.593 271.387 604.718 281.288 596.273 289.951H596.09C596.09 289.951 595.906 290.481 595.723 290.481C585.259 300.912 577.181 312.758 570.205 324.957C555.885 349.886 554.233 437.755 570.205 465.866C576.814 477.535 584.524 488.673 594.254 498.751C594.805 499.281 595.356 499.812 595.906 500.342C596.641 501.049 597.375 501.756 598.109 502.464C605.636 510.596 611.144 519.967 614.448 530.044C623.26 556.387 617.202 586.443 596.273 607.306L596.09 607.659Z" fill="#F38F1C"/>
<path d="M597.926 502.64C597.926 502.64 596.457 501.226 595.723 500.519C595.172 499.988 594.621 499.458 594.071 498.927C594.805 499.458 595.356 500.165 596.09 500.872C596.824 501.579 597.375 502.11 597.926 502.817V502.64Z" fill="#F38F1C"/>
<path d="M284.001 607.659C254.628 637.185 207.08 637.185 177.707 607.659C148.334 578.134 148.334 530.221 177.707 500.872C207.08 471.347 254.628 471.347 284.001 500.872C313.374 530.398 313.374 578.31 284.001 607.659Z" fill="#F38F1C"/>
</g>
<defs>
<clipPath id="clip0_28_17">
<rect width="776" height="791" fill="white"/>
</clipPath>
</defs>
</svg>
