<svg width="123" height="43" viewBox="0 0 123 43" fill="none" xmlns="http://www.w3.org/2000/svg">
<g clip-path="url(#clip0_28_90)">
<path d="M118.336 8.24293C124.415 15.6459 124.573 26.724 118.703 34.2844C111.995 42.8949 100.36 45.1526 91.1367 40.9523C88.8832 39.9023 86.7345 38.5372 84.9002 36.6996L84.7954 36.5946C81.7034 33.6019 77.9825 31.6068 74.576 29.2967C67.2914 24.3089 51.2023 27.8266 48.5296 29.2967C45.0707 31.1868 41.7166 33.3919 38.7818 36.1746C38.6246 36.3321 38.4673 36.4896 38.3101 36.6471C38.1005 36.8571 37.8909 37.0671 37.6288 37.2771C35.8994 38.8522 33.9603 40.0598 31.9164 41.0048C22.6403 45.1526 11.0583 42.8949 4.29777 34.2844C-1.57185 26.7765 -1.41463 15.6984 4.61221 8.29544C10.6391 0.892505 20.7537 -1.62764 29.3485 1.10252C32.5453 2.10008 35.4801 3.78017 38.0481 6.19531L38.0481 6.24782C38.0481 6.24782 38.2053 6.30032 38.2053 6.35282C41.2973 9.3455 44.8086 11.6556 48.4247 13.6507C55.8142 17.746 66.1384 18.2185 74.4712 13.6507C77.9301 11.7606 81.2317 9.55551 84.2189 6.77285C84.3762 6.61533 84.5334 6.45783 84.6906 6.30032C84.9002 6.09031 85.1099 5.88029 85.3195 5.67028C87.7302 3.51765 90.5078 1.94257 93.495 0.997509C102.09 -1.73265 112.047 0.629989 118.231 8.13792L118.336 8.24293Z" fill="#FE900F"/>
</g>
<defs>
<clipPath id="clip0_28_90">
<rect width="43" height="123" fill="white" transform="translate(0.000366211 43) rotate(-90)"/>
</clipPath>
</defs>
</svg>
