<svg width="158" height="40" viewBox="0 0 158 40" fill="none" xmlns="http://www.w3.org/2000/svg">
<g clip-path="url(#clip0_2_6)">
<path d="M53.3226 20.7778C54.2518 20.3397 54.9666 19.7228 55.4759 18.9003C55.9762 18.0867 56.2264 17.1032 56.2264 15.9678C56.2264 14.8323 55.9762 13.8489 55.4759 13.0264C54.9755 12.2038 54.2607 11.578 53.3226 11.1399C52.3934 10.7018 51.2676 10.4872 49.9453 10.4872H44.0751V26.2047H46.2284V21.4215H49.9453C50.2758 21.4215 50.5975 21.4036 50.9013 21.3768L54.1357 26.2047H56.4766L52.9027 20.9387C53.0456 20.8851 53.1796 20.8315 53.3137 20.7689L53.3226 20.7778ZM49.8827 19.5261H46.2284V12.4542H49.8827C51.2587 12.4542 52.304 12.7581 53.0099 13.375C53.7157 13.9919 54.0731 14.8592 54.0731 15.9767C54.0731 17.0943 53.7157 17.9705 53.0099 18.5963C52.304 19.2222 51.2587 19.5261 49.8827 19.5261Z" fill="white"/>
<path d="M72.2196 12.5972C71.5048 11.873 70.656 11.3098 69.6821 10.9164C68.7083 10.523 67.645 10.3174 66.5014 10.3174C65.3577 10.3174 64.2766 10.523 63.2938 10.9253C62.3199 11.3277 61.4711 11.8909 60.7563 12.624C60.0415 13.3482 59.4787 14.1976 59.0766 15.1721C58.6745 16.1466 58.478 17.2105 58.478 18.3639C58.478 19.5172 58.6745 20.5811 59.0766 21.5556C59.4787 22.5302 60.0326 23.3795 60.7563 24.1037C61.4711 24.8279 62.3199 25.3911 63.3027 25.8024C64.2856 26.2047 65.3488 26.4104 66.4924 26.4104C67.6361 26.4104 68.6993 26.2137 69.6732 25.8113C70.6471 25.418 71.4959 24.8547 72.2107 24.1305C72.9255 23.4063 73.4794 22.557 73.8815 21.5825C74.2746 20.608 74.4712 19.5351 74.4712 18.3728C74.4712 17.2105 74.2746 16.1556 73.8815 15.1721C73.4883 14.1886 72.9344 13.3393 72.2107 12.6151L72.2196 12.5972ZM71.889 20.7599C71.5942 21.4931 71.1832 22.1368 70.665 22.6822C70.1378 23.2275 69.5213 23.6477 68.8155 23.9517C68.1096 24.2557 67.3323 24.3987 66.4835 24.3987C65.6347 24.3987 64.8842 24.2468 64.1694 23.9517C63.4636 23.6567 62.8381 23.2275 62.311 22.6822C61.7838 22.1368 61.3639 21.4931 61.078 20.7599C60.7831 20.0268 60.6402 19.2222 60.6402 18.3549C60.6402 17.4877 60.7831 16.692 61.078 15.9589C61.3728 15.2347 61.7838 14.591 62.311 14.0366C62.8381 13.4823 63.4636 13.0532 64.1694 12.7582C64.8752 12.4631 65.6526 12.3111 66.4835 12.3111C67.3144 12.3111 68.1096 12.4631 68.8155 12.7582C69.5213 13.0621 70.1378 13.4823 70.665 14.0366C71.1921 14.591 71.5942 15.2347 71.889 15.9589C72.1839 16.6831 72.3268 17.4788 72.3268 18.3549C72.3268 19.2311 72.1839 20.0268 71.889 20.7599Z" fill="white"/>
<path d="M92.0011 10.4962L85.8093 21.5378L79.5282 10.4962H77.7681V26.2137H79.832V14.8234L85.2733 24.3093H86.265L91.7063 14.7519L91.7241 26.2137H93.7881L93.7613 10.4962H92.0011Z" fill="white"/>
<path d="M109.093 18.3281C108.879 18.2208 108.647 18.1403 108.405 18.0688C108.405 18.0688 108.423 18.0688 108.432 18.0599C109.049 17.747 109.54 17.2999 109.906 16.7099C110.273 16.1198 110.451 15.4045 110.451 14.5552C110.451 13.2946 109.987 12.3022 109.058 11.578C108.128 10.8538 106.788 10.4872 105.055 10.4872H98.3001V26.2047H105.484C107.387 26.2047 108.825 25.8382 109.799 25.0961C110.764 24.354 111.247 23.308 111.247 21.9669C111.247 21.0728 111.05 20.3129 110.666 19.7139C110.282 19.1059 109.754 18.65 109.093 18.337V18.3281ZM104.858 12.3111C105.948 12.3111 106.797 12.5167 107.396 12.937C107.994 13.3572 108.298 13.983 108.298 14.8234C108.298 15.6638 107.994 16.2897 107.396 16.7099C106.797 17.1301 105.948 17.3357 104.858 17.3357H100.453V12.3022H104.858V12.3111ZM108.128 23.764C107.494 24.1842 106.592 24.3898 105.394 24.3898H100.444V19.1596H105.394C106.583 19.1596 107.494 19.3652 108.128 19.7854C108.763 20.2056 109.075 20.8672 109.075 21.7881C109.075 22.709 108.763 23.3437 108.128 23.764Z" fill="white"/>
<path d="M128.759 15.1542C128.366 14.1708 127.812 13.3214 127.088 12.5972C126.373 11.873 125.524 11.3098 124.55 10.9164C123.577 10.523 122.513 10.3174 121.37 10.3174C120.226 10.3174 119.145 10.523 118.162 10.9253C117.188 11.3277 116.339 11.8909 115.625 12.624C114.91 13.3482 114.347 14.1976 113.945 15.1721C113.543 16.1466 113.346 17.2105 113.346 18.3639C113.346 19.5172 113.543 20.5811 113.945 21.5556C114.347 22.5302 114.901 23.3795 115.625 24.1037C116.339 24.8279 117.188 25.3911 118.171 25.8024C119.154 26.2047 120.217 26.4104 121.361 26.4104C122.504 26.4104 123.568 26.2137 124.541 25.8113C125.515 25.418 126.364 24.8547 127.079 24.1305C127.794 23.4063 128.348 22.557 128.75 21.5825C129.143 20.608 129.339 19.5351 129.339 18.3728C129.339 17.2105 129.143 16.1556 128.75 15.1721L128.759 15.1542ZM126.757 20.7599C126.462 21.4931 126.051 22.1368 125.533 22.6822C125.015 23.2275 124.39 23.6477 123.684 23.9517C122.978 24.2557 122.201 24.3987 121.352 24.3987C120.503 24.3987 119.752 24.2468 119.038 23.9517C118.332 23.6567 117.706 23.2275 117.179 22.6822C116.652 22.1368 116.232 21.4931 115.946 20.7599C115.651 20.0268 115.508 19.2222 115.508 18.3549C115.508 17.4877 115.651 16.692 115.946 15.9589C116.241 15.2347 116.652 14.591 117.179 14.0366C117.706 13.4823 118.332 13.0532 119.038 12.7582C119.744 12.4631 120.521 12.3111 121.352 12.3111C122.183 12.3111 122.978 12.4631 123.684 12.7582C124.39 13.0621 125.006 13.4823 125.533 14.0366C126.06 14.591 126.462 15.2347 126.757 15.9589C127.052 16.6831 127.195 17.4788 127.195 18.3549C127.195 19.2311 127.052 20.0268 126.757 20.7599Z" fill="white"/>
<path d="M144.252 10.4962L137.434 26.2137H139.65L141.303 22.2798H149.309L150.962 26.2137H153.222L146.387 10.4962H144.26H144.252ZM142.063 20.4917L145.306 12.776L148.549 20.4917H142.054H142.063Z" fill="#F38F1C"/>
<path d="M157.609 10.4962H155.456V26.2137H157.609V10.4962Z" fill="#F38F1C"/>
<path d="M133.592 25.7577C133.029 26.3388 132.127 26.3388 131.564 25.7577C131.001 25.1766 131.001 24.2199 131.564 23.6388C132.127 23.0577 133.029 23.0577 133.592 23.6388C134.155 24.2199 134.155 25.1766 133.592 25.7577Z" fill="#F38F1C"/>
<path d="M21.3987 6.52661C19.9692 8.01968 17.655 8.01968 16.2255 6.52661C14.7959 5.03354 14.7959 2.61065 16.2255 1.12652C17.655 -0.357607 19.9692 -0.366547 21.3987 1.12652C22.8283 2.6196 22.8283 5.04248 21.3987 6.52661Z" fill="#F38F1C"/>
<path d="M21.3987 38.8824C19.9692 40.3755 17.655 40.3755 16.2255 38.8824C14.7959 37.3893 14.7959 34.9665 16.2255 33.4823C17.655 31.9982 19.9692 31.9893 21.3987 33.4823C22.8283 34.9754 22.8283 37.3983 21.3987 38.8824Z" fill="#F38F1C"/>
<path d="M21.4166 22.7001C19.987 24.1931 17.6729 24.1931 16.2434 22.7001C15.475 21.9043 15.1265 20.8315 15.1801 19.7854H15.1623C15.2069 18.7483 14.8496 17.6933 14.0901 16.8976C13.688 16.4774 13.2234 16.1824 12.7231 15.9946C12.3031 15.8427 11.8653 15.7711 11.4275 15.7801C11.3918 15.7801 11.365 15.7801 11.3293 15.7801H11.1059C10.1231 15.7443 9.13131 16.1109 8.38079 16.8976C7.63027 17.6844 7.27288 18.7304 7.31756 19.7586C7.31756 19.7765 7.31756 19.8033 7.31756 19.8212C7.31756 19.8301 7.31756 19.8391 7.31756 19.848C7.3533 20.8672 6.99591 21.9043 6.24539 22.6822C4.81583 24.1752 2.50173 24.1752 1.07217 22.6822C-0.35739 21.1891 -0.35739 18.7752 1.07217 17.2821C1.82269 16.4953 2.81445 16.1287 3.79727 16.1645C3.8062 16.1645 3.82407 16.1645 3.83301 16.1645C4.79796 16.1913 5.77185 15.8158 6.51343 15.0469C7.26395 14.2691 7.6124 13.232 7.5856 12.2128C7.51412 11.1489 7.87151 10.0671 8.64884 9.25347C10.0784 7.7604 12.3925 7.7604 13.8221 9.25347C14.5815 10.0492 14.9389 11.0952 14.8942 12.1413C14.8942 12.1502 14.8942 12.1591 14.8942 12.1681C14.8764 12.6419 14.93 13.1158 15.0819 13.5718C15.2516 14.1171 15.5465 14.6267 15.9664 15.0559C16.708 15.8248 17.6729 16.2003 18.6379 16.1735C18.6379 16.1735 18.6468 16.1735 18.6558 16.1735C18.6826 16.1735 18.7004 16.1735 18.7272 16.1735C19.7011 16.1466 20.6839 16.5132 21.4255 17.291C22.8551 18.7841 22.8551 21.207 21.4255 22.6911L21.4166 22.7001Z" fill="#F38F1C"/>
<path d="M29.1005 25.418C29.1005 25.418 29.029 25.3465 28.9933 25.3107C28.9665 25.2839 28.9396 25.257 28.9128 25.2302C28.9486 25.257 28.9754 25.2928 29.0111 25.3286C29.0469 25.3643 29.0737 25.3912 29.1005 25.4269V25.418Z" fill="#F38F1C"/>
<path d="M23.9362 14.7698C23.9362 14.7698 23.8736 14.7072 23.8379 14.6714C23.8021 14.6357 23.7753 14.5999 23.7485 14.5731C23.7843 14.6089 23.82 14.6446 23.8558 14.6893C23.8826 14.7161 23.9094 14.743 23.9362 14.7698Z" fill="#F38F1C"/>
<path d="M29.1005 25.418C29.1005 25.418 29.029 25.3465 28.9933 25.3107C28.9665 25.2839 28.9396 25.257 28.9128 25.2302C28.9486 25.257 28.9754 25.2928 29.0111 25.3286C29.0469 25.3643 29.0737 25.3912 29.1005 25.4269V25.418Z" fill="#F38F1C"/>
<path d="M23.9362 14.7698C23.9362 14.7698 23.8736 14.7072 23.8379 14.6714C23.8021 14.6357 23.7753 14.5999 23.7485 14.5731C23.7843 14.6089 23.82 14.6446 23.8558 14.6893C23.8826 14.7161 23.9094 14.743 23.9362 14.7698Z" fill="#F38F1C"/>
<path d="M23.9362 14.7698C23.9362 14.7698 23.8736 14.7072 23.8379 14.6714C23.8021 14.6357 23.7753 14.5999 23.7485 14.5731C23.7843 14.6089 23.82 14.6446 23.8558 14.6893C23.8826 14.7161 23.9094 14.743 23.9362 14.7698Z" fill="#F38F1C"/>
<path d="M36.5878 22.7C35.6496 23.6746 34.3362 24.0143 33.139 23.7103C32.5046 23.5494 31.906 23.2096 31.4146 22.7C29.985 21.207 29.985 18.793 31.4146 17.2999C31.906 16.7814 32.5046 16.4506 33.139 16.2897C34.3362 15.9857 35.6496 16.3254 36.5878 17.2999C38.0174 18.793 38.0174 21.207 36.5878 22.7Z" fill="#F38F1C"/>
<path d="M29.0112 30.7287C27.5816 32.2217 25.2675 32.2217 23.8379 30.7287C22.7122 29.5574 22.4709 27.814 23.1142 26.3925C23.2929 26.0081 23.5252 25.6415 23.8379 25.3286L23.8558 25.3107C24.3651 24.7832 24.7046 24.1484 25.0977 23.5673C25.9465 22.3245 25.3479 16.8976 25.0977 16.4417C24.7761 15.8516 24.4008 15.2794 23.9273 14.7787C23.9005 14.7519 23.8737 14.7251 23.8469 14.6983C23.8111 14.6625 23.7754 14.6267 23.7397 14.582C23.4716 14.287 23.2661 13.9562 23.1053 13.6075C22.462 12.186 22.7032 10.4515 23.829 9.27135C25.2586 7.77828 27.5727 7.77828 29.0022 9.27135C30.0118 10.3263 30.3067 11.8462 29.8868 13.1784C29.717 13.7237 29.4311 14.2244 29.0201 14.6625H29.0112C29.0112 14.6625 29.0022 14.6893 28.9933 14.6893C28.484 15.2168 28.0909 15.8158 27.7514 16.4327C27.0544 17.6933 26.974 22.1368 27.7514 23.5583C28.073 24.1484 28.4483 24.7117 28.9218 25.2213C28.9486 25.2481 28.9754 25.2749 29.0022 25.3018C29.038 25.3375 29.0737 25.3733 29.1094 25.409C29.4758 25.8203 29.7438 26.2941 29.9046 26.8038C30.3335 28.1359 30.0386 29.6558 29.0201 30.7108L29.0112 30.7287Z" fill="#F38F1C"/>
<path d="M29.1005 25.418C29.1005 25.418 29.029 25.3465 28.9933 25.3107C28.9665 25.2839 28.9396 25.257 28.9128 25.2302C28.9486 25.257 28.9754 25.2928 29.0111 25.3286C29.0469 25.3643 29.0737 25.3912 29.1005 25.4269V25.418Z" fill="#F38F1C"/>
<path d="M13.822 30.7287C12.3925 32.2217 10.0784 32.2217 8.64883 30.7287C7.21927 29.2356 7.21927 26.8127 8.64883 25.3286C10.0784 23.8355 12.3925 23.8355 13.822 25.3286C15.2516 26.8216 15.2516 29.2445 13.822 30.7287Z" fill="#F38F1C"/>
</g>
<defs>
<clipPath id="clip0_2_6">
<rect width="157.6" height="40" fill="white"/>
</clipPath>
</defs>
</svg>
