<svg width="115" height="101" viewBox="0 0 115 101" fill="none" xmlns="http://www.w3.org/2000/svg">
<g clip-path="url(#clip0_28_157)">
<path d="M108.545 23.7891C105.398 23.7891 102.836 26.3507 102.836 29.4982C102.836 30.5636 103.13 31.5623 103.64 32.4167L84.3945 51.7288C83.5977 51.3052 82.6892 51.0655 81.7265 51.0655C80.4376 51.0655 79.2479 51.4945 78.2906 52.2174L74.1228 49.4593C73.2918 48.9095 72.1742 49.1384 71.6243 49.9676C71.0745 50.7987 71.3035 51.9163 72.1327 52.4661L76.2428 55.1846C76.0968 55.6893 76.0157 56.2211 76.0157 56.7727C76.0157 59.9202 78.5773 62.4818 81.7247 62.4818C84.8722 62.4818 87.4338 59.9202 87.4338 56.7727C87.4338 55.9002 87.2373 55.0728 86.8858 54.3337L106.373 34.7783C107.042 35.0541 107.775 35.2073 108.541 35.2073C111.689 35.2073 114.25 32.6457 114.25 29.4982C114.25 26.3507 111.689 23.7891 108.541 23.7891H108.545ZM81.7265 58.8765C80.5656 58.8765 79.6228 57.9319 79.6228 56.7727C79.6228 55.6136 80.5674 54.669 81.7265 54.669C82.8857 54.669 83.8303 55.6136 83.8303 56.7727C83.8303 57.9319 82.8857 58.8765 81.7265 58.8765ZM108.545 31.6019C107.384 31.6019 106.441 30.6573 106.441 29.4982C106.441 28.3391 107.386 27.3945 108.545 27.3945C109.704 27.3945 110.649 28.3391 110.649 29.4982C110.649 30.6573 109.704 31.6019 108.545 31.6019Z" fill="#FE900F"/>
<path d="M64.7526 45.6051C65.324 44.7903 65.1257 43.6654 64.3091 43.094L52.3321 34.7079C52.8261 33.6029 53.1037 32.3789 53.1037 31.0935C53.1037 26.1885 49.1125 22.1973 44.2075 22.1973C39.3024 22.1973 35.3112 26.1885 35.3112 31.0935C35.3112 31.8975 35.4194 32.6745 35.6213 33.4154L23.7308 40.3269C22.871 40.828 22.5771 41.9313 23.0783 42.7911C23.4136 43.3662 24.0175 43.6889 24.6394 43.6889C24.9476 43.6889 25.2577 43.6095 25.5443 43.4437L37.2581 36.635C38.8896 38.6774 41.3989 39.9898 44.2093 39.9898C46.5293 39.9898 48.6439 39.0956 50.2302 37.6355L62.2451 46.0486C62.5605 46.2685 62.9211 46.3749 63.278 46.3749C63.8458 46.3749 64.4047 46.1063 64.7562 45.6051H64.7526ZM44.2075 36.3844C41.2907 36.3844 38.9166 34.0103 38.9166 31.0935C38.9166 28.1768 41.2907 25.8027 44.2075 25.8027C47.1242 25.8027 49.4983 28.1768 49.4983 31.0935C49.4983 32.0111 49.2622 32.8764 48.8494 33.6299C48.6565 33.7525 48.4816 33.9147 48.3428 34.1148C48.2148 34.2969 48.1283 34.4952 48.076 34.6989C47.1098 35.7354 45.7343 36.3844 44.2075 36.3844Z" fill="#FE900F"/>
<path d="M13.214 46.5407L9.21383 48.8842C8.2548 48.1541 7.05782 47.7197 5.7617 47.7197C2.61422 47.7197 0.0526123 50.2813 0.0526123 53.4288C0.0526123 56.5763 2.61422 59.1379 5.7617 59.1379C8.90917 59.1379 11.4708 56.5763 11.4708 53.4288C11.4708 52.888 11.3933 52.3652 11.2527 51.8677L15.0365 49.6504C15.8964 49.1474 16.183 48.0424 15.68 47.1843C15.1771 46.3244 14.072 46.036 13.214 46.5407ZM5.7617 55.5325C4.60077 55.5325 3.65797 54.5879 3.65797 53.4288C3.65797 52.2697 4.60257 51.3251 5.7617 51.3251C6.92082 51.3251 7.86542 52.2697 7.86542 53.4288C7.86542 54.5879 6.92082 55.5325 5.7617 55.5325Z" fill="#FE900F"/>
<path d="M68.5634 58.2581C68.3507 57.8291 67.9776 57.5028 67.5251 57.3496C67.0726 57.1964 66.5769 57.2288 66.1479 57.4415L66.0902 57.4704L65.014 55.2963C71.7073 49.6449 75.967 41.1958 75.967 31.7696C75.967 14.7956 62.1549 0.985229 45.1791 0.985229C28.2033 0.985229 14.3929 14.7956 14.3929 31.7714C14.3929 48.7472 28.2033 62.5593 45.1809 62.5593C47.6434 62.5593 50.0373 62.2673 52.3339 61.7193L53.3542 63.7815L53.1235 63.8969C52.2312 64.3386 51.867 65.4202 52.3087 66.3125L66.9843 95.9431C68.5652 99.1357 71.7848 100.987 75.127 100.987C76.4772 100.987 77.849 100.684 79.138 100.046C83.6194 97.8269 85.46 92.3738 83.2409 87.8906L68.5652 58.2599L68.5634 58.2581ZM56.5197 61.8707L56.125 61.0721L62.2577 58.0346L62.6525 58.8332L56.5197 61.8707ZM17.9983 31.7714C17.9983 16.7839 30.1916 4.59059 45.1809 4.59059C60.1702 4.59059 72.3617 16.7839 72.3617 31.7714C72.3617 46.7589 60.1684 58.954 45.1809 58.954C30.1934 58.954 17.9983 46.7607 17.9983 31.7714ZM77.5372 96.812C74.8368 98.1496 71.5505 97.041 70.2129 94.3406L56.3377 66.3251L66.1334 61.4741L80.0087 89.4895C81.3462 92.19 80.2376 95.4762 77.5372 96.8138V96.812Z" fill="#FE900F"/>
</g>
<defs>
<clipPath id="clip0_28_157">
<rect width="114.202" height="100" fill="white" transform="translate(0.0526123 0.985229)"/>
</clipPath>
</defs>
</svg>
