<svg width="91" height="100" viewBox="0 0 91 100" fill="none" xmlns="http://www.w3.org/2000/svg">
<g clip-path="url(#clip0_76_214)">
<path d="M69.7606 51.9342C70.5922 49.4977 71.033 46.9887 71.0881 44.4816C71.0898 44.454 71.0915 44.4247 71.0915 44.3954C71.2103 37.763 68.7516 31.4924 64.1666 26.7365C60.6077 23.0455 56.0916 20.602 51.1502 19.6371C46.021 18.6101 40.5287 19.1942 35.4822 21.6652C35.4013 21.7049 35.3255 21.7497 35.2549 21.7979C27.3176 25.7939 21.7874 33.9462 21.6031 43.4253C21.5842 44.3764 22.34 45.1639 23.2904 45.1812C24.2443 45.2036 25.0277 44.4436 25.0449 43.4925C25.2705 31.9025 34.7797 22.6181 46.3258 22.6181C46.4549 22.6181 46.5858 22.6181 46.7166 22.6216C48.1681 22.6474 49.5937 22.8163 50.9797 23.1213C57.0575 24.4912 62.4931 28.4993 65.4459 34.5183C67.9614 39.6481 68.3367 45.4362 66.5013 50.8193C64.6659 56.2025 60.8333 60.5534 55.7111 63.0727C54.8571 63.4914 54.5059 64.5253 54.9242 65.3783C55.2238 65.9883 55.835 66.3415 56.4704 66.3415C56.7252 66.3415 56.9835 66.2847 57.2279 66.164C63.1766 63.2398 67.6273 58.1858 69.7606 51.9308V51.9342Z" fill="#FE900F"/>
<path d="M88.3557 30.4189C88.1163 29.1386 87.2761 28.3856 85.99 28.2977C84.2458 28.1805 82.4707 28.0427 80.7541 27.91C79.6229 27.8221 78.4935 27.7342 77.3519 27.6515C76.2397 25.9094 75.0499 24.107 73.7259 22.1529C73.948 21.5412 74.1512 20.926 74.3492 20.3298C74.4181 20.1213 74.4869 19.9128 74.5575 19.7043C75.0672 18.1828 75.5751 16.6612 76.0813 15.1449L76.6873 13.3304C76.9318 12.5963 76.6581 11.7881 76.0176 11.3556L65.7163 4.39924C65.0758 3.96673 64.2236 4.01498 63.6364 4.51642C63.0166 5.04715 62.3968 5.57444 61.7787 6.1C60.069 7.55779 58.3007 9.06211 56.579 10.5613C54.6644 10.115 52.6017 9.69451 50.1052 9.24132C49.432 7.8559 48.7415 6.45842 48.0701 5.10746C47.4726 3.90125 46.8545 2.65196 46.2553 1.42335C45.7078 0.301575 44.7385 -0.182632 43.5246 0.060333C39.6662 0.835754 36.0798 1.53191 32.5553 2.19016C31.2864 2.42795 30.5392 3.27402 30.4514 4.57328C30.3446 6.14997 30.2206 7.75595 30.1001 9.30852C30.002 10.5802 29.9004 11.8933 29.8074 13.2029C27.9531 14.3867 26.1056 15.6101 24.3133 16.8422C22.9514 16.3735 21.5723 15.9082 20.2362 15.4585C18.8812 15.0018 17.4814 14.5297 16.1109 14.0575C14.8729 13.6302 13.7985 13.9955 13.0892 15.0897C12.2731 16.3459 11.4139 17.6141 10.5823 18.841C10.2655 19.308 9.94871 19.775 9.63363 20.242L6.56029 24.8014C6.14535 25.4166 6.17118 26.2299 6.624 26.8175C6.67221 26.8796 6.71525 26.9381 6.7583 26.995C6.86504 27.138 6.97696 27.2862 7.10781 27.4396C7.53308 27.9376 7.95836 28.4373 8.38363 28.9353C9.80408 30.6016 11.271 32.323 12.7397 34.0048C12.2782 36.1002 11.8357 38.2903 11.3881 40.6941C11.2142 41.6298 11.8306 42.5293 12.7655 42.7033C13.7004 42.8773 14.5992 42.2605 14.7731 41.3248C15.2207 38.9141 15.6632 36.7257 16.1264 34.6355C16.2762 33.9531 16.3708 32.9261 15.4566 31.8802C13.9604 30.1673 12.4573 28.4046 11.0024 26.6986C10.7097 26.3557 10.4187 26.0145 10.1278 25.6716L12.4883 22.1702C12.8017 21.7049 13.1167 21.2414 13.4318 20.7779C14.1481 19.7216 14.8867 18.6325 15.6098 17.5314C16.791 17.9364 17.9807 18.3379 19.1377 18.7273C20.5392 19.1994 21.9889 19.6871 23.4077 20.1782C24.3667 20.509 25.262 20.3764 26.1418 19.7698C27.9927 18.4947 29.9056 17.2282 31.827 16.0064C32.6982 15.4516 33.1562 14.6951 33.2268 13.6922C33.3232 12.3223 33.43 10.9283 33.535 9.57905C33.64 8.22982 33.7468 6.84096 33.8432 5.46071C36.9475 4.87828 40.1121 4.26311 43.4799 3.59108C43.9826 4.61636 44.4923 5.64509 44.9864 6.64452C45.6906 8.06612 46.4189 9.5377 47.1214 10.9869C47.7033 12.1896 48.6796 12.4929 49.3614 12.6153C51.8906 13.0736 53.9602 13.4958 55.8713 13.9421C56.9887 14.2023 57.9064 13.9783 58.7604 13.2356C60.4925 11.7278 62.2797 10.2046 64.0083 8.73126C64.2959 8.48657 64.5851 8.24016 64.8727 7.99375L73.0045 13.4855L72.8134 14.0575C72.3072 15.5739 71.7993 17.0937 71.2914 18.6136C71.2208 18.8255 71.1502 19.0375 71.0796 19.2494C70.8454 19.9576 70.6233 20.6262 70.3737 21.2896C69.8744 22.6165 70.5235 23.5711 70.7662 23.9312C72.1798 26.0128 73.4367 27.9186 74.6057 29.7572C75.124 30.5706 75.8437 30.9996 76.8061 31.0703C78.0337 31.1599 79.2596 31.2547 80.4872 31.3494C81.9955 31.4666 83.5485 31.5855 85.0912 31.6941C85.6439 34.632 86.2861 37.9974 86.9748 41.3403C85.8677 41.8814 84.7538 42.4345 83.6725 42.9704C82.3261 43.639 80.9332 44.33 79.5609 44.9951C78.3747 45.5706 78.0751 46.5115 77.9546 47.1697C77.6171 48.9946 77.1591 51.3932 76.6116 53.7677C76.3585 54.8619 76.5771 55.7597 77.2986 56.5937C78.8275 58.3599 80.3736 60.1727 81.8698 61.9269C82.1074 62.2043 82.345 62.4834 82.5826 62.7609L77.0937 70.9028C76.7579 70.7942 76.4239 70.6874 76.0951 70.5823C74.3423 70.0205 72.6877 69.4915 71.0675 68.8333C70.9298 68.7781 70.7989 68.723 70.675 68.6713C69.2528 68.082 67.7824 67.4737 65.8558 68.8746C65.8196 68.9022 64.3837 69.9482 62.9598 70.9889C62.247 71.5093 61.5376 72.028 61.0073 72.4174C60.7405 72.6139 60.5183 72.7776 60.3617 72.8913L60.174 73.0309C59.2632 73.715 59.2701 74.7885 59.7384 75.4519C60.0741 75.9275 60.5975 76.1791 61.1365 76.1791C61.4808 76.1791 61.832 76.0757 62.1437 75.8603C62.1919 75.8276 62.2367 75.7931 62.2797 75.7552C62.965 75.2434 67.6619 71.8178 67.8788 71.661C68.0149 71.5628 68.187 71.4576 68.2507 71.4628C68.4505 71.4766 68.8912 71.6592 69.3578 71.8522C69.4904 71.9074 69.6281 71.9642 69.7728 72.0228C71.5135 72.7293 73.3092 73.3049 75.0465 73.8597C75.7696 74.0906 76.5186 74.3301 77.2469 74.5748C77.9804 74.8212 78.7879 74.5473 79.2218 73.9045L86.1708 63.5966C86.6029 62.9539 86.5547 62.1026 86.052 61.5133C85.5303 60.9016 85.0103 60.2916 84.4903 59.6833C83.0199 57.9584 81.4996 56.175 79.9914 54.4328C80.5268 52.1066 80.9728 49.782 81.3085 47.9727C82.6153 47.3369 83.9308 46.6855 85.2048 46.0531C86.4204 45.45 87.6773 44.8262 88.9152 44.2231C90.5509 43.427 90.6576 42.1174 90.4579 41.1611C89.6831 37.4287 88.9617 33.6361 88.3591 30.4172L88.3557 30.4189Z" fill="#FE900F"/>
<path d="M50.668 67.2358C49.2011 66.1089 47.5517 65.1646 45.7645 64.4288C45.0551 64.1359 44.332 63.8498 43.6071 63.5707V52.0772C43.6622 52.1065 43.7156 52.1358 43.7707 52.1685C45.1412 52.9646 46.4549 54.1312 47.6722 55.6338C47.9804 56.0129 48.4332 56.2438 48.9205 56.2696C49.4043 56.2938 49.8829 56.1128 50.2273 55.7665L54.5695 51.4207C55.1877 50.8021 55.2445 49.8182 54.7021 49.1323C53.0165 47.0008 50.8626 45.2552 48.2989 43.9456C46.8268 43.1961 45.2549 42.6567 43.6071 42.331V37.5717C43.6071 36.6205 42.8358 35.8485 41.8854 35.8485H37.4088C36.4584 35.8485 35.6871 36.6205 35.6871 37.5717V42.3259C34.2184 42.605 32.8169 43.0444 31.5066 43.6406C28.9894 44.7865 26.9715 46.4477 25.5063 48.5792C24.0222 50.7418 23.2715 53.3661 23.2715 56.3782C23.2715 59.1008 23.7622 61.396 24.7315 63.2019C25.6854 64.9819 26.944 66.4621 28.4746 67.6063C29.9209 68.6867 31.5462 69.5931 33.3059 70.3013C34.0996 70.6201 34.8968 70.9286 35.6871 71.2198V84.4881C34.6161 84.2382 33.633 83.8419 32.7515 83.2957C31.0573 82.2463 29.5352 80.7816 28.2267 78.943C27.934 78.5311 27.476 78.2692 26.975 78.2244C26.474 78.1813 25.9764 78.3588 25.6165 78.7121L21.2743 82.9889C20.6475 83.6058 20.5856 84.5949 21.1314 85.2842C23.3059 88.0412 25.8076 90.1814 28.5625 91.6444C30.6768 92.7679 33.07 93.4726 35.6888 93.7483V98.2716C35.6888 99.2228 36.4601 99.9948 37.4105 99.9948H41.8871C42.8375 99.9948 43.6089 99.2228 43.6089 98.2716V93.3692C46.498 92.7661 48.9756 91.6237 50.99 89.9591C54.2424 87.2727 55.8901 83.5352 55.8901 78.8516C55.8901 76.1032 55.4046 73.7511 54.4473 71.8591C53.4969 69.9843 52.2262 68.4283 50.6698 67.2324L50.668 67.2358ZM39.2339 61.9457C39.1994 61.9319 39.165 61.9182 39.1306 61.9044V51.0502C39.1874 51.0502 39.2442 51.0485 39.301 51.0468C39.4043 51.045 39.5094 51.0433 39.6127 51.0433C39.6747 51.0433 39.7349 51.0468 39.7969 51.0485C39.9036 51.0502 40.0121 51.0537 40.1189 51.0605C40.1344 51.0605 40.1499 51.064 40.1653 51.064V62.3007C40.1567 62.2973 40.1464 62.2938 40.1378 62.2904C39.8331 62.1784 39.5335 62.0612 39.2339 61.944V61.9457ZM33.726 58.6838C33.1613 58.029 32.8875 57.1433 32.8875 55.9733C32.8875 54.3345 33.3834 53.1955 34.444 52.3891C34.8055 52.1151 35.2222 51.8842 35.6871 51.6929V60.2949C34.8968 59.8211 34.2408 59.2817 33.726 58.6821V58.6838ZM39.1306 39.2966H40.1636V41.964C39.8193 41.9571 39.4732 41.9588 39.1306 41.9657V39.2948V39.2966ZM45.1894 76.086C45.7714 76.8648 46.0675 77.9556 46.0675 79.3307C46.0675 81.0573 45.4787 82.3014 44.2149 83.2474C44.0221 83.3904 43.8206 83.5248 43.6071 83.6489V74.5661C44.2356 75.0142 44.7659 75.5208 45.1894 76.0877V76.086ZM40.1378 84.7207C39.9897 84.7379 39.8382 84.7517 39.685 84.7638C39.6488 84.7672 39.6127 84.769 39.5765 84.7707C39.456 84.7793 39.3337 84.7862 39.2098 84.7914C39.184 84.7914 39.1581 84.7931 39.1306 84.7948V72.4346C39.332 72.507 39.5317 72.5811 39.728 72.6569C39.7814 72.6776 39.8331 72.6982 39.8847 72.7189C39.9794 72.7551 40.0707 72.793 40.1636 72.8309V84.719C40.155 84.719 40.1464 84.7207 40.1378 84.7224V84.7207ZM40.1636 96.5536H39.1306V93.8776C39.1547 93.8776 39.1788 93.8758 39.2029 93.8741C39.4129 93.8672 39.6213 93.8569 39.8279 93.8465C39.9398 93.8414 40.0534 93.8379 40.1636 93.831V96.5536ZM48.7965 87.3054C46.9439 88.8356 44.5386 89.8161 41.6461 90.2193C40.601 90.3658 39.4715 90.4416 38.2904 90.4416C38.2129 90.4416 38.1371 90.4416 38.0631 90.4416C37.853 90.4399 37.6585 90.4347 37.4691 90.4278C34.716 90.3296 32.2608 89.7179 30.1757 88.6081C28.2456 87.5829 26.4499 86.1475 24.8228 84.3347L26.6565 82.5289C27.9392 84.0228 29.3751 85.2635 30.9385 86.2319C32.7842 87.3744 34.9192 88.0395 37.278 88.2084C37.6877 88.2394 38.1199 88.2549 38.5624 88.2549C38.7311 88.2549 38.8964 88.2532 39.0617 88.248C39.4835 88.2377 39.895 88.2101 40.2962 88.1705C40.3651 88.1636 40.4357 88.1584 40.5063 88.1498C41.1295 88.0809 41.7253 87.9775 42.2917 87.8396C42.2952 87.8396 42.2969 87.8379 42.3003 87.8379C43.8051 87.4726 45.1429 86.8574 46.2741 86.0113C48.4212 84.4071 49.511 82.1601 49.511 79.3341C49.511 77.1974 48.9842 75.4105 47.946 74.0216C46.9818 72.7344 45.6887 71.6661 44.1013 70.8424C43.6157 70.5908 43.1061 70.3461 42.5896 70.1169C41.5824 69.6655 40.5011 69.2467 39.3785 68.8728C38.9171 68.7177 38.447 68.5575 37.9822 68.3921C36.8647 67.9975 35.7232 67.565 34.5903 67.1083C33.1062 66.5104 31.7425 65.7505 30.5339 64.8475C29.4096 64.0083 28.4798 62.909 27.7653 61.5753C27.068 60.276 26.715 58.5287 26.715 56.3817C26.715 54.0468 27.2488 52.1341 28.3455 50.5333C29.4646 48.9032 30.9643 47.6745 32.9305 46.7802C34.3579 46.1306 35.9281 45.7084 37.6051 45.5223C38.5779 45.4103 39.6402 45.3776 40.6715 45.4327C41.0159 45.4517 41.3568 45.4792 41.6908 45.5171C43.4866 45.7239 45.1843 46.2288 46.7356 47.018C48.3695 47.852 49.7951 48.8928 50.9935 50.1249L49.084 52.0359C47.9546 50.871 46.7528 49.9164 45.4976 49.1858C44.4749 48.593 43.3902 48.1605 42.2762 47.902C41.4067 47.6987 40.4994 47.5953 39.5782 47.5953C39.3544 47.5953 39.134 47.6004 38.9171 47.6073C38.3076 47.628 37.7187 47.6797 37.1626 47.7607C35.2635 48.0381 33.6502 48.6705 32.3675 49.6424C30.4288 51.1122 29.4474 53.2421 29.4474 55.9733C29.4474 57.9756 30.0104 59.6453 31.1193 60.9325C32.1058 62.0801 33.4075 63.0572 34.9898 63.8326C35.5528 64.11 36.1382 64.3806 36.7287 64.6373C37.6705 65.044 38.6571 65.4282 39.6523 65.778C40.2032 65.9728 40.7525 66.1726 41.2879 66.3742C42.3537 66.7706 43.4195 67.1876 44.456 67.6149C45.9625 68.2353 47.3485 69.0279 48.5744 69.9688C49.7176 70.8476 50.6612 72.009 51.3774 73.4202C52.0868 74.8246 52.4483 76.6529 52.4483 78.8551C52.4483 82.5133 51.2552 85.2773 48.7999 87.3054H48.7965Z" fill="#FE900F"/>
<path d="M20.5598 78.9327C16.617 73.6236 13.8657 67.3806 12.6484 61.0738L18.201 66.009C18.9121 66.6414 20.0003 66.5759 20.6321 65.8642C21.264 65.1526 21.1986 64.0635 20.4875 63.4311L11.617 55.546C11.2761 55.2427 10.8285 55.0859 10.3722 55.1152C9.91595 55.1427 9.49068 55.3495 9.18593 55.6907L1.30718 64.5719C0.675295 65.2835 0.740722 66.3726 1.45181 67.005C1.77894 67.2962 2.187 67.4392 2.59505 67.4392C3.07026 67.4392 3.54374 67.2445 3.88292 66.8602L9.12222 60.955C10.3498 68.0837 13.3199 74.9608 17.7964 80.9884C18.1339 81.4433 18.6539 81.6845 19.179 81.6845C19.5354 81.6845 19.897 81.5743 20.2052 81.3451C20.9679 80.7782 21.128 79.6977 20.5598 78.9344V78.9327Z" fill="#FE900F"/>
</g>
<defs>
<clipPath id="clip0_76_214">
<rect width="89.6552" height="100" fill="white" transform="translate(0.873291)"/>
</clipPath>
</defs>
</svg>
