<svg width="98" height="100" viewBox="0 0 98 100" fill="none" xmlns="http://www.w3.org/2000/svg">
<g clip-path="url(#clip0_11_27)">
<path d="M75.0229 56.1362C76.0739 53.6088 76.7179 50.9769 76.9551 48.3212C76.9588 48.2919 76.9624 48.2607 76.9643 48.2314C77.0299 47.4653 77.061 46.7028 77.061 45.9441C77.061 39.731 74.9116 33.7854 70.8921 28.9982C67.3926 24.8305 62.7947 21.9164 57.6421 20.5399C52.2888 19.0829 46.4356 19.3102 40.9217 21.5736C40.8341 21.6103 40.752 21.6506 40.6736 21.6983C31.9977 25.373 25.5734 33.6315 24.7068 43.6788C24.7013 43.7319 24.6995 43.7869 24.6995 43.84C24.6995 44.7803 25.4165 45.5812 26.3671 45.6637C27.3706 45.7516 28.2555 45.0039 28.3431 43.9958C29.416 31.5751 40.3524 22.3269 52.7358 23.3899C54.2776 23.5219 55.7828 23.806 57.2334 24.2312C63.5537 26.1226 69.0037 30.7595 71.6949 37.3483C73.992 42.9713 73.9774 49.1404 71.6566 54.7231C69.3339 60.3057 64.975 64.6512 59.3791 66.9587C58.4467 67.3436 58.0015 68.4139 58.3847 69.3505C58.6748 70.0598 59.3553 70.4886 60.0724 70.4886C60.3023 70.4886 60.5377 70.4446 60.7639 70.3512C67.2612 67.6717 72.3244 62.6242 75.0229 56.138V56.1362Z" fill="#FE900F"/>
<path d="M50.82 59.0191C50.9459 59.9373 51.7286 60.6008 52.6245 60.6008C52.7084 60.6008 52.7924 60.5953 52.8763 60.5843C53.8743 60.445 54.5713 59.5213 54.4345 58.5187L52.7157 46.0082C52.5789 45.0057 51.6575 44.3056 50.6594 44.443L38.2049 46.1695C37.2069 46.3088 36.5099 47.2325 36.6467 48.235C36.7854 49.2376 37.705 49.9377 38.703 49.8002L46.5669 48.7097L9.96058 91.3841C9.30374 92.1502 9.38767 93.3085 10.1522 93.9683C10.497 94.2671 10.9203 94.4119 11.3418 94.4119C11.8545 94.4119 12.3635 94.1956 12.7248 93.7759L49.6742 50.6983L50.8182 59.0173L50.82 59.0191Z" fill="#FE900F"/>
<path d="M25.7814 61.8251C25.9073 62.7433 26.6901 63.4068 27.5859 63.4068C27.6699 63.4068 27.7538 63.4013 27.8377 63.3903C28.8358 63.251 29.5327 62.3273 29.3959 61.3247L27.6772 48.8142C27.6115 48.3322 27.3579 47.8978 26.9711 47.6046C26.5861 47.3113 26.0989 47.1849 25.619 47.2508L13.1645 48.9773C12.1665 49.1166 11.4695 50.0403 11.6063 51.0428C11.745 52.0454 12.6646 52.7473 13.6626 52.608L21.3058 51.5487L1.39606 74.3191C0.731912 75.0797 0.804895 76.238 1.56209 76.9052C1.90876 77.2112 2.33753 77.3615 2.76631 77.3615C3.27354 77.3615 3.77712 77.1508 4.13838 76.7384L24.6137 53.3228L25.7833 61.8269L25.7814 61.8251Z" fill="#FE900F"/>
<path d="M56.3685 70.5106C56.2299 69.5081 55.3121 68.8098 54.3122 68.9454L41.8577 70.6719C40.8597 70.8112 40.1627 71.7349 40.2995 72.7374C40.4382 73.74 41.3596 74.4401 42.3558 74.3026L50.4496 73.181L29.6586 96.9576C28.9945 97.7182 29.0675 98.8765 29.8247 99.5436C30.1713 99.8497 30.6001 100 31.0289 100C31.5361 100 32.0397 99.7892 32.401 99.3769L53.3562 75.4096L54.471 83.5215C54.5969 84.4397 55.3796 85.1032 56.2755 85.1032C56.3594 85.1032 56.4433 85.0977 56.5273 85.0867C57.5253 84.9474 58.2223 84.0237 58.0854 83.0212L56.3667 70.5106H56.3685Z" fill="#FE900F"/>
<path d="M95.5621 35.4386C95.3997 34.0622 94.5641 33.2026 93.2102 33.0193C91.3747 32.7701 89.5082 32.4988 87.7 32.2349C86.5104 32.0608 85.3208 31.8885 84.1202 31.7181C83.0675 29.79 81.938 27.7922 80.6754 25.6241C80.9528 24.9918 81.21 24.3576 81.46 23.74C81.5494 23.5219 81.637 23.3038 81.7264 23.0857C82.3887 21.4692 83.0492 19.8508 83.7079 18.2398L84.4304 16.473C84.7424 15.7106 84.5089 14.8345 83.8611 14.3305L73.4611 6.21496C72.8134 5.71095 71.9102 5.69995 71.2534 6.19113C70.5673 6.70431 69.8813 7.21566 69.1971 7.72517C67.2794 9.15474 65.2961 10.632 63.3621 12.1037C61.3678 11.4934 59.2167 10.9014 56.6112 10.2416C55.9981 8.72403 55.3668 7.1955 54.7556 5.71461C54.2082 4.38951 53.6408 3.0186 53.0952 1.66967C52.5953 0.43988 51.6064 -0.142944 50.3055 0.0293375C46.1746 0.577338 42.3321 1.05936 38.5571 1.50839C37.1978 1.66967 36.3475 2.51458 36.1632 3.88733C35.9388 5.5515 35.6943 7.24498 35.4571 8.88348C35.2637 10.2269 35.063 11.6143 34.8714 12.9999C32.8243 14.1252 30.7862 15.2909 28.8047 16.4694C27.3998 15.8755 25.9767 15.2854 24.5973 14.7117C23.196 14.1307 21.7473 13.5296 20.3296 12.9284C19.0506 12.3859 17.8902 12.6993 17.0618 13.8082C16.1112 15.0819 15.1132 16.3649 14.148 17.6075C13.7794 18.0804 13.4108 18.5551 13.0441 19.0297L9.4716 23.6483C8.98991 24.2733 8.9589 25.1366 9.39679 25.7927C9.44423 25.8623 9.4862 25.9301 9.52816 25.9943C9.63034 26.1519 9.73616 26.315 9.86388 26.4873C10.2762 27.0445 10.6886 27.6016 11.1009 28.1588C12.4858 30.0301 13.9181 31.9637 15.354 33.8569C14.7172 36.0471 14.0951 38.3399 13.451 40.86C13.201 41.8405 13.7885 42.8394 14.7647 43.0904C15.7408 43.3415 16.7352 42.7514 16.9852 41.7708C17.6293 39.2453 18.2533 36.9543 18.89 34.7678C19.098 34.0549 19.2695 32.9717 18.3773 31.795C16.914 29.8688 15.4471 27.8876 14.0294 25.9705C13.7466 25.5893 13.4638 25.208 13.1828 24.8268L15.9269 21.2804C16.2918 20.8075 16.6586 20.3365 17.0253 19.8655C17.8573 18.7951 18.713 17.6955 19.556 16.5793C20.7785 17.0943 22.01 17.6038 23.207 18.1005C24.6538 18.6998 26.15 19.3212 27.6133 19.9425C28.604 20.3622 29.5601 20.2852 30.5344 19.7042C32.5816 18.4836 34.6926 17.2758 36.811 16.1156C37.7707 15.5896 38.3089 14.818 38.4549 13.7587C38.6538 12.3108 38.8672 10.8372 39.0734 9.41132C39.2796 7.98726 39.4912 6.52287 39.692 5.06581C43.0181 4.6681 46.4082 4.24106 50.0135 3.76637C50.4733 4.8917 50.9404 6.02069 51.3929 7.12035C52.037 8.67821 52.7011 10.2892 53.3416 11.8746C53.8725 13.1905 54.8815 13.5827 55.5949 13.7623C58.2351 14.4276 60.3935 15.0233 62.386 15.6336C63.55 15.9892 64.5353 15.8169 65.4914 15.0893C67.4364 13.6066 69.4416 12.1128 71.3811 10.6686C71.6967 10.434 72.0106 10.1994 72.3262 9.96299L80.5368 16.3704L80.3415 16.8487C79.6829 18.4597 79.0242 20.0763 78.3619 21.6909C78.2707 21.9127 78.1813 22.1363 78.09 22.3581C77.7926 23.0912 77.5116 23.784 77.2033 24.4658C76.5811 25.8385 77.1996 26.8979 77.4314 27.2974C78.7779 29.6085 79.9712 31.7199 81.0787 33.7543C81.5695 34.6542 82.2993 35.1618 83.3119 35.3048C84.6037 35.4863 85.8937 35.675 87.1837 35.862C88.7692 36.0929 90.4022 36.3312 92.0261 36.5548C92.4019 39.7108 92.8435 43.325 93.3343 46.9264C92.1246 47.4231 90.9076 47.929 89.7271 48.422C88.2565 49.0341 86.7348 49.6683 85.2369 50.2786C83.9414 50.8064 83.5583 51.7833 83.3831 52.4706C82.8978 54.3804 82.2446 56.8913 81.4965 59.3765C81.1516 60.5202 81.3195 61.4879 82.0238 62.4244C83.5163 64.4093 85.0252 66.4474 86.4849 68.4176C86.7129 68.7273 86.9428 69.0371 87.1727 69.3468L80.7922 77.5961C80.4455 77.4569 80.1007 77.3212 79.7613 77.1856C77.9477 76.4653 76.2344 75.7854 74.5668 74.9716C74.4245 74.902 74.2913 74.836 74.1636 74.7718C72.7021 74.0461 71.1913 73.2946 69.0511 74.6472C69.011 74.6729 67.4199 75.6809 65.8417 76.6834C65.0517 77.1856 64.2653 77.686 63.6759 78.0617C63.3785 78.2505 63.1322 78.4081 62.9607 78.5199L62.7509 78.6555C61.7382 79.3171 61.6707 80.4571 62.1196 81.1957C62.4644 81.7602 63.0537 82.07 63.6686 82.07C63.9952 82.07 64.3273 81.982 64.6338 81.7987C64.6867 81.7675 64.736 81.7346 64.7853 81.6979C65.5169 81.2232 70.3812 78.1386 70.9961 77.7501C71.1475 77.6548 71.3318 77.5595 71.403 77.5668C71.6128 77.5961 72.0653 77.8216 72.5452 78.0598C72.6802 78.1276 72.8225 78.1973 72.9721 78.2706C74.7638 79.1448 76.6212 79.8816 78.4184 80.5964C79.1665 80.8933 79.9401 81.2012 80.6919 81.511C81.4509 81.8244 82.323 81.5898 82.8266 80.941L90.904 70.4978C91.4076 69.8472 91.4167 68.9399 90.9259 68.2783C90.4186 67.5947 89.9151 66.9147 89.4115 66.2329C87.9755 64.2957 86.4922 62.2925 85.0197 60.3332C85.7514 57.8975 86.3882 55.4635 86.8699 53.5703C88.2948 52.9893 89.7326 52.39 91.1247 51.8108C92.453 51.2573 93.8269 50.6855 95.1789 50.132C96.9652 49.4025 97.1695 48.0224 97.0272 46.9924C96.4726 42.9731 95.9781 38.897 95.5676 35.4404L95.5621 35.4386Z" fill="#FE900F"/>
</g>
<defs>
<clipPath id="clip0_11_27">
<rect width="96.1165" height="100" fill="white" transform="translate(0.941742)"/>
</clipPath>
</defs>
</svg>
