<svg width="687" height="841" viewBox="0 0 687 841" fill="none" xmlns="http://www.w3.org/2000/svg">
<g opacity="0.11" clip-path="url(#clip0_2103_9148)">
<path d="M328.575 137.222C297.271 168.614 246.599 168.614 215.295 137.222C183.992 105.83 183.992 54.8887 215.295 23.6849C246.599 -7.51899 297.271 -7.70696 328.575 23.6849C359.878 55.0767 359.878 106.018 328.575 137.222Z" fill="#6D6E76"/>
<path d="M328.575 817.503C297.271 848.895 246.599 848.895 215.295 817.503C183.992 786.111 183.992 735.17 215.295 703.966C246.599 672.762 297.271 672.574 328.575 703.966C359.878 735.358 359.878 786.299 328.575 817.503Z" fill="#6D6E76"/>
<path d="M328.966 477.268C297.662 508.66 246.99 508.66 215.686 477.268C198.861 460.539 191.23 437.982 192.404 415.989H192.013C192.991 394.184 185.165 372.002 168.535 355.273C159.731 346.438 149.558 340.235 138.601 336.287C129.406 333.092 119.819 331.588 110.233 331.776C109.45 331.776 108.863 331.776 108.08 331.776H103.189C81.6681 331.024 59.9513 338.731 43.5169 355.273C27.0826 371.814 19.2567 393.808 20.2349 415.425C20.2349 415.801 20.2349 416.365 20.2349 416.741C20.2349 416.928 20.2349 417.116 20.2349 417.304C21.0175 438.734 13.1916 460.539 -3.24272 476.893C-34.5462 508.284 -85.2188 508.284 -116.522 476.893C-147.826 445.501 -147.826 394.747 -116.522 363.356C-100.088 346.814 -78.3712 339.107 -56.85 339.859C-56.6544 339.859 -56.2631 339.859 -56.0674 339.859C-34.9375 340.423 -13.612 332.528 2.62669 316.362C19.0611 300.008 26.6913 278.203 26.1043 256.774C24.5392 234.405 32.3651 211.66 49.3864 194.554C80.6899 163.162 131.362 163.162 162.666 194.554C179.296 211.284 187.122 233.277 186.144 255.27C186.144 255.458 186.144 255.646 186.144 255.834C185.752 265.797 186.926 275.759 190.252 285.346C193.969 296.812 200.426 307.527 209.621 316.55C225.86 332.716 246.99 340.611 268.12 340.047C268.12 340.047 268.315 340.047 268.511 340.047C269.098 340.047 269.489 340.047 270.076 340.047C291.402 339.483 312.923 347.19 329.162 363.544C360.465 394.935 360.465 445.877 329.162 477.08L328.966 477.268Z" fill="#6D6E76"/>
<path d="M497.222 534.413C497.222 534.413 495.657 532.909 494.875 532.157C494.288 531.593 493.701 531.029 493.114 530.465C493.896 531.029 494.483 531.781 495.266 532.533C496.048 533.285 496.635 533.849 497.222 534.601V534.413Z" fill="#6D6E76"/>
<path d="M384.138 310.535C384.138 310.535 382.769 309.219 381.986 308.467C381.204 307.715 380.617 306.963 380.03 306.399C380.812 307.151 381.595 307.903 382.378 308.843C382.965 309.407 383.551 309.971 384.138 310.535Z" fill="#6D6E76"/>
<path d="M497.222 534.413C497.222 534.413 495.657 532.909 494.875 532.157C494.288 531.593 493.701 531.029 493.114 530.465C493.896 531.029 494.483 531.781 495.266 532.533C496.048 533.285 496.635 533.849 497.222 534.601V534.413Z" fill="#6D6E76"/>
<path d="M384.138 310.535C384.138 310.535 382.769 309.219 381.986 308.467C381.204 307.715 380.617 306.963 380.03 306.399C380.812 307.151 381.595 307.903 382.378 308.843C382.965 309.407 383.551 309.971 384.138 310.535Z" fill="#6D6E76"/>
<path d="M384.138 310.535C384.138 310.535 382.769 309.219 381.986 308.467C381.204 307.715 380.617 306.963 380.03 306.399C380.812 307.151 381.595 307.903 382.378 308.843C382.965 309.407 383.551 309.971 384.138 310.535Z" fill="#6D6E76"/>
<path d="M661.175 477.268C640.632 497.757 611.872 504.901 585.655 498.509C571.764 495.126 558.656 487.983 547.895 477.268C516.592 445.876 516.592 395.123 547.895 363.731C558.656 352.829 571.764 345.874 585.655 342.49C611.872 336.099 640.632 343.242 661.175 363.731C692.478 395.123 692.478 445.876 661.175 477.268Z" fill="#6D6E76"/>
<path d="M495.266 646.07C463.963 677.462 413.29 677.462 381.986 646.07C357.335 621.445 352.052 584.79 366.139 554.902C370.052 546.819 375.139 539.112 381.986 532.533L382.378 532.157C393.53 521.067 400.964 507.72 409.573 495.502C428.159 469.374 415.051 355.273 409.573 345.686C402.529 333.28 394.312 321.249 383.943 310.723C383.356 310.159 382.769 309.595 382.182 309.031C381.399 308.279 380.617 307.527 379.834 306.587C373.965 300.384 369.465 293.429 365.943 286.098C351.857 256.21 357.139 219.743 381.791 194.93C413.094 163.538 463.767 163.538 495.07 194.93C517.178 217.111 523.635 249.067 514.439 277.075C510.722 288.542 504.461 299.068 495.462 308.279H495.266C495.266 308.279 495.07 308.843 494.875 308.843C483.723 319.933 475.114 332.528 467.68 345.498C452.419 372.002 450.659 465.426 467.68 495.314C474.723 507.72 482.94 519.563 493.31 530.277C493.896 530.841 494.483 531.405 495.07 531.969C495.853 532.721 496.636 533.473 497.418 534.225C505.44 542.872 511.309 552.834 514.831 563.549C524.222 591.557 517.765 623.513 495.462 645.694L495.266 646.07Z" fill="#6D6E76"/>
<path d="M497.222 534.413C497.222 534.413 495.657 532.909 494.875 532.157C494.288 531.593 493.701 531.029 493.114 530.465C493.896 531.029 494.483 531.781 495.266 532.533C496.048 533.285 496.635 533.849 497.222 534.601V534.413Z" fill="#6D6E76"/>
<path d="M162.666 646.07C131.362 677.462 80.6899 677.462 49.3863 646.07C18.0828 614.678 18.0828 563.737 49.3863 532.533C80.6899 501.141 131.362 501.141 162.666 532.533C193.969 563.925 193.969 614.866 162.666 646.07Z" fill="#6D6E76"/>
</g>
<defs>
<clipPath id="clip0_2103_9148">
<rect width="827" height="841" fill="white" transform="translate(-140)"/>
</clipPath>
</defs>
</svg>
