<svg width="430" height="792" viewBox="0 0 430 792" fill="none" xmlns="http://www.w3.org/2000/svg">
<g opacity="0.11" clip-path="url(#clip0_76_86)">
<path d="M267.678 129.552C238.305 159.078 190.757 159.078 161.384 129.552C132.011 100.027 132.011 52.1144 161.384 22.7657C190.757 -6.58295 238.305 -6.75975 267.678 22.7657C297.051 52.2912 297.051 100.204 267.678 129.552Z" fill="#F38F1C"/>
<path d="M267.678 769.389C238.305 798.915 190.757 798.915 161.384 769.389C132.011 739.864 132.011 691.951 161.384 662.602C190.757 633.254 238.305 633.077 267.678 662.602C297.051 692.128 297.051 740.04 267.678 769.389Z" fill="#F38F1C"/>
<path d="M268.045 449.382C238.672 478.908 191.125 478.908 161.752 449.382C145.964 433.647 138.804 412.431 139.905 391.746H139.538C140.456 371.237 133.113 350.375 117.508 334.64C109.247 326.33 99.701 320.496 89.4204 316.783C80.7921 313.777 71.7966 312.363 62.8011 312.54C62.0667 312.54 61.516 312.54 60.7817 312.54H56.1921C35.9981 311.833 15.6206 319.081 0.199692 334.64C-15.2212 350.198 -22.5645 370.884 -21.6465 391.215C-21.6465 391.569 -21.6465 392.099 -21.6465 392.453C-21.6465 392.63 -21.6465 392.807 -21.6465 392.983C-20.9122 413.139 -28.2555 433.647 -43.6764 449.029C-73.0494 478.554 -120.597 478.554 -149.97 449.029C-179.343 419.503 -179.343 371.768 -149.97 342.242C-134.549 326.684 -114.172 319.435 -93.9778 320.142C-93.7942 320.142 -93.427 320.142 -93.2434 320.142C-73.4166 320.673 -53.4062 313.247 -38.1689 298.042C-22.748 282.661 -15.5883 262.152 -16.1391 241.997C-17.6078 220.958 -10.2645 199.565 5.70714 183.476C35.0802 153.951 82.6279 153.951 112.001 183.476C127.605 199.211 134.949 219.897 134.031 240.582C134.031 240.759 134.031 240.936 134.031 241.113C133.664 250.483 134.765 259.854 137.886 268.87C141.374 279.655 147.432 289.733 156.061 298.219C171.298 313.424 191.125 320.849 210.952 320.319C210.952 320.319 211.135 320.319 211.319 320.319C211.869 320.319 212.237 320.319 212.787 320.319C232.798 319.789 252.992 327.037 268.229 342.419C297.602 371.944 297.602 419.857 268.229 449.206L268.045 449.382Z" fill="#F38F1C"/>
<path d="M425.926 503.129C425.926 503.129 424.457 501.715 423.723 501.008C423.172 500.477 422.621 499.947 422.071 499.417C422.805 499.947 423.356 500.654 424.09 501.361C424.824 502.069 425.375 502.599 425.926 503.306V503.129Z" fill="#F38F1C"/>
<path d="M319.815 292.561C319.815 292.561 318.53 291.324 317.796 290.617C317.062 289.909 316.511 289.202 315.96 288.672C316.695 289.379 317.429 290.086 318.163 290.97C318.714 291.501 319.265 292.031 319.815 292.561Z" fill="#F38F1C"/>
<path d="M425.926 503.129C425.926 503.129 424.457 501.715 423.723 501.008C423.172 500.477 422.621 499.947 422.071 499.417C422.805 499.947 423.356 500.654 424.09 501.361C424.824 502.069 425.375 502.599 425.926 503.306V503.129Z" fill="#F38F1C"/>
<path d="M319.815 292.561C319.815 292.561 318.53 291.324 317.796 290.617C317.062 289.909 316.511 289.202 315.96 288.672C316.695 289.379 317.429 290.086 318.163 290.97C318.714 291.501 319.265 292.031 319.815 292.561Z" fill="#F38F1C"/>
<path d="M319.815 292.561C319.815 292.561 318.53 291.324 317.796 290.617C317.062 289.909 316.511 289.202 315.96 288.672C316.695 289.379 317.429 290.086 318.163 290.97C318.714 291.501 319.265 292.031 319.815 292.561Z" fill="#F38F1C"/>
<path d="M424.09 608.148C394.717 637.674 347.169 637.674 317.796 608.148C294.665 584.987 289.708 550.512 302.926 522.401C306.598 514.798 311.371 507.549 317.796 501.361L318.163 501.008C328.628 490.577 335.604 478.024 343.681 466.532C361.121 441.957 348.821 334.64 343.681 325.623C337.072 313.954 329.362 302.639 319.632 292.738C319.081 292.208 318.531 291.677 317.98 291.147C317.245 290.44 316.511 289.733 315.777 288.849C310.269 283.014 306.047 276.473 302.742 269.578C289.525 241.466 294.481 207.167 317.613 183.83C346.986 154.304 394.533 154.304 423.906 183.83C444.651 204.692 450.709 234.748 442.081 261.091C438.593 271.876 432.718 281.777 424.274 290.44H424.09C424.09 290.44 423.906 290.97 423.723 290.97C413.259 301.401 405.181 313.247 398.205 325.446C383.886 350.375 382.233 438.244 398.205 466.355C404.814 478.024 412.524 489.162 422.254 499.24C422.805 499.77 423.356 500.301 423.906 500.831C424.641 501.538 425.375 502.245 426.109 502.953C433.636 511.085 439.144 520.456 442.448 530.533C451.26 556.876 445.202 586.932 424.274 607.795L424.09 608.148Z" fill="#F38F1C"/>
<path d="M425.926 503.129C425.926 503.129 424.457 501.715 423.723 501.008C423.172 500.477 422.621 499.947 422.071 499.417C422.805 499.947 423.356 500.654 424.09 501.361C424.824 502.069 425.375 502.599 425.926 503.306V503.129Z" fill="#F38F1C"/>
<path d="M112.001 608.148C82.6278 637.674 35.0801 637.674 5.70705 608.148C-23.666 578.623 -23.666 530.71 5.70705 501.361C35.0801 471.836 82.6278 471.836 112.001 501.361C141.374 530.887 141.374 578.799 112.001 608.148Z" fill="#F38F1C"/>
</g>
<defs>
<clipPath id="clip0_76_86">
<rect width="776" height="791" fill="white" transform="translate(-172 0.489014)"/>
</clipPath>
</defs>
</svg>
