<svg width="159" height="40" viewBox="0 0 159 40" fill="none" xmlns="http://www.w3.org/2000/svg">
<g clip-path="url(#clip0_28_205)">
<path d="M53.8225 20.7778C54.7517 20.3397 55.4665 19.7228 55.9758 18.9003C56.4762 18.0867 56.7263 17.1032 56.7263 15.9678C56.7263 14.8323 56.4762 13.8489 55.9758 13.0264C55.4755 12.2038 54.7607 11.578 53.8225 11.1399C52.8933 10.7018 51.7675 10.4872 50.4452 10.4872H44.5751V26.2047H46.7283V21.4215H50.4452C50.7758 21.4215 51.0974 21.4036 51.4012 21.3768L54.6356 26.2047H56.9765L53.4026 20.9387C53.5456 20.8851 53.6796 20.8315 53.8136 20.7689L53.8225 20.7778ZM50.3827 19.5261H46.7283V12.4542H50.3827C51.7586 12.4542 52.804 12.7581 53.5098 13.375C54.2157 13.9919 54.5731 14.8592 54.5731 15.9767C54.5731 17.0943 54.2157 17.9705 53.5098 18.5963C52.804 19.2222 51.7586 19.5261 50.3827 19.5261Z" fill="white"/>
<path d="M72.7196 12.5972C72.0048 11.873 71.156 11.3098 70.1821 10.9164C69.2082 10.523 68.145 10.3174 67.0013 10.3174C65.8577 10.3174 64.7766 10.523 63.7937 10.9253C62.8198 11.3277 61.971 11.8909 61.2563 12.624C60.5415 13.3482 59.9786 14.1976 59.5765 15.1721C59.1745 16.1466 58.9779 17.2105 58.9779 18.3639C58.9779 19.5172 59.1745 20.5811 59.5765 21.5556C59.9786 22.5302 60.5326 23.3795 61.2563 24.1037C61.971 24.8279 62.8198 25.3911 63.8027 25.8024C64.7855 26.2047 65.8487 26.4104 66.9924 26.4104C68.136 26.4104 69.1993 26.2137 70.1731 25.8113C71.147 25.418 71.9958 24.8547 72.7106 24.1305C73.4254 23.4063 73.9794 22.557 74.3814 21.5825C74.7745 20.608 74.9711 19.5351 74.9711 18.3728C74.9711 17.2105 74.7745 16.1556 74.3814 15.1721C73.9883 14.1886 73.4343 13.3393 72.7106 12.6151L72.7196 12.5972ZM72.389 20.7599C72.0941 21.4931 71.6831 22.1368 71.1649 22.6822C70.6377 23.2275 70.0213 23.6477 69.3154 23.9517C68.6096 24.2557 67.8322 24.3987 66.9834 24.3987C66.1346 24.3987 65.3841 24.2468 64.6693 23.9517C63.9635 23.6567 63.3381 23.2275 62.8109 22.6822C62.2838 22.1368 61.8638 21.4931 61.5779 20.7599C61.2831 20.0268 61.1401 19.2222 61.1401 18.3549C61.1401 17.4877 61.2831 16.692 61.5779 15.9589C61.8728 15.2347 62.2838 14.591 62.8109 14.0366C63.3381 13.4823 63.9635 13.0532 64.6693 12.7582C65.3752 12.4631 66.1525 12.3111 66.9834 12.3111C67.8144 12.3111 68.6096 12.4631 69.3154 12.7582C70.0213 13.0621 70.6377 13.4823 71.1649 14.0366C71.692 14.591 72.0941 15.2347 72.389 15.9589C72.6838 16.6831 72.8268 17.4788 72.8268 18.3549C72.8268 19.2311 72.6838 20.0268 72.389 20.7599Z" fill="white"/>
<path d="M92.5011 10.4962L86.3093 21.5378L80.0282 10.4962H78.2681V26.2137H80.332V14.8234L85.7733 24.3093H86.765L92.2063 14.7519L92.2241 26.2137H94.2881L94.2613 10.4962H92.5011Z" fill="white"/>
<path d="M109.593 18.3281C109.379 18.2208 109.146 18.1403 108.905 18.0688C108.905 18.0688 108.923 18.0688 108.932 18.0599C109.549 17.747 110.04 17.2999 110.406 16.7099C110.773 16.1198 110.951 15.4045 110.951 14.5552C110.951 13.2946 110.487 12.3022 109.557 11.578C108.628 10.8538 107.288 10.4872 105.555 10.4872H98.8V26.2047H105.984C107.887 26.2047 109.325 25.8382 110.299 25.0961C111.264 24.354 111.747 23.308 111.747 21.9669C111.747 21.0728 111.55 20.3129 111.166 19.7139C110.782 19.1059 110.254 18.65 109.593 18.337V18.3281ZM105.358 12.3111C106.448 12.3111 107.297 12.5167 107.896 12.937C108.494 13.3572 108.798 13.983 108.798 14.8234C108.798 15.6638 108.494 16.2897 107.896 16.7099C107.297 17.1301 106.448 17.3357 105.358 17.3357H100.953V12.3022H105.358V12.3111ZM108.628 23.764C107.994 24.1842 107.091 24.3898 105.894 24.3898H100.944V19.1596H105.894C107.083 19.1596 107.994 19.3652 108.628 19.7854C109.263 20.2056 109.575 20.8672 109.575 21.7881C109.575 22.709 109.263 23.3437 108.628 23.764Z" fill="white"/>
<path d="M129.259 15.1542C128.866 14.1708 128.312 13.3214 127.588 12.5972C126.873 11.873 126.024 11.3098 125.05 10.9164C124.076 10.523 123.013 10.3174 121.87 10.3174C120.726 10.3174 119.645 10.523 118.662 10.9253C117.688 11.3277 116.839 11.8909 116.125 12.624C115.41 13.3482 114.847 14.1976 114.445 15.1721C114.043 16.1466 113.846 17.2105 113.846 18.3639C113.846 19.5172 114.043 20.5811 114.445 21.5556C114.847 22.5302 115.401 23.3795 116.125 24.1037C116.839 24.8279 117.688 25.3911 118.671 25.8024C119.654 26.2047 120.717 26.4104 121.861 26.4104C123.004 26.4104 124.068 26.2137 125.041 25.8113C126.015 25.418 126.864 24.8547 127.579 24.1305C128.294 23.4063 128.848 22.557 129.25 21.5825C129.643 20.608 129.839 19.5351 129.839 18.3728C129.839 17.2105 129.643 16.1556 129.25 15.1721L129.259 15.1542ZM127.257 20.7599C126.962 21.4931 126.551 22.1368 126.033 22.6822C125.515 23.2275 124.89 23.6477 124.184 23.9517C123.478 24.2557 122.701 24.3987 121.852 24.3987C121.003 24.3987 120.252 24.2468 119.538 23.9517C118.832 23.6567 118.206 23.2275 117.679 22.6822C117.152 22.1368 116.732 21.4931 116.446 20.7599C116.151 20.0268 116.008 19.2222 116.008 18.3549C116.008 17.4877 116.151 16.692 116.446 15.9589C116.741 15.2347 117.152 14.591 117.679 14.0366C118.206 13.4823 118.832 13.0532 119.538 12.7582C120.243 12.4631 121.021 12.3111 121.852 12.3111C122.683 12.3111 123.478 12.4631 124.184 12.7582C124.89 13.0621 125.506 13.4823 126.033 14.0366C126.56 14.591 126.962 15.2347 127.257 15.9589C127.552 16.6831 127.695 17.4788 127.695 18.3549C127.695 19.2311 127.552 20.0268 127.257 20.7599Z" fill="white"/>
<path d="M144.751 10.4962L137.934 26.2137H140.15L141.803 22.2798H149.808L151.461 26.2137H153.722L146.887 10.4962H144.76H144.751ZM142.562 20.4917L145.806 12.776L149.049 20.4917H142.553H142.562Z" fill="#F38F1C"/>
<path d="M158.109 10.4962H155.956V26.2137H158.109V10.4962Z" fill="#F38F1C"/>
<path d="M134.092 25.7577C133.529 26.3388 132.627 26.3388 132.064 25.7577C131.501 25.1766 131.501 24.2199 132.064 23.6388C132.627 23.0577 133.529 23.0577 134.092 23.6388C134.655 24.2199 134.655 25.1766 134.092 25.7577Z" fill="#F38F1C"/>
<path d="M21.8987 6.52661C20.4692 8.01968 18.155 8.01968 16.7255 6.52661C15.2959 5.03354 15.2959 2.61065 16.7255 1.12652C18.155 -0.357607 20.4692 -0.366547 21.8987 1.12652C23.3283 2.6196 23.3283 5.04248 21.8987 6.52661Z" fill="#F38F1C"/>
<path d="M21.8987 38.8824C20.4692 40.3755 18.155 40.3755 16.7255 38.8824C15.2959 37.3893 15.2959 34.9665 16.7255 33.4823C18.155 31.9982 20.4692 31.9893 21.8987 33.4823C23.3283 34.9754 23.3283 37.3983 21.8987 38.8824Z" fill="#F38F1C"/>
<path d="M21.9166 22.7001C20.487 24.1931 18.1729 24.1931 16.7434 22.7001C15.975 21.9043 15.6265 20.8315 15.6801 19.7854H15.6623C15.7069 18.7483 15.3496 17.6933 14.5901 16.8976C14.188 16.4774 13.7234 16.1824 13.2231 15.9946C12.8031 15.8427 12.3653 15.7711 11.9275 15.7801C11.8918 15.7801 11.865 15.7801 11.8293 15.7801H11.6059C10.6231 15.7443 9.63131 16.1109 8.88079 16.8976C8.13027 17.6844 7.77288 18.7304 7.81756 19.7586C7.81756 19.7765 7.81756 19.8033 7.81756 19.8212C7.81756 19.8301 7.81756 19.8391 7.81756 19.848C7.8533 20.8672 7.49591 21.9043 6.74539 22.6822C5.31583 24.1752 3.00173 24.1752 1.57217 22.6822C0.14261 21.1891 0.14261 18.7752 1.57217 17.2821C2.32269 16.4953 3.31445 16.1287 4.29727 16.1645C4.3062 16.1645 4.32407 16.1645 4.33301 16.1645C5.29796 16.1913 6.27185 15.8158 7.01343 15.0469C7.76395 14.2691 8.1124 13.232 8.0856 12.2128C8.01412 11.1489 8.37151 10.0671 9.14884 9.25347C10.5784 7.7604 12.8925 7.7604 14.3221 9.25347C15.0815 10.0492 15.4389 11.0952 15.3942 12.1413C15.3942 12.1502 15.3942 12.1591 15.3942 12.1681C15.3764 12.6419 15.43 13.1158 15.5819 13.5718C15.7516 14.1171 16.0465 14.6267 16.4664 15.0559C17.208 15.8248 18.1729 16.2003 19.1379 16.1735C19.1379 16.1735 19.1468 16.1735 19.1558 16.1735C19.1826 16.1735 19.2004 16.1735 19.2272 16.1735C20.2011 16.1466 21.1839 16.5132 21.9255 17.291C23.3551 18.7841 23.3551 21.207 21.9255 22.6911L21.9166 22.7001Z" fill="#F38F1C"/>
<path d="M29.6005 25.418C29.6005 25.418 29.529 25.3465 29.4933 25.3107C29.4665 25.2839 29.4396 25.257 29.4128 25.2302C29.4486 25.257 29.4754 25.2928 29.5111 25.3286C29.5469 25.3643 29.5737 25.3912 29.6005 25.4269V25.418Z" fill="#F38F1C"/>
<path d="M24.4362 14.7698C24.4362 14.7698 24.3736 14.7072 24.3379 14.6714C24.3021 14.6357 24.2753 14.5999 24.2485 14.5731C24.2843 14.6089 24.32 14.6446 24.3558 14.6893C24.3826 14.7161 24.4094 14.743 24.4362 14.7698Z" fill="#F38F1C"/>
<path d="M29.6005 25.418C29.6005 25.418 29.529 25.3465 29.4933 25.3107C29.4665 25.2839 29.4396 25.257 29.4128 25.2302C29.4486 25.257 29.4754 25.2928 29.5111 25.3286C29.5469 25.3643 29.5737 25.3912 29.6005 25.4269V25.418Z" fill="#F38F1C"/>
<path d="M24.4362 14.7698C24.4362 14.7698 24.3736 14.7072 24.3379 14.6714C24.3021 14.6357 24.2753 14.5999 24.2485 14.5731C24.2843 14.6089 24.32 14.6446 24.3558 14.6893C24.3826 14.7161 24.4094 14.743 24.4362 14.7698Z" fill="#F38F1C"/>
<path d="M24.4362 14.7698C24.4362 14.7698 24.3736 14.7072 24.3379 14.6714C24.3021 14.6357 24.2753 14.5999 24.2485 14.5731C24.2843 14.6089 24.32 14.6446 24.3558 14.6893C24.3826 14.7161 24.4094 14.743 24.4362 14.7698Z" fill="#F38F1C"/>
<path d="M37.0878 22.7C36.1496 23.6746 34.8362 24.0143 33.639 23.7103C33.0046 23.5494 32.406 23.2096 31.9146 22.7C30.485 21.207 30.485 18.793 31.9146 17.2999C32.406 16.7814 33.0046 16.4506 33.639 16.2897C34.8362 15.9857 36.1496 16.3254 37.0878 17.2999C38.5174 18.793 38.5174 21.207 37.0878 22.7Z" fill="#F38F1C"/>
<path d="M29.5112 30.7287C28.0816 32.2217 25.7675 32.2217 24.3379 30.7287C23.2122 29.5574 22.9709 27.814 23.6142 26.3925C23.7929 26.0081 24.0252 25.6415 24.3379 25.3286L24.3558 25.3107C24.8651 24.7832 25.2046 24.1484 25.5977 23.5673C26.4465 22.3245 25.8479 16.8976 25.5977 16.4417C25.2761 15.8516 24.9008 15.2794 24.4273 14.7787C24.4005 14.7519 24.3737 14.7251 24.3469 14.6983C24.3111 14.6625 24.2754 14.6267 24.2397 14.582C23.9716 14.287 23.7661 13.9562 23.6053 13.6075C22.962 12.186 23.2032 10.4515 24.329 9.27135C25.7586 7.77828 28.0727 7.77828 29.5022 9.27135C30.5118 10.3263 30.8067 11.8462 30.3868 13.1784C30.217 13.7237 29.9311 14.2244 29.5201 14.6625H29.5112C29.5112 14.6625 29.5022 14.6893 29.4933 14.6893C28.984 15.2168 28.5909 15.8158 28.2514 16.4327C27.5544 17.6933 27.474 22.1368 28.2514 23.5583C28.573 24.1484 28.9483 24.7117 29.4218 25.2213C29.4486 25.2481 29.4754 25.2749 29.5022 25.3018C29.538 25.3375 29.5737 25.3733 29.6094 25.409C29.9758 25.8203 30.2438 26.2941 30.4046 26.8038C30.8335 28.1359 30.5386 29.6558 29.5201 30.7108L29.5112 30.7287Z" fill="#F38F1C"/>
<path d="M29.6005 25.418C29.6005 25.418 29.529 25.3465 29.4933 25.3107C29.4665 25.2839 29.4396 25.257 29.4128 25.2302C29.4486 25.257 29.4754 25.2928 29.5111 25.3286C29.5469 25.3643 29.5737 25.3912 29.6005 25.4269V25.418Z" fill="#F38F1C"/>
<path d="M14.322 30.7287C12.8925 32.2217 10.5784 32.2217 9.14883 30.7287C7.71927 29.2356 7.71927 26.8127 9.14883 25.3286C10.5784 23.8355 12.8925 23.8355 14.322 25.3286C15.7516 26.8216 15.7516 29.2445 14.322 30.7287Z" fill="#F38F1C"/>
</g>
<defs>
<clipPath id="clip0_28_205">
<rect width="157.6" height="40" fill="white" transform="translate(0.5)"/>
</clipPath>
</defs>
</svg>
