<svg width="90" height="100" viewBox="0 0 90 100" fill="none" xmlns="http://www.w3.org/2000/svg">
<g clip-path="url(#clip0_11_69)">
<path d="M85.4829 35.751C85.1137 34.9817 84.1914 34.6573 83.4221 35.0249C82.6528 35.3942 82.3283 36.3164 82.696 37.0858C85.4057 42.74 86.7806 48.8112 86.7806 55.1281C86.7806 66.2882 82.4349 76.7808 74.5438 84.672C66.6527 92.5631 56.16 96.9087 45 96.9087C33.84 96.9087 23.3473 92.5631 15.4562 84.672C7.56509 76.7808 3.21941 66.2897 3.21941 55.1297C3.21941 43.9697 7.56509 33.477 15.4562 25.5859C23.3473 17.6948 33.84 13.3491 45 13.3491C45.7477 13.3491 46.5109 13.3692 47.2709 13.4109C48.1237 13.4572 48.8498 12.8022 48.8961 11.951C48.9425 11.0998 48.2875 10.3722 47.4362 10.3258C46.6221 10.2826 45.8033 10.2609 45.0016 10.2609C33.0166 10.2609 21.7484 14.9279 13.2733 23.403C4.79825 31.8781 0.1297 43.1432 0.1297 55.1297C0.1297 67.1162 4.79671 78.3828 13.2718 86.8579C21.7469 95.333 33.015 100 45 100C56.985 100 68.2532 95.333 76.7282 86.8579C85.2033 78.3828 89.8703 67.1147 89.8703 55.1297C89.8703 48.3462 88.3934 41.8269 85.4829 35.7526V35.751Z" fill="#FE900F"/>
<path d="M48.238 23.6085C48.2828 22.7573 47.6278 22.0296 46.7766 21.9848C46.1787 21.9539 45.5808 21.937 45 21.937C36.1341 21.937 27.7996 25.3897 21.5305 31.6587C15.2615 37.9277 11.8088 46.2622 11.8088 55.1282C11.8088 63.9941 15.2615 72.3286 21.5305 78.5976C27.7996 84.8666 36.1341 88.3194 45 88.3194C53.8659 88.3194 62.2004 84.8666 68.4694 78.5976C74.7384 72.3286 78.1912 63.9941 78.1912 55.1282C78.1912 50.0641 77.0804 45.204 74.8898 40.6822C74.5175 39.9144 73.5952 39.5946 72.8259 39.9654C72.0581 40.3377 71.7368 41.2615 72.1091 42.0293C74.0942 46.1278 75.1015 50.5353 75.1015 55.1282C75.1015 71.7261 61.5979 85.2297 45 85.2297C28.4021 85.2297 14.8985 71.7261 14.8985 55.1282C14.8985 38.5302 28.4021 25.0267 45 25.0267C45.5268 25.0267 46.0706 25.0406 46.6144 25.0699C47.4702 25.1194 48.1932 24.4597 48.238 23.6085Z" fill="#FE900F"/>
<path d="M45 40.9634C45.2472 40.9634 45.5036 40.9695 45.7601 40.9835C46.6128 41.0313 47.3389 40.3732 47.3837 39.522C47.4285 38.6708 46.7735 37.9432 45.9223 37.8984C45.6118 37.8814 45.3013 37.8737 45 37.8737C35.4853 37.8737 27.744 45.6149 27.744 55.1297C27.744 64.6444 35.4853 72.3857 45 72.3857C54.5148 72.3857 62.256 64.6444 62.256 55.1297C62.256 52.4973 61.6783 49.9699 60.5397 47.6186C60.1674 46.8508 59.2436 46.531 58.4758 46.9018C57.708 47.2741 57.3867 48.1979 57.759 48.9657C58.6936 50.8937 59.1663 52.9684 59.1663 55.1297C59.1663 62.9405 52.8108 69.296 45 69.296C37.1892 69.296 30.8337 62.9405 30.8337 55.1297C30.8337 47.3189 37.1892 40.9634 45 40.9634Z" fill="#FE900F"/>
<path d="M59.1123 30.4336L43.3223 54.1194C42.8496 54.8284 43.0411 55.7878 43.7502 56.2621C44.0144 56.4382 44.311 56.5216 44.6061 56.5216C45.1051 56.5216 45.5948 56.2806 45.8929 55.8341L61.5346 32.3724L71.8063 32.5702C71.8156 32.5702 71.8264 32.5702 71.8357 32.5702C72.2219 32.5702 72.5957 32.425 72.8815 32.1623L88.0304 18.2416C88.4506 17.8554 88.6236 17.2684 88.4799 16.7169C88.3363 16.1638 87.9006 15.7359 87.346 15.603L71.7214 11.846L63.4564 0.628759C63.115 0.163758 62.5418 -0.07106 61.9718 0.0185416C61.4017 0.108143 60.929 0.508261 60.7467 1.05668L53.9911 21.3236C53.8443 21.7655 53.903 22.249 54.1533 22.6414L59.1123 30.4336ZM62.7365 4.86012L69.5678 14.1308C69.7841 14.4243 70.0962 14.6313 70.4499 14.7163L83.8037 17.928L71.2455 29.4681L62.0475 29.292L57.1549 21.6033L62.7365 4.86012Z" fill="#FE900F"/>
</g>
<defs>
<clipPath id="clip0_11_69">
<rect width="89.7406" height="100" fill="white" transform="translate(0.1297)"/>
</clipPath>
</defs>
</svg>
