<svg width="115" height="100" viewBox="0 0 115 100" fill="none" xmlns="http://www.w3.org/2000/svg">
<g clip-path="url(#clip0_76_200)">
<path d="M109.092 22.8039C105.945 22.8039 103.383 25.3655 103.383 28.513C103.383 29.5784 103.677 30.577 104.187 31.4315L84.942 50.7436C84.1452 50.32 83.2367 50.0802 82.274 50.0802C80.9851 50.0802 79.7954 50.5093 78.8381 51.2321L74.6703 48.474C73.8393 47.9242 72.7216 48.1532 72.1718 48.9824C71.622 49.8134 71.8509 50.9311 72.6802 51.4809L76.7903 54.1994C76.6443 54.7041 76.5631 55.2359 76.5631 55.7875C76.5631 58.935 79.1248 61.4966 82.2722 61.4966C85.4197 61.4966 87.9813 58.935 87.9813 55.7875C87.9813 54.915 87.7848 54.0876 87.4333 53.3485L106.92 33.793C107.589 34.0688 108.323 34.2221 109.089 34.2221C112.236 34.2221 114.798 31.6605 114.798 28.513C114.798 25.3655 112.236 22.8039 109.089 22.8039H109.092ZM82.274 57.8912C81.1131 57.8912 80.1703 56.9466 80.1703 55.7875C80.1703 54.6284 81.1149 53.6838 82.274 53.6838C83.4332 53.6838 84.3778 54.6284 84.3778 55.7875C84.3778 56.9466 83.4332 57.8912 82.274 57.8912ZM109.092 30.6167C107.932 30.6167 106.989 29.6721 106.989 28.513C106.989 27.3539 107.933 26.4093 109.092 26.4093C110.252 26.4093 111.196 27.3539 111.196 28.513C111.196 29.6721 110.252 30.6167 109.092 30.6167Z" fill="#FE900F"/>
<path d="M65.3001 44.6199C65.8715 43.8051 65.6732 42.6802 64.8566 42.1087L52.8796 33.7227C53.3736 32.6176 53.6512 31.3936 53.6512 30.1083C53.6512 25.2032 49.66 21.2121 44.7549 21.2121C39.8499 21.2121 35.8587 25.2032 35.8587 30.1083C35.8587 30.9123 35.9669 31.6893 36.1688 32.4302L24.2783 39.3416C23.4184 39.8428 23.1246 40.946 23.6257 41.8059C23.961 42.381 24.5649 42.7036 25.1869 42.7036C25.4951 42.7036 25.8052 42.6243 26.0918 42.4585L37.8056 35.6498C39.437 37.6922 41.9464 39.0045 44.7567 39.0045C47.0768 39.0045 49.1913 38.1104 50.7777 36.6502L62.7925 45.0633C63.108 45.2833 63.4686 45.3896 63.8255 45.3896C64.3933 45.3896 64.9522 45.121 65.3037 44.6199H65.3001ZM44.7549 35.3992C41.8382 35.3992 39.4641 33.0251 39.4641 30.1083C39.4641 27.1916 41.8382 24.8175 44.7549 24.8175C47.6717 24.8175 50.0458 27.1916 50.0458 30.1083C50.0458 31.0259 49.8097 31.8912 49.3968 32.6447C49.204 32.7673 49.0291 32.9295 48.8903 33.1296C48.7623 33.3117 48.6758 33.51 48.6235 33.7137C47.6573 34.7502 46.2818 35.3992 44.7549 35.3992Z" fill="#FE900F"/>
<path d="M13.7615 45.5555L9.76131 47.8989C8.80229 47.1688 7.60531 46.7344 6.30918 46.7344C3.1617 46.7344 0.600098 49.296 0.600098 52.4435C0.600098 55.591 3.1617 58.1526 6.30918 58.1526C9.45666 58.1526 12.0183 55.591 12.0183 52.4435C12.0183 51.9027 11.9408 51.3799 11.8001 50.8824L15.584 48.6651C16.4438 48.1621 16.7305 47.0571 16.2275 46.199C15.7246 45.3391 14.6195 45.0507 13.7615 45.5555ZM6.30918 54.5472C5.14826 54.5472 4.20546 53.6026 4.20546 52.4435C4.20546 51.2844 5.15006 50.3398 6.30918 50.3398C7.4683 50.3398 8.41291 51.2844 8.41291 52.4435C8.41291 53.6026 7.4683 54.5472 6.30918 54.5472Z" fill="#FE900F"/>
<path d="M69.1109 57.2729C68.8982 56.8439 68.5251 56.5176 68.0726 56.3644C67.6201 56.2111 67.1244 56.2436 66.6953 56.4563L66.6376 56.4851L65.5615 54.3111C72.2548 48.6597 76.5145 40.2106 76.5145 30.7843C76.5145 13.8103 62.7024 0 45.7266 0C28.7508 0 14.9404 13.8103 14.9404 30.7861C14.9404 47.762 28.7508 61.5741 45.7284 61.5741C48.1908 61.5741 50.5848 61.2821 52.8814 60.7341L53.9017 62.7963L53.671 62.9117C52.7787 63.3533 52.4145 64.435 52.8562 65.3273L67.5318 94.9579C69.1127 98.1505 72.3323 100.002 75.6745 100.002C77.0247 100.002 78.3965 99.699 79.6854 99.0608C84.1669 96.8417 86.0074 91.3886 83.7883 86.9053L69.1127 57.2747L69.1109 57.2729ZM57.0672 60.8855L56.6724 60.0869L62.8052 57.0494L63.1999 57.848L57.0672 60.8855ZM18.5458 30.7861C18.5458 15.7987 30.7391 3.60536 45.7284 3.60536C60.7177 3.60536 72.9092 15.7987 72.9092 30.7861C72.9092 45.7736 60.7159 57.9687 45.7284 57.9687C30.7409 57.9687 18.5458 45.7754 18.5458 30.7861ZM78.0847 95.8268C75.3842 97.1644 72.098 96.0557 70.7604 93.3553L56.8852 65.3399L66.6809 60.4889L80.5561 88.5043C81.8937 91.2047 80.7851 94.491 78.0847 95.8286V95.8268Z" fill="#FE900F"/>
</g>
<defs>
<clipPath id="clip0_76_200">
<rect width="114.202" height="100" fill="white" transform="translate(0.600098)"/>
</clipPath>
</defs>
</svg>
