<svg width="90" height="100" viewBox="0 0 90 100" fill="none" xmlns="http://www.w3.org/2000/svg">
<g clip-path="url(#clip0_28_171)">
<path d="M69.0598 51.9343C69.8914 49.4977 70.3322 46.9888 70.3873 44.4816C70.389 44.454 70.3907 44.4248 70.3907 44.3955C70.5095 37.763 68.0508 31.4925 63.4658 26.7365C59.9069 23.0455 55.3908 20.6021 50.4493 19.6371C45.3202 18.6101 39.8278 19.1943 34.7814 21.6653C34.7005 21.7049 34.6247 21.7497 34.5541 21.798C26.6168 25.794 21.0866 33.9462 20.9023 43.4253C20.8834 44.3765 21.6392 45.164 22.5896 45.1812C23.5435 45.2036 24.3269 44.4437 24.3441 43.4925C24.5697 31.9026 34.0789 22.6182 45.625 22.6182C45.7541 22.6182 45.885 22.6182 46.0158 22.6216C47.4673 22.6475 48.8929 22.8164 50.2789 23.1214C56.3567 24.4913 61.7923 28.4993 64.7451 34.5183C67.2606 39.6482 67.6359 45.4362 65.8005 50.8194C63.9651 56.2025 60.1325 60.5535 55.0103 63.0728C54.1563 63.4915 53.805 64.5254 54.2234 65.3783C54.523 65.9883 55.1342 66.3416 55.7696 66.3416C56.0244 66.3416 56.2826 66.2847 56.5271 66.1641C62.4758 63.2399 66.9265 58.1859 69.0598 51.9308V51.9343Z" fill="#FE900F"/>
<path d="M87.6547 30.4189C87.4154 29.1386 86.5752 28.3856 85.289 28.2977C83.5449 28.1805 81.7698 28.0427 80.0532 27.91C78.922 27.8221 77.7925 27.7342 76.651 27.6515C75.5387 25.9094 74.349 24.107 73.025 22.1529C73.2471 21.5412 73.4503 20.926 73.6483 20.3298C73.7171 20.1213 73.786 19.9128 73.8566 19.7043C74.3662 18.1828 74.8742 16.6612 75.3803 15.1449L75.9864 13.3304C76.2309 12.5963 75.9571 11.7881 75.3167 11.3556L65.0154 4.39924C64.3749 3.96673 63.5226 4.01498 62.9355 4.51642C62.3157 5.04715 61.6958 5.57444 61.0777 6.1C59.368 7.55779 57.5998 9.06211 55.878 10.5613C53.9635 10.115 51.9008 9.69451 49.4042 9.24132C48.731 7.8559 48.0406 6.45842 47.3691 5.10746C46.7717 3.90125 46.1536 2.65196 45.5544 1.42335C45.0069 0.301575 44.0375 -0.182632 42.8237 0.060333C38.9653 0.835754 35.3788 1.53191 31.8544 2.19016C30.5855 2.42795 29.8382 3.27402 29.7504 4.57328C29.6437 6.14997 29.5197 7.75595 29.3992 9.30852C29.301 10.5802 29.1995 11.8933 29.1065 13.2029C27.2522 14.3867 25.4047 15.6101 23.6124 16.8422C22.2505 16.3735 20.8713 15.9082 19.5353 15.4585C18.1802 15.0018 16.7805 14.5297 15.4099 14.0575C14.172 13.6302 13.0976 13.9955 12.3883 15.0897C11.5721 16.3459 10.713 17.6141 9.88138 18.841C9.56458 19.308 9.24778 19.775 8.9327 20.242L5.85937 24.8014C5.44442 25.4166 5.47025 26.2299 5.92307 26.8175C5.97128 26.8796 6.01432 26.9381 6.05737 26.995C6.16412 27.138 6.27603 27.2862 6.40688 27.4396C6.83216 27.9376 7.25743 28.4373 7.6827 28.9353C9.10315 30.6016 10.5701 32.323 12.0387 34.0048C11.5773 36.1002 11.1348 38.2903 10.6872 40.6941C10.5133 41.6298 11.1297 42.5293 12.0646 42.7033C12.9995 42.8773 13.8982 42.2605 14.0721 41.3248C14.5198 38.9141 14.9623 36.7257 15.4254 34.6355C15.5752 33.9531 15.6699 32.9261 14.7557 31.8802C13.2595 30.1673 11.7564 28.4046 10.3015 26.6986C10.0088 26.3557 9.71782 26.0145 9.42684 25.6716L11.7874 22.1702C12.1007 21.7049 12.4158 21.2414 12.7309 20.7779C13.4471 19.7216 14.1858 18.6325 14.9089 17.5314C16.09 17.9364 17.2798 18.3379 18.4368 18.7273C19.8383 19.1994 21.288 19.6871 22.7067 20.1782C23.6657 20.509 24.5611 20.3764 25.4409 19.7698C27.2918 18.4947 29.2046 17.2282 31.1261 16.0064C31.9973 15.4516 32.4553 14.6951 32.5259 13.6922C32.6223 12.3223 32.7291 10.9283 32.8341 9.57905C32.9391 8.22982 33.0459 6.84096 33.1423 5.46071C36.2466 4.87828 39.4112 4.26311 42.7789 3.59108C43.2817 4.61636 43.7913 5.64509 44.2855 6.64452C44.9897 8.06612 45.718 9.5377 46.4204 10.9869C47.0024 12.1896 47.9786 12.4929 48.6604 12.6153C51.1897 13.0736 53.2593 13.4958 55.1704 13.9421C56.2878 14.2023 57.2055 13.9783 58.0595 13.2356C59.7916 11.7278 61.5788 10.2046 63.3074 8.73126C63.5949 8.48657 63.8842 8.24016 64.1717 7.99375L72.3036 13.4855L72.1125 14.0575C71.6063 15.5739 71.0984 17.0937 70.5904 18.6136C70.5198 18.8255 70.4492 19.0375 70.3787 19.2494C70.1445 19.9576 69.9224 20.6262 69.6727 21.2896C69.1734 22.6165 69.8225 23.5711 70.0653 23.9312C71.4789 26.0128 72.7357 27.9186 73.9048 29.7572C74.4231 30.5706 75.1427 30.9996 76.1052 31.0703C77.3328 31.1599 78.5587 31.2547 79.7863 31.3494C81.2946 31.4666 82.8476 31.5855 84.3903 31.6941C84.943 34.632 85.5852 37.9974 86.2739 41.3403C85.1668 41.8814 84.0528 42.4345 82.9716 42.9704C81.6252 43.639 80.2323 44.33 78.86 44.9951C77.6737 45.5706 77.3741 46.5115 77.2536 47.1697C76.9162 48.9946 76.4582 51.3932 75.9107 53.7677C75.6576 54.8619 75.8762 55.7597 76.5976 56.5937C78.1265 58.3599 79.6727 60.1727 81.1689 61.9269C81.4065 62.2043 81.6441 62.4834 81.8817 62.7609L76.3927 70.9028C76.057 70.7942 75.723 70.6874 75.3941 70.5823C73.6414 70.0205 71.9868 69.4915 70.3666 68.8333C70.2289 68.7781 70.098 68.723 69.974 68.6713C68.5519 68.082 67.0815 67.4737 65.1549 68.8746C65.1187 68.9022 63.6828 69.9482 62.2589 70.9889C61.5461 71.5093 60.8367 72.028 60.3064 72.4174C60.0395 72.6139 59.8174 72.7776 59.6607 72.8913L59.4731 73.0309C58.5623 73.715 58.5691 74.7885 59.0375 75.4519C59.3732 75.9275 59.8966 76.1791 60.4355 76.1791C60.7799 76.1791 61.1311 76.0757 61.4427 75.8603C61.491 75.8276 61.5357 75.7931 61.5788 75.7552C62.264 75.2434 66.961 71.8178 67.1779 71.661C67.3139 71.5628 67.4861 71.4576 67.5498 71.4628C67.7495 71.4766 68.1903 71.6592 68.6569 71.8522C68.7895 71.9074 68.9272 71.9642 69.0718 72.0228C70.8125 72.7293 72.6083 73.3049 74.3456 73.8597C75.0687 74.0906 75.8177 74.3301 76.546 74.5748C77.2794 74.8212 78.0869 74.5473 78.5208 73.9045L85.4698 63.5966C85.902 62.9539 85.8538 62.1026 85.351 61.5133C84.8293 60.9016 84.3094 60.2916 83.7894 59.6833C82.319 57.9584 80.7987 56.175 79.2905 54.4328C79.8259 52.1066 80.2719 49.782 80.6076 47.9727C81.9144 47.3369 83.2298 46.6855 84.5039 46.0531C85.7195 45.45 86.9764 44.8262 88.2143 44.2231C89.85 43.427 89.9567 42.1174 89.757 41.1611C88.9822 37.4287 88.2608 33.6361 87.6582 30.4172L87.6547 30.4189Z" fill="#FE900F"/>
<path d="M49.9672 67.2359C48.5003 66.1089 46.8509 65.1646 45.0637 64.4289C44.3543 64.1359 43.6312 63.8499 42.9063 63.5707V52.0773C42.9614 52.1066 43.0148 52.1359 43.0699 52.1686C44.4404 52.9647 45.7541 54.1313 46.9714 55.6339C47.2796 56.013 47.7324 56.2439 48.2197 56.2697C48.7035 56.2938 49.1821 56.1129 49.5265 55.7666L53.8687 51.4207C54.4868 50.8021 54.5437 49.8182 54.0013 49.1324C52.3157 47.0008 50.1618 45.2553 47.5981 43.9457C46.126 43.1961 44.5541 42.6568 42.9063 42.3311V37.5717C42.9063 36.6205 42.135 35.8486 41.1846 35.8486H36.708C35.7576 35.8486 34.9863 36.6205 34.9863 37.5717V42.3259C33.5176 42.6051 32.1161 43.0445 30.8058 43.6407C28.2886 44.7866 26.2707 46.4477 24.8055 48.5793C23.3214 50.7418 22.5707 53.3662 22.5707 56.3783C22.5707 59.1009 23.0614 61.3961 24.0307 63.202C24.9846 64.982 26.2432 66.4622 27.7738 67.6064C29.2201 68.6868 30.8454 69.5932 32.6051 70.3014C33.3988 70.6202 34.196 70.9286 34.9863 71.2198V84.4881C33.9153 84.2383 32.9322 83.842 32.0507 83.2957C30.3565 82.2463 28.8344 80.7816 27.5259 78.943C27.2332 78.5312 26.7752 78.2693 26.2742 78.2245C25.7732 78.1814 25.2756 78.3589 24.9157 78.7121L20.5735 82.989C19.9467 83.6059 19.8848 84.595 20.4306 85.2842C22.6051 88.0413 25.1068 90.1815 27.8616 91.6444C29.976 92.7679 32.3692 93.4727 34.988 93.7484V98.2717C34.988 99.2229 35.7593 99.9948 36.7097 99.9948H41.1863C42.1367 99.9948 42.9081 99.2229 42.9081 98.2717V93.3693C45.7972 92.7662 48.2748 91.6237 50.2892 89.9592C53.5416 87.2728 55.1893 83.5352 55.1893 78.8517C55.1893 76.1033 54.7038 73.7511 53.7465 71.8591C52.7961 69.9843 51.5254 68.4283 49.969 67.2324L49.9672 67.2359ZM38.5331 61.9458C38.4986 61.932 38.4642 61.9182 38.4298 61.9044V51.0503C38.4866 51.0503 38.5434 51.0485 38.6002 51.0468C38.7035 51.0451 38.8086 51.0434 38.9119 51.0434C38.9738 51.0434 39.0341 51.0468 39.0961 51.0485C39.2028 51.0503 39.3113 51.0537 39.4181 51.0606C39.4336 51.0606 39.449 51.0641 39.4645 51.0641V62.3008C39.4559 62.2973 39.4456 62.2939 39.437 62.2904C39.1322 62.1784 38.8327 62.0612 38.5331 61.9441V61.9458ZM33.0252 58.6839C32.4604 58.0291 32.1867 57.1434 32.1867 55.9733C32.1867 54.3346 32.6826 53.1956 33.7432 52.3892C34.1047 52.1152 34.5214 51.8843 34.9863 51.693V60.295C34.196 59.8211 33.54 59.2818 33.0252 58.6821V58.6839ZM38.4298 39.2966H39.4628V41.9641C39.1185 41.9572 38.7724 41.9589 38.4298 41.9658V39.2949V39.2966ZM44.4886 76.086C45.0706 76.8649 45.3667 77.9557 45.3667 79.3307C45.3667 81.0573 44.7779 82.3015 43.5141 83.2475C43.3213 83.3905 43.1198 83.5249 42.9063 83.649V74.5662C43.5348 75.0142 44.0651 75.5208 44.4886 76.0877V76.086ZM39.437 84.7208C39.2889 84.738 39.1374 84.7518 38.9842 84.7638C38.948 84.7673 38.9119 84.769 38.8757 84.7707C38.7552 84.7794 38.6329 84.7862 38.509 84.7914C38.4831 84.7914 38.4573 84.7931 38.4298 84.7949V72.4347C38.6312 72.507 38.8309 72.5811 39.0272 72.6569C39.0806 72.6776 39.1322 72.6983 39.1839 72.719C39.2786 72.7552 39.3698 72.7931 39.4628 72.831V84.719C39.4542 84.719 39.4456 84.7208 39.437 84.7225V84.7208ZM39.4628 96.5537H38.4298V93.8776C38.4539 93.8776 38.478 93.8759 38.5021 93.8742C38.7121 93.8673 38.9205 93.8569 39.1271 93.8466C39.239 93.8414 39.3526 93.838 39.4628 93.8311V96.5537ZM48.0957 87.3055C46.2431 88.8357 43.8378 89.8161 40.9453 90.2194C39.9001 90.3658 38.7707 90.4416 37.5896 90.4416C37.5121 90.4416 37.4363 90.4416 37.3623 90.4416C37.1522 90.4399 36.9577 90.4348 36.7683 90.4279C34.0152 90.3297 31.56 89.7179 29.4749 88.6082C27.5448 87.5829 25.7491 86.1475 24.122 84.3348L25.9557 82.5289C27.2384 84.0229 28.6743 85.2636 30.2377 86.232C32.0834 87.3744 34.2184 88.0396 36.5772 88.2084C36.9869 88.2394 37.4191 88.255 37.8616 88.255C38.0303 88.255 38.1956 88.2532 38.3609 88.2481C38.7827 88.2377 39.1942 88.2102 39.5954 88.1705C39.6643 88.1636 39.7349 88.1585 39.8055 88.1498C40.4287 88.0809 41.0245 87.9775 41.5909 87.8397C41.5944 87.8397 41.5961 87.838 41.5995 87.838C43.1043 87.4726 44.4421 86.8575 45.5733 86.0114C47.7204 84.4071 48.8102 82.1602 48.8102 79.3342C48.8102 77.1975 48.2834 75.4105 47.2452 74.0217C46.281 72.7345 44.9879 71.6661 43.4005 70.8425C42.9149 70.5909 42.4053 70.3462 41.8888 70.117C40.8815 69.6655 39.8003 69.2468 38.6777 68.8729C38.2163 68.7178 37.7462 68.5575 37.2814 68.3921C36.1639 67.9975 35.0224 67.565 33.8895 67.1084C32.4054 66.5104 31.0417 65.7505 29.8331 64.8476C28.7087 64.0084 27.779 62.909 27.0645 61.5753C26.3672 60.2761 26.0142 58.5288 26.0142 56.3817C26.0142 54.0468 26.5479 52.1341 27.6447 50.5333C28.7638 48.9032 30.2635 47.6746 32.2297 46.7803C33.6571 46.1307 35.2273 45.7085 36.9043 45.5224C37.8771 45.4104 38.9394 45.3776 39.9707 45.4328C40.3151 45.4517 40.656 45.4793 40.99 45.5172C42.7858 45.724 44.4835 46.2289 46.0348 47.0181C47.6687 47.8521 49.0943 48.8929 50.2927 50.1249L48.3832 52.0359C47.2538 50.8711 46.052 49.9164 44.7968 49.1858C43.7741 48.593 42.6894 48.1605 41.5754 47.9021C40.7059 47.6987 39.7986 47.5953 38.8774 47.5953C38.6536 47.5953 38.4332 47.6005 38.2163 47.6074C37.6068 47.6281 37.0179 47.6798 36.4618 47.7608C34.5627 48.0382 32.9494 48.6706 31.6667 49.6424C29.728 51.1123 28.7466 53.2421 28.7466 55.9733C28.7466 57.9756 29.3096 59.6454 30.4184 60.9326C31.405 62.0802 32.7067 63.0572 34.2889 63.8327C34.852 64.1101 35.4374 64.3806 36.0279 64.6374C36.9697 65.044 37.9563 65.4283 38.9515 65.7781C39.5024 65.9728 40.0517 66.1727 40.5871 66.3743C41.6529 66.7706 42.7187 67.1876 43.7552 67.615C45.2617 68.2353 46.6477 69.028 47.8736 69.9688C49.0168 70.8476 49.9604 72.009 50.6766 73.4203C51.386 74.8247 51.7475 76.6529 51.7475 78.8551C51.7475 82.5134 50.5544 85.2773 48.0991 87.3055H48.0957Z" fill="#FE900F"/>
<path d="M19.8589 78.9327C15.9161 73.6236 13.1647 67.3806 11.9474 61.0738L17.5001 66.009C18.2112 66.6414 19.2993 66.5759 19.9312 65.8642C20.5631 65.1526 20.4977 64.0635 19.7866 63.4311L10.9161 55.546C10.5752 55.2427 10.1276 55.0859 9.67129 55.1152C9.21502 55.1427 8.78975 55.3495 8.485 55.6907L0.606252 64.5719C-0.0256323 65.2835 0.0397943 66.3726 0.750879 67.005C1.07801 67.2962 1.48607 67.4392 1.89412 67.4392C2.36933 67.4392 2.84281 67.2445 3.182 66.8602L8.42129 60.955C9.6489 68.0837 12.6189 74.9608 17.0955 80.9884C17.433 81.4433 17.9529 81.6845 18.4781 81.6845C18.8345 81.6845 19.196 81.5743 19.5042 81.3451C20.267 80.7782 20.4271 79.6977 19.8589 78.9344V78.9327Z" fill="#FE900F"/>
</g>
<defs>
<clipPath id="clip0_28_171">
<rect width="89.6552" height="100" fill="white" transform="translate(0.172363)"/>
</clipPath>
</defs>
</svg>
