<svg width="40" height="81" viewBox="0 0 40 81" fill="none" xmlns="http://www.w3.org/2000/svg">
<g filter="url(#filter0_d_2346_738)">
<path d="M0 4C0 1.79086 1.79086 0 4 0H36C38.2091 0 40 1.79086 40 4V77C40 79.2091 38.2091 81 36 81H4C1.79086 81 0 79.2091 0 77V4Z" fill="white" shape-rendering="crispEdges"/>
<path fill-rule="evenodd" clip-rule="evenodd" d="M22.4766 11H18.4766V18H11V22H18.4766V29.69H22.4766V22H29.69V18H22.4766V11Z" fill="#666666"/>
<path d="M11 64V60H29.6949V64H11Z" fill="#666666"/>
<rect x="6" y="41" width="28.5714" height="1" fill="#E6E6E6"/>
</g>
<defs>
<filter id="filter0_d_2346_738" x="-20" y="-16" width="80" height="121" filterUnits="userSpaceOnUse" color-interpolation-filters="sRGB">
<feFlood flood-opacity="0" result="BackgroundImageFix"/>
<feColorMatrix in="SourceAlpha" type="matrix" values="0 0 0 0 0 0 0 0 0 0 0 0 0 0 0 0 0 0 127 0" result="hardAlpha"/>
<feOffset dy="4"/>
<feGaussianBlur stdDeviation="10"/>
<feComposite in2="hardAlpha" operator="out"/>
<feColorMatrix type="matrix" values="0 0 0 0 0 0 0 0 0 0 0 0 0 0 0 0 0 0 0.1 0"/>
<feBlend mode="normal" in2="BackgroundImageFix" result="effect1_dropShadow_2346_738"/>
<feBlend mode="normal" in="SourceGraphic" in2="effect1_dropShadow_2346_738" result="shape"/>
</filter>
</defs>
</svg>
