<svg xmlns="http://www.w3.org/2000/svg" width="68" height="71" fill="none" viewBox="0 0 68 71">
  <g clip-path="url(#a)">
    <path fill="#F38F1C" d="M38.529 11.585a6.45 6.45 0 0 1-9.315 0c-2.574-2.65-2.574-6.951 0-9.585 2.574-2.635 6.74-2.65 9.315 0 2.573 2.65 2.573 6.95 0 9.585Zm0 57.431a6.45 6.45 0 0 1-9.315 0c-2.574-2.65-2.574-6.95 0-9.585 2.574-2.634 6.74-2.65 9.315 0 2.573 2.65 2.573 6.951 0 9.585Zm.031-28.723a6.45 6.45 0 0 1-9.314 0c-1.383-1.413-2.01-3.317-1.914-5.174H27.3a6.921 6.921 0 0 0-1.93-5.126 6.581 6.581 0 0 0-2.462-1.602 6.539 6.539 0 0 0-2.333-.381h-.579a6.462 6.462 0 0 0-4.906 1.983 6.863 6.863 0 0 0-1.915 5.079v.158a6.836 6.836 0 0 1-1.93 5.03 6.45 6.45 0 0 1-9.315 0c-2.573-2.65-2.573-6.934 0-9.584a6.462 6.462 0 0 1 4.907-1.984h.064c1.738.048 3.491-.619 4.826-1.984 1.352-1.38 1.98-3.221 1.93-5.03a6.857 6.857 0 0 1 1.915-5.253 6.45 6.45 0 0 1 9.315 0 6.898 6.898 0 0 1 1.93 5.126v.047a6.92 6.92 0 0 0 .338 2.492 6.508 6.508 0 0 0 1.593 2.634c1.335 1.365 3.072 2.032 4.81 1.984h.16a6.475 6.475 0 0 1 4.859 1.984c2.574 2.65 2.574 6.95 0 9.585l-.016.016Zm13.836 4.824-.194-.19-.144-.143c.064.047.112.11.177.174.064.064.112.111.16.175v-.016Zm-9.299-18.901-.177-.174c-.064-.064-.112-.127-.16-.175.064.064.128.127.192.206l.145.143Z"/>
    <path fill="#F38F1C" d="m52.396 45.117-.194-.19-.144-.143c.064.047.112.11.177.174.064.064.112.111.16.175v-.016Zm-9.299-18.901-.177-.174c-.064-.064-.112-.127-.16-.175.064.064.128.127.192.206l.145.143Z"/>
    <path fill="#F38F1C" d="m43.097 26.216-.177-.174c-.064-.064-.112-.127-.16-.175.064.064.128.127.192.206l.145.143Zm22.779 14.077c-1.689 1.73-4.053 2.332-6.21 1.793a6.57 6.57 0 0 1-3.104-1.793c-2.574-2.65-2.574-6.935 0-9.585a6.441 6.441 0 0 1 3.105-1.794c2.156-.54 4.52.064 6.21 1.793 2.573 2.65 2.573 6.935 0 9.586Z"/>
    <path fill="#F38F1C" d="M52.235 54.543a6.45 6.45 0 0 1-9.315 0c-2.027-2.078-2.461-5.173-1.303-7.696.322-.683.74-1.333 1.303-1.889l.032-.032c.917-.936 1.529-2.063 2.236-3.094 1.529-2.206.451-11.839 0-12.648-.579-1.047-1.254-2.063-2.107-2.952l-.145-.143a2.6 2.6 0 0 1-.193-.206 6.748 6.748 0 0 1-1.142-1.73c-1.158-2.523-.724-5.602 1.303-7.696a6.45 6.45 0 0 1 9.315 0c1.817 1.872 2.348 4.57 1.592 6.935a6.724 6.724 0 0 1-1.56 2.634h-.016s-.016.047-.032.047c-.918.937-1.625 2-2.237 3.095-1.254 2.238-1.4 10.125 0 12.648.58 1.047 1.255 2.047 2.108 2.952l.145.143.193.19a6.763 6.763 0 0 1 1.431 2.476c.773 2.364.242 5.062-1.592 6.935l-.016.031Z"/>
    <path fill="#F38F1C" d="m52.396 45.117-.194-.19-.144-.143c.064.047.112.11.177.174.064.064.112.111.16.175v-.016Zm-27.509 9.426a6.45 6.45 0 0 1-9.315 0c-2.574-2.65-2.574-6.95 0-9.585a6.45 6.45 0 0 1 9.315 0c2.574 2.65 2.574 6.951 0 9.585Z"/>
  </g>
  <defs>
    <clipPath id="a">
      <path fill="#fff" d="M0 0h68v71H0z"/>
    </clipPath>
  </defs>
</svg>
