<svg width="272" height="68" viewBox="0 0 272 68" fill="none" xmlns="http://www.w3.org/2000/svg">
<mask id="mask0_2103_9963" style="mask-type:luminance" maskUnits="userSpaceOnUse" x="0" y="0" width="272" height="68">
<path d="M271.619 0.346924H0.0078125V67.045H271.619V0.346924Z" fill="white"/>
</mask>
<g mask="url(#mask0_2103_9963)">
<path d="M94.6777 35.7735C96.1914 35.2022 97.3562 34.381 98.172 33.3085C98.9879 32.236 99.395 30.9516 99.395 29.4566C99.395 27.9616 98.9862 26.6715 98.172 25.5892C97.3562 24.5069 96.1914 23.6801 94.6777 23.1102C93.164 22.5389 91.3346 22.2539 89.1912 22.2539H79.6521V42.9172H83.1464V36.6298H89.1912C89.7296 36.6298 90.2463 36.6115 90.7448 36.5764L96.0053 42.9186H99.8137L94.0098 35.9995C94.2374 35.9293 94.4617 35.8563 94.6777 35.7749M89.0882 34.1213H83.1481V24.8228H89.0882C91.3247 24.8228 93.0195 25.2271 94.1726 26.0328C95.3258 26.84 95.9023 27.9812 95.9023 29.4566C95.9023 30.9319 95.3258 32.0788 94.1726 32.8958C93.0195 33.7128 91.3247 34.1213 89.0882 34.1213Z" fill="black"/>
<path d="M125.392 25.0137C124.228 24.0591 122.853 23.3208 121.27 22.8C119.685 22.2792 117.962 22.0181 116.099 22.0181C114.236 22.0181 112.477 22.2834 110.893 22.8154C109.31 23.3474 107.936 24.09 106.771 25.0446C105.606 25.9991 104.697 27.1165 104.046 28.3953C103.393 29.6741 103.067 31.0723 103.067 32.5869C103.067 34.1016 103.393 35.4997 104.046 36.7786C104.697 38.0588 105.606 39.1748 106.771 40.1293C107.936 41.0839 109.317 41.8265 110.912 42.3585C112.507 42.8905 114.237 43.1558 116.101 43.1558C117.965 43.1558 119.688 42.8947 121.272 42.3739C122.855 41.8531 124.229 41.1148 125.394 40.1602C126.559 39.2057 127.461 38.0897 128.102 36.8094C128.742 35.5306 129.063 34.1227 129.063 32.5883C129.063 31.054 128.742 29.6713 128.102 28.3813C127.461 27.0926 126.559 25.971 125.394 25.0165M124.851 35.744C124.372 36.7084 123.709 37.5492 122.858 38.2679C122.008 38.9867 121.006 39.5426 119.853 39.9356C118.699 40.3301 117.435 40.5266 116.061 40.5266C114.687 40.5266 113.457 40.3301 112.304 39.9356C111.151 39.5426 110.142 38.9867 109.282 38.2679C108.419 37.5492 107.75 36.7084 107.273 35.744C106.794 34.7796 106.557 33.7268 106.557 32.5855C106.557 31.4443 106.796 30.3957 107.273 29.4411C107.75 28.4866 108.419 27.6457 109.282 26.9172C110.142 26.19 111.151 25.6285 112.304 25.2341C113.457 24.841 114.708 24.6431 116.061 24.6431C117.413 24.6431 118.699 24.8396 119.853 25.2341C121.006 25.6285 122.008 26.1886 122.858 26.9172C123.709 27.6457 124.372 28.4866 124.851 29.4411C125.328 30.3957 125.567 31.4443 125.567 32.5855C125.567 33.7268 125.328 34.7796 124.851 35.744Z" fill="black"/>
<path d="M157.539 22.2539L147.471 36.7687L137.273 22.2539H134.408V42.9172H137.761V27.9433L146.602 40.4087H148.209L157.052 27.8493L157.085 42.9172H160.438L160.403 22.2539H157.539Z" fill="black"/>
<path d="M185.317 32.5561C184.961 32.4185 184.588 32.3076 184.197 32.2164C184.209 32.2107 184.222 32.2079 184.234 32.2023C185.236 31.7896 186.033 31.1986 186.628 30.4308C187.223 29.6629 187.519 28.7182 187.519 27.5966C187.519 25.943 186.761 24.6403 185.247 23.6857C183.733 22.7312 181.567 22.2539 178.749 22.2539H167.777V42.9172H179.448C182.545 42.9172 184.882 42.4301 186.453 41.4559C188.025 40.4817 188.813 39.1088 188.813 37.3373C188.813 36.1567 188.499 35.1671 187.869 34.3697C187.241 33.5724 186.39 32.9674 185.319 32.5547M178.433 24.6445C180.203 24.6445 181.578 24.9196 182.555 25.4713C183.534 26.023 184.023 26.8498 184.023 27.9518C184.023 29.0537 183.534 29.8805 182.555 30.4308C181.577 30.9825 180.203 31.2576 178.433 31.2576H171.27V24.6459H178.433V24.6445ZM183.745 39.6998C182.72 40.2515 181.241 40.5266 179.307 40.5266H171.27V33.6482H179.307C181.241 33.6482 182.72 33.9233 183.745 34.475C184.77 35.0267 185.282 35.9026 185.282 37.1028C185.282 38.303 184.769 39.1495 183.745 39.7012" fill="black"/>
<path d="M217.27 28.3799C216.629 27.0913 215.727 25.9697 214.562 25.0151C213.397 24.0606 212.023 23.3222 210.438 22.8014C208.853 22.2806 207.13 22.0195 205.267 22.0195C203.404 22.0195 201.645 22.2848 200.061 22.8169C198.476 23.3489 197.102 24.0915 195.937 25.046C194.773 26.0006 193.864 27.118 193.212 28.3968C192.559 29.6756 192.234 31.0738 192.234 32.5884C192.234 34.1031 192.559 35.5012 193.212 36.78C193.864 38.0603 194.773 39.1762 195.937 40.1308C197.102 41.0853 198.483 41.8279 200.078 42.36C201.673 42.892 203.403 43.1573 205.267 43.1573C207.131 43.1573 208.854 42.8962 210.438 42.3754C212.021 41.8546 213.395 41.1162 214.562 40.1617C215.727 39.2071 216.629 38.0911 217.27 36.8109C217.91 35.5321 218.231 34.1241 218.231 32.5898C218.231 31.0555 217.91 29.6728 217.27 28.3828M214.02 35.7441C213.542 36.7084 212.879 37.5493 212.028 38.268C211.177 38.9867 210.175 39.5426 209.022 39.9357C207.869 40.3301 206.605 40.5266 205.23 40.5266C203.856 40.5266 202.627 40.3301 201.474 39.9357C200.321 39.5426 199.312 38.9867 198.451 38.268C197.589 37.5493 196.919 36.7084 196.442 35.7441C195.964 34.7797 195.726 33.7269 195.726 32.5856C195.726 31.4443 195.966 30.3957 196.442 29.4412C196.919 28.4866 197.589 27.6458 198.451 26.9172C199.314 26.1901 200.321 25.6286 201.474 25.2341C202.627 24.8411 203.878 24.6432 205.23 24.6432C206.583 24.6432 207.869 24.8397 209.022 25.2341C210.175 25.6286 211.177 26.1887 212.028 26.9172C212.879 27.6458 213.542 28.4866 214.02 29.4412C214.497 30.3957 214.736 31.4443 214.736 32.5856C214.736 33.7269 214.497 34.7797 214.02 35.7441Z" fill="black"/>
<path d="M242.447 22.2539L231.371 42.9172H234.97L237.657 37.7514H250.662L253.349 42.9172H257.018L245.907 22.2539H242.447ZM238.885 35.3903L244.159 25.2509L249.432 35.3903H238.885Z" fill="#F38F1C"/>
<path d="M264.145 22.2539H260.651V42.9186H264.145V22.2539Z" fill="#F38F1C"/>
<path d="M42.4144 15.4148C40.0101 17.446 36.1121 17.446 33.7078 15.4148C31.3035 13.3836 31.3035 10.0904 33.7078 8.06054C36.1121 6.0293 40.0101 6.0293 42.4144 8.06054C44.8187 10.0918 44.8187 13.385 42.4144 15.4148Z" fill="#F38F1C"/>
<path d="M225.122 42.3165C224.211 43.0858 222.734 43.0858 221.824 42.3165C220.913 41.5473 220.913 40.2993 221.824 39.5301C222.734 38.7608 224.211 38.7608 225.122 39.5301C226.033 40.2993 226.033 41.5473 225.122 42.3165Z" fill="#F38F1C"/>
<path d="M42.4144 59.4605C40.0101 61.4917 36.1121 61.4917 33.7078 59.4605C31.3035 57.4292 31.3035 54.136 33.7078 52.1062C36.1121 50.075 40.0101 50.075 42.4144 52.1062C44.8187 54.1374 44.8187 57.4306 42.4144 59.4605Z" fill="#F38F1C"/>
<path d="M42.4494 37.4399C40.0434 39.4697 36.1454 39.4697 33.7427 37.4399C32.4534 36.3506 31.8569 34.8991 31.9499 33.4729C31.9383 33.4729 31.9266 33.4729 31.915 33.4743C31.9931 32.0621 31.3933 30.6275 30.1172 29.5494C29.4442 28.9823 28.6533 28.5724 27.8109 28.3211C27.1064 28.1119 26.3687 28.0123 25.6293 28.0277C25.5744 28.0277 25.5213 28.0291 25.4648 28.0319C25.4581 28.0319 25.0959 28.0333 25.0959 28.0333C23.4426 27.98 21.7694 28.4867 20.5066 29.5536C19.2372 30.6261 18.6407 32.0481 18.7121 33.4532C18.7138 33.4827 18.7171 33.5094 18.7171 33.5389C18.7188 33.5515 18.7188 33.5669 18.7188 33.5796C18.7753 34.9707 18.1754 36.3773 16.9193 37.4385C14.5166 39.4711 10.6186 39.4711 8.21262 37.4385C5.80998 35.4087 5.80998 32.1155 8.21262 30.0842C9.47542 29.0174 11.1503 28.5106 12.8036 28.564C12.8235 28.564 12.8434 28.5654 12.8617 28.5654C14.4867 28.5976 16.1267 28.0923 17.3679 27.0437C18.6241 25.9824 19.2239 24.5759 19.1657 23.1848H19.1724C19.0544 21.7403 19.6526 20.2621 20.9602 19.1574C23.3629 17.1276 27.2609 17.1276 29.6652 19.1574C30.943 20.2369 31.5412 21.6687 31.4631 23.0823C31.4631 23.0949 31.4614 23.1062 31.4614 23.1188C31.4248 23.7617 31.5279 24.4088 31.7771 25.0237C32.0679 25.7635 32.563 26.4569 33.2592 27.0451C34.5004 28.0937 36.1354 28.6019 37.7621 28.5654L37.7737 28.5668C37.782 28.5668 37.7903 28.5668 37.797 28.5654C37.8369 28.5654 37.8734 28.5654 37.9116 28.564C39.5483 28.5218 41.2016 29.0286 42.4511 30.0842C44.8537 32.1169 44.8537 35.4101 42.4511 37.4399" fill="#F38F1C"/>
<path d="M55.3805 41.1384C55.3189 41.0921 55.2607 41.0431 55.2025 40.994C55.1592 40.9575 55.1126 40.9182 55.071 40.8804C55.1259 40.921 55.1792 40.9645 55.2324 41.0094C55.284 41.0529 55.3322 41.0949 55.3805 41.1398" fill="#F29206"/>
<path d="M46.6906 26.6419C46.6357 26.6013 46.5825 26.5578 46.5292 26.5129C46.4743 26.4666 46.4228 26.4218 46.3745 26.3755C46.4377 26.4246 46.4976 26.4765 46.5592 26.5269C46.6024 26.5634 46.649 26.6027 46.6906 26.6405" fill="#F29206"/>
<path d="M55.3805 41.1384C55.3189 41.0921 55.2607 41.0431 55.2025 40.994C55.1592 40.9575 55.1126 40.9182 55.071 40.8804C55.1259 40.921 55.1792 40.9645 55.2324 41.0094C55.284 41.0529 55.3322 41.0949 55.3805 41.1398" fill="#F29206"/>
<path d="M46.6906 26.6419C46.6357 26.6013 46.5825 26.5578 46.5292 26.5129C46.4743 26.4666 46.4228 26.4218 46.3745 26.3755C46.4377 26.4246 46.4976 26.4765 46.5592 26.5269C46.6024 26.5634 46.649 26.6027 46.6906 26.6405" fill="#F29206"/>
<path d="M46.6906 26.6419C46.6357 26.6013 46.5825 26.5578 46.5292 26.5129C46.4743 26.4666 46.4228 26.4218 46.3745 26.3755C46.4377 26.4246 46.4976 26.4765 46.5592 26.5269C46.6024 26.5634 46.649 26.6027 46.6906 26.6405" fill="#F29206"/>
<path d="M67.9818 37.4369C66.4066 38.7677 64.1917 39.2267 62.1762 38.814C61.1112 38.5978 60.1059 38.1388 59.2751 37.4369C56.8725 35.4071 56.8725 32.1139 59.2751 30.0827C60.1076 29.3794 61.1162 28.9204 62.1829 28.7042C64.1967 28.2929 66.4083 28.7533 67.9818 30.0827C70.3844 32.1125 70.3844 35.4057 67.9818 37.4369Z" fill="#F38F1C"/>
<path d="M55.2342 48.3637C52.8316 50.3936 48.9335 50.3936 46.5292 48.3637C44.6384 46.7663 44.2346 44.3911 45.3163 42.4596C45.6087 41.9345 46.0141 41.4432 46.5292 41.0081L46.5591 40.9828C47.4115 40.2627 47.9864 39.398 48.6511 38.609C50.0817 36.9133 49.0781 29.5352 48.6577 28.9105C48.1177 28.1104 47.4863 27.3341 46.6887 26.642C46.6472 26.6041 46.6023 26.5648 46.5575 26.5283C46.496 26.4764 46.4362 26.4258 46.373 26.3767C45.9277 25.9752 45.5738 25.5288 45.308 25.0544C44.2329 23.1256 44.6384 20.7533 46.5276 19.1586C48.9302 17.1288 52.8283 17.1288 55.2326 19.1586C56.934 20.5961 57.4308 22.6652 56.723 24.4704C56.4389 25.2088 55.952 25.898 55.2625 26.4876L55.2492 26.4988C55.2492 26.4988 55.2376 26.5087 55.2309 26.5143C55.2193 26.5241 55.2093 26.5325 55.196 26.5424C54.347 27.2625 53.6773 28.0753 53.1058 28.9147C51.941 30.6259 51.7964 36.6733 53.1008 38.6133C53.6375 39.412 54.2705 40.1869 55.0648 40.8789H55.0664L55.0681 40.8831C55.1096 40.921 55.1545 40.9603 55.1977 40.9968C55.2558 41.046 55.3157 41.0965 55.3755 41.1414C55.3771 41.1428 55.3805 41.147 55.3821 41.1484C56.0035 41.7099 56.4472 42.3585 56.7147 43.0449C57.4292 44.853 56.934 46.9249 55.2276 48.3666" fill="#F38F1C"/>
<path d="M55.3805 41.1384C55.3189 41.0921 55.2607 41.0431 55.2025 40.994C55.1592 40.9575 55.1126 40.9182 55.071 40.8804C55.1259 40.921 55.1792 40.9645 55.2324 41.0094C55.284 41.0529 55.3322 41.0949 55.3805 41.1398" fill="#F29206"/>
<path d="M18.7226 33.5773H18.7209C18.7209 33.5649 18.7209 33.5497 18.7192 33.5374C18.7192 33.5497 18.7209 33.5621 18.7242 33.5773" fill="#F29206"/>
<path d="M29.6669 48.364C27.2626 50.3952 23.3645 50.3952 20.9602 48.364C18.5559 46.3327 18.5559 43.0395 20.9602 41.0083C23.3645 38.9771 27.2626 38.9771 29.6669 41.0083C32.0712 43.0395 32.0712 46.3327 29.6669 48.364Z" fill="#F38F1C"/>
</g>
</svg>
