<svg width="24" height="25" viewBox="0 0 24 25" fill="none" xmlns="http://www.w3.org/2000/svg">
<path d="M21.9592 14.6339V22.0129H17.6812V15.1279C17.6812 13.3979 17.0622 12.2179 15.5142 12.2179C14.3322 12.2179 13.6282 13.0139 13.3192 13.7829C13.2062 14.0579 13.1772 14.4409 13.1772 14.8259V22.0129H8.89724C8.89724 22.0129 8.95524 10.3529 8.89724 9.14392H13.1772V10.9679L13.1492 11.0099H13.1772V10.9679C13.7452 10.0929 14.7602 8.84192 17.0332 8.84192C19.8482 8.84192 21.9592 10.6819 21.9592 14.6339ZM4.42124 2.94092C2.95824 2.94092 2.00024 3.90092 2.00024 5.16392C2.00024 6.39892 2.93024 7.38792 4.36524 7.38792H4.39324C5.88624 7.38792 6.81324 6.39892 6.81324 5.16392C6.78724 3.90092 5.88724 2.94092 4.42224 2.94092H4.42124ZM2.25424 22.0129H6.53224V9.14392H2.25424V22.0129Z" fill="#202648"/>
</svg>
