<svg width="105" height="600" viewBox="0 0 105 600" fill="none" xmlns="http://www.w3.org/2000/svg">
<g clip-path="url(#clip0_8_122)">
<path d="M40.2564 22.7524C76.4103 -6.90242 130.513 -7.66938 167.436 20.9629C209.487 53.6855 220.513 110.439 200 155.432C194.872 166.425 188.205 176.907 179.231 185.854L178.718 186.366C164.103 201.449 154.359 219.6 143.077 236.216C118.718 271.751 135.897 350.234 143.077 363.272C152.308 380.145 163.077 396.506 176.667 410.822C177.436 411.589 178.205 412.356 178.974 413.123C180 414.146 181.026 415.168 182.051 416.447C189.744 424.883 195.641 434.342 200.256 444.312C220.513 489.561 209.487 546.059 167.436 579.037C130.769 607.669 76.6667 606.902 40.5128 577.503C4.35895 548.104 -7.94874 498.764 5.38461 456.839C10.2564 441.244 18.4615 426.928 30.2564 414.401L30.5128 414.401C30.5128 414.401 30.7692 413.634 31.0256 413.634C45.641 398.551 56.9231 381.423 66.6667 363.784C86.6667 327.738 88.9744 277.375 66.6667 236.728C57.4359 219.855 46.6667 203.749 33.0769 189.178C32.3077 188.411 31.5385 187.644 30.7692 186.877C29.7436 185.854 28.718 184.832 27.6923 183.809C17.1795 172.049 9.48719 158.5 4.87181 143.928C-8.46152 102.003 3.07695 53.4299 39.7436 23.2638L40.2564 22.7524Z" fill="#FE900F"/>
</g>
<defs>
<clipPath id="clip0_8_122">
<rect width="210" height="600" fill="white" transform="translate(210 600) rotate(-180)"/>
</clipPath>
</defs>
</svg>
