<svg width="68" height="71" viewBox="0 0 68 71" fill="none" xmlns="http://www.w3.org/2000/svg">
<g clip-path="url(#clip0_16_494)">
<path d="M38.5285 11.5847C35.9546 14.2349 31.788 14.2349 29.2141 11.5847C26.6402 8.93448 26.6402 4.63386 29.2141 1.99953C31.788 -0.634805 35.9546 -0.650674 38.5285 1.99953C41.1024 4.64973 41.1024 8.95035 38.5285 11.5847Z" fill="#F38F1C"/>
<path d="M38.5285 69.0163C35.9546 71.6665 31.788 71.6665 29.2141 69.0163C26.6402 66.3661 26.6402 62.0655 29.2141 59.4312C31.788 56.7968 35.9546 56.781 38.5285 59.4312C41.1024 62.0814 41.1024 66.382 38.5285 69.0163Z" fill="#F38F1C"/>
<path d="M38.5607 40.2926C35.9868 42.9428 31.8202 42.9428 29.2463 40.2926C27.8628 38.8802 27.2354 36.9759 27.3319 35.1191H27.2997C27.3802 33.2783 26.7367 31.4057 25.3693 29.9933C24.6454 29.2474 23.8088 28.7237 22.908 28.3905C22.1519 28.1207 21.3636 27.9937 20.5753 28.0096C20.511 28.0096 20.4627 28.0096 20.3984 28.0096H19.9962C18.2266 27.9461 16.441 28.5968 15.0897 29.9933C13.7383 31.3898 13.0949 33.2465 13.1753 35.0715C13.1753 35.1033 13.1753 35.1509 13.1753 35.1826C13.1753 35.1985 13.1753 35.2144 13.1753 35.2302C13.2396 37.0393 12.5962 38.8802 11.2449 40.2608C8.67093 42.911 4.50438 42.911 1.93045 40.2608C-0.643482 37.6106 -0.643482 33.3259 1.93045 30.6757C3.28176 29.2792 5.06742 28.6285 6.837 28.692C6.85309 28.692 6.88526 28.692 6.90135 28.692C8.63875 28.7396 10.3922 28.0731 11.7275 26.7083C13.0788 25.3277 13.7062 23.4868 13.6579 21.6777C13.5292 19.7892 14.1727 17.869 15.5723 16.4249C18.1462 13.7747 22.3128 13.7747 24.8867 16.4249C26.2541 17.8373 26.8976 19.694 26.8171 21.5507C26.8171 21.5666 26.8171 21.5825 26.8171 21.5984C26.785 22.4394 26.8815 23.2805 27.155 24.0899C27.4606 25.0579 27.9915 25.9625 28.7476 26.7242C30.0828 28.089 31.8202 28.7555 33.5576 28.7079C33.5576 28.7079 33.5737 28.7079 33.5898 28.7079C33.638 28.7079 33.6702 28.7079 33.7185 28.7079C35.472 28.6603 37.2415 29.3109 38.5768 30.6916C41.1507 33.3418 41.1507 37.6424 38.5768 40.2767L38.5607 40.2926Z" fill="#F38F1C"/>
<path d="M52.3956 45.117C52.3956 45.117 52.2669 44.99 52.2025 44.9265C52.1542 44.8789 52.106 44.8313 52.0577 44.7837C52.1221 44.8313 52.1703 44.8948 52.2347 44.9583C52.299 45.0217 52.3473 45.0693 52.3956 45.1328V45.117Z" fill="#F38F1C"/>
<path d="M43.0972 26.2163C43.0972 26.2163 42.9846 26.1052 42.9203 26.0418C42.8559 25.9783 42.8077 25.9148 42.7594 25.8672C42.8238 25.9307 42.8881 25.9941 42.9524 26.0735C43.0007 26.1211 43.049 26.1687 43.0972 26.2163Z" fill="#F38F1C"/>
<path d="M52.3956 45.117C52.3956 45.117 52.2669 44.99 52.2025 44.9265C52.1542 44.8789 52.106 44.8313 52.0577 44.7837C52.1221 44.8313 52.1703 44.8948 52.2347 44.9583C52.299 45.0217 52.3473 45.0693 52.3956 45.1328V45.117Z" fill="#F38F1C"/>
<path d="M43.0972 26.2163C43.0972 26.2163 42.9846 26.1052 42.9203 26.0418C42.8559 25.9783 42.8077 25.9148 42.7594 25.8672C42.8238 25.9307 42.8881 25.9941 42.9524 26.0735C43.0007 26.1211 43.049 26.1687 43.0972 26.2163Z" fill="#F38F1C"/>
<path d="M43.0972 26.2163C43.0972 26.2163 42.9846 26.1052 42.9203 26.0418C42.8559 25.9783 42.8077 25.9148 42.7594 25.8672C42.8238 25.9307 42.8881 25.9941 42.9524 26.0735C43.0007 26.1211 43.049 26.1687 43.0972 26.2163Z" fill="#F38F1C"/>
<path d="M65.8765 40.2926C64.1874 42.0224 61.8226 42.6254 59.6669 42.0859C58.5247 41.8002 57.4469 41.1972 56.5621 40.2926C53.9882 37.6424 53.9882 33.3577 56.5621 30.7075C57.4469 29.787 58.5247 29.1999 59.6669 28.9142C61.8226 28.3746 64.1874 28.9777 65.8765 30.7075C68.4504 33.3577 68.4504 37.6424 65.8765 40.2926Z" fill="#F38F1C"/>
<path d="M52.2347 54.5434C49.6608 57.1936 45.4942 57.1936 42.9203 54.5434C40.8933 52.4645 40.459 49.3699 41.6172 46.8467C41.939 46.1643 42.3572 45.5136 42.9203 44.9582L42.9524 44.9265C43.8694 43.9902 44.4807 42.8634 45.1885 41.8319C46.7168 39.6261 45.639 29.9933 45.1885 29.184C44.6094 28.1366 43.9338 27.1209 43.0811 26.2322C43.0329 26.1846 42.9846 26.137 42.9364 26.0894C42.872 26.0259 42.8077 25.9625 42.7433 25.8831C42.2607 25.3594 41.8907 24.7722 41.6011 24.1533C40.4429 21.6301 40.8772 18.5514 42.9042 16.4566C45.4781 13.8064 49.6447 13.8064 52.2186 16.4566C54.0364 18.3292 54.5673 21.0271 53.8112 23.3916C53.5056 24.3596 52.9908 25.2483 52.2508 26.0259H52.2347C52.2347 26.0259 52.2186 26.0735 52.2025 26.0735C51.2855 27.0098 50.5777 28.0731 49.9664 29.1681C48.7116 31.4057 48.5668 39.2928 49.9664 41.8161C50.5455 42.8634 51.2212 43.8632 52.0738 44.7678C52.1221 44.8154 52.1703 44.863 52.2186 44.9106C52.2829 44.9741 52.3473 45.0376 52.4116 45.101C53.0712 45.831 53.5538 46.6721 53.8434 47.5767C54.6156 49.9412 54.0847 52.639 52.2508 54.5116L52.2347 54.5434Z" fill="#F38F1C"/>
<path d="M52.3956 45.117C52.3956 45.117 52.2669 44.99 52.2025 44.9265C52.1542 44.8789 52.106 44.8313 52.0577 44.7837C52.1221 44.8313 52.1703 44.8948 52.2347 44.9583C52.299 45.0217 52.3473 45.0693 52.3956 45.1328V45.117Z" fill="#F38F1C"/>
<path d="M24.8867 54.5434C22.3128 57.1936 18.1462 57.1936 15.5723 54.5434C12.9983 51.8932 12.9983 47.5926 15.5723 44.9582C18.1462 42.308 22.3128 42.308 24.8867 44.9582C27.4606 47.6084 27.4606 51.9091 24.8867 54.5434Z" fill="#F38F1C"/>
</g>
<defs>
<clipPath id="clip0_16_494">
<rect width="68" height="71" fill="white"/>
</clipPath>
</defs>
</svg>
