<svg width="430" height="64" viewBox="0 0 430 64" fill="none" xmlns="http://www.w3.org/2000/svg">
<g filter="url(#filter0_bd_76_237)">
<rect width="476" height="56" fill="#090C23" fill-opacity="0.2"/>
<g clip-path="url(#clip0_76_237)">
<path d="M210.323 28.7778C211.252 28.3397 211.967 27.7228 212.476 26.9003C212.976 26.0867 213.226 25.1032 213.226 23.9678C213.226 22.8323 212.976 21.8489 212.476 21.0264C211.976 20.2038 211.261 19.578 210.323 19.1399C209.393 18.7018 208.268 18.4872 206.945 18.4872H201.075V34.2047H203.228V29.4215H206.945C207.276 29.4215 207.598 29.4036 207.901 29.3768L211.136 34.2047H213.477L209.903 28.9387C210.046 28.8851 210.18 28.8315 210.314 28.7689L210.323 28.7778ZM206.883 27.5261H203.228V20.4542H206.883C208.259 20.4542 209.304 20.7581 210.01 21.375C210.716 21.9919 211.073 22.8592 211.073 23.9767C211.073 25.0943 210.716 25.9705 210.01 26.5963C209.304 27.2222 208.259 27.5261 206.883 27.5261Z" fill="white"/>
<path d="M229.22 20.5972C228.505 19.873 227.656 19.3098 226.682 18.9164C225.708 18.523 224.645 18.3174 223.501 18.3174C222.358 18.3174 221.277 18.523 220.294 18.9253C219.32 19.3277 218.471 19.8909 217.756 20.624C217.042 21.3482 216.479 22.1976 216.077 23.1721C215.675 24.1466 215.478 25.2105 215.478 26.3639C215.478 27.5172 215.675 28.5811 216.077 29.5556C216.479 30.5302 217.033 31.3795 217.756 32.1037C218.471 32.8279 219.32 33.3911 220.303 33.8024C221.286 34.2047 222.349 34.4104 223.492 34.4104C224.636 34.4104 225.699 34.2137 226.673 33.8113C227.647 33.418 228.496 32.8547 229.211 32.1305C229.926 31.4063 230.479 30.557 230.882 29.5825C231.275 28.608 231.471 27.5351 231.471 26.3728C231.471 25.2105 231.275 24.1556 230.882 23.1721C230.488 22.1886 229.934 21.3393 229.211 20.6151L229.22 20.5972ZM228.889 28.7599C228.594 29.4931 228.183 30.1368 227.665 30.6822C227.138 31.2275 226.521 31.6477 225.816 31.9517C225.11 32.2557 224.332 32.3987 223.484 32.3987C222.635 32.3987 221.884 32.2468 221.169 31.9517C220.464 31.6567 219.838 31.2275 219.311 30.6822C218.784 30.1368 218.364 29.4931 218.078 28.7599C217.783 28.0268 217.64 27.2222 217.64 26.3549C217.64 25.4877 217.783 24.692 218.078 23.9589C218.373 23.2347 218.784 22.591 219.311 22.0366C219.838 21.4823 220.464 21.0532 221.169 20.7582C221.875 20.4631 222.653 20.3111 223.484 20.3111C224.314 20.3111 225.11 20.4631 225.816 20.7582C226.521 21.0621 227.138 21.4823 227.665 22.0366C228.192 22.591 228.594 23.2347 228.889 23.9589C229.184 24.6831 229.327 25.4788 229.327 26.3549C229.327 27.2311 229.184 28.0268 228.889 28.7599Z" fill="white"/>
<path d="M249.001 18.4962L242.809 29.5378L236.528 18.4962H234.768V34.2137H236.832V22.8234L242.273 32.3093H243.265L248.706 22.7519L248.724 34.2137H250.788L250.761 18.4962H249.001Z" fill="white"/>
<path d="M266.093 26.3281C265.879 26.2208 265.647 26.1403 265.405 26.0688C265.405 26.0688 265.423 26.0688 265.432 26.0599C266.049 25.747 266.54 25.2999 266.907 24.7099C267.273 24.1198 267.452 23.4045 267.452 22.5552C267.452 21.2946 266.987 20.3022 266.058 19.578C265.129 18.8538 263.788 18.4872 262.055 18.4872H255.3V34.2047H262.484C264.387 34.2047 265.825 33.8382 266.799 33.0961C267.764 32.354 268.247 31.308 268.247 29.9669C268.247 29.0728 268.05 28.3129 267.666 27.7139C267.282 27.1059 266.755 26.65 266.093 26.337V26.3281ZM261.858 20.3111C262.948 20.3111 263.797 20.5167 264.396 20.937C264.994 21.3572 265.298 21.983 265.298 22.8234C265.298 23.6638 264.994 24.2897 264.396 24.7099C263.797 25.1301 262.948 25.3357 261.858 25.3357H257.454V20.3022H261.858V20.3111ZM265.129 31.764C264.494 32.1842 263.592 32.3898 262.394 32.3898H257.445V27.1596H262.394C263.583 27.1596 264.494 27.3652 265.129 27.7854C265.763 28.2056 266.076 28.8672 266.076 29.7881C266.076 30.709 265.763 31.3437 265.129 31.764Z" fill="white"/>
<path d="M285.759 23.1542C285.366 22.1708 284.812 21.3214 284.088 20.5972C283.373 19.873 282.524 19.3098 281.55 18.9164C280.576 18.523 279.513 18.3174 278.37 18.3174C277.226 18.3174 276.145 18.523 275.162 18.9253C274.188 19.3277 273.339 19.8909 272.625 20.624C271.91 21.3482 271.347 22.1976 270.945 23.1721C270.543 24.1466 270.346 25.2105 270.346 26.3639C270.346 27.5172 270.543 28.5811 270.945 29.5556C271.347 30.5302 271.901 31.3795 272.625 32.1037C273.339 32.8279 274.188 33.3911 275.171 33.8024C276.154 34.2047 277.217 34.4104 278.361 34.4104C279.504 34.4104 280.568 34.2137 281.541 33.8113C282.515 33.418 283.364 32.8547 284.079 32.1305C284.794 31.4063 285.348 30.557 285.75 29.5825C286.143 28.608 286.339 27.5351 286.339 26.3728C286.339 25.2105 286.143 24.1556 285.75 23.1721L285.759 23.1542ZM283.757 28.7599C283.462 29.4931 283.051 30.1368 282.533 30.6822C282.015 31.2275 281.39 31.6477 280.684 31.9517C279.978 32.2557 279.201 32.3987 278.352 32.3987C277.503 32.3987 276.752 32.2468 276.038 31.9517C275.332 31.6567 274.706 31.2275 274.179 30.6822C273.652 30.1368 273.232 29.4931 272.946 28.7599C272.651 28.0268 272.508 27.2222 272.508 26.3549C272.508 25.4877 272.651 24.692 272.946 23.9589C273.241 23.2347 273.652 22.591 274.179 22.0366C274.706 21.4823 275.332 21.0532 276.038 20.7582C276.743 20.4631 277.521 20.3111 278.352 20.3111C279.183 20.3111 279.978 20.4631 280.684 20.7582C281.39 21.0621 282.006 21.4823 282.533 22.0366C283.06 22.591 283.462 23.2347 283.757 23.9589C284.052 24.6831 284.195 25.4788 284.195 26.3549C284.195 27.2311 284.052 28.0268 283.757 28.7599Z" fill="white"/>
<path d="M301.252 18.4962L294.434 34.2137H296.65L298.303 30.2798H306.309L307.962 34.2137H310.222L303.387 18.4962H301.26H301.252ZM299.063 28.4917L302.306 20.776L305.549 28.4917H299.054H299.063Z" fill="#F38F1C"/>
<path d="M314.609 18.4962H312.456V34.2137H314.609V18.4962Z" fill="#F38F1C"/>
<path d="M290.592 33.7577C290.03 34.3388 289.127 34.3388 288.564 33.7577C288.001 33.1766 288.001 32.2199 288.564 31.6388C289.127 31.0577 290.03 31.0577 290.592 31.6388C291.155 32.2199 291.155 33.1766 290.592 33.7577Z" fill="#F38F1C"/>
<path d="M178.399 14.5266C176.969 16.0197 174.655 16.0197 173.225 14.5266C171.796 13.0335 171.796 10.6107 173.225 9.12652C174.655 7.64239 176.969 7.63345 178.399 9.12652C179.828 10.6196 179.828 13.0425 178.399 14.5266Z" fill="#F38F1C"/>
<path d="M178.399 46.8824C176.969 48.3755 174.655 48.3755 173.225 46.8824C171.796 45.3893 171.796 42.9665 173.225 41.4823C174.655 39.9982 176.969 39.9893 178.399 41.4823C179.828 42.9754 179.828 45.3983 178.399 46.8824Z" fill="#F38F1C"/>
<path d="M178.417 30.7001C176.987 32.1931 174.673 32.1931 173.243 30.7001C172.475 29.9043 172.127 28.8315 172.18 27.7854H172.162C172.207 26.7483 171.85 25.6933 171.09 24.8976C170.688 24.4774 170.223 24.1824 169.723 23.9946C169.303 23.8427 168.865 23.7711 168.428 23.7801C168.392 23.7801 168.365 23.7801 168.329 23.7801H168.106C167.123 23.7443 166.131 24.1109 165.381 24.8976C164.63 25.6844 164.273 26.7304 164.318 27.7586C164.318 27.7765 164.318 27.8033 164.318 27.8212C164.318 27.8301 164.318 27.8391 164.318 27.848C164.353 28.8672 163.996 29.9043 163.245 30.6822C161.816 32.1752 159.502 32.1752 158.072 30.6822C156.643 29.1891 156.643 26.7752 158.072 25.2821C158.823 24.4953 159.814 24.1287 160.797 24.1645C160.806 24.1645 160.824 24.1645 160.833 24.1645C161.798 24.1913 162.772 23.8158 163.513 23.0469C164.264 22.2691 164.612 21.232 164.586 20.2128C164.514 19.1489 164.872 18.0671 165.649 17.2535C167.078 15.7604 169.392 15.7604 170.822 17.2535C171.582 18.0492 171.939 19.0952 171.894 20.1413C171.894 20.1502 171.894 20.1591 171.894 20.1681C171.876 20.6419 171.93 21.1158 172.082 21.5718C172.252 22.1171 172.546 22.6267 172.966 23.0559C173.708 23.8248 174.673 24.2003 175.638 24.1735C175.638 24.1735 175.647 24.1735 175.656 24.1735C175.683 24.1735 175.7 24.1735 175.727 24.1735C176.701 24.1466 177.684 24.5132 178.426 25.291C179.855 26.7841 179.855 29.207 178.426 30.6911L178.417 30.7001Z" fill="#F38F1C"/>
<path d="M186.1 33.418C186.1 33.418 186.029 33.3465 185.993 33.3107C185.966 33.2839 185.94 33.257 185.913 33.2302C185.949 33.257 185.975 33.2928 186.011 33.3286C186.047 33.3643 186.074 33.3912 186.1 33.4269V33.418Z" fill="#F38F1C"/>
<path d="M180.936 22.7698C180.936 22.7698 180.874 22.7072 180.838 22.6714C180.802 22.6357 180.775 22.5999 180.749 22.5731C180.784 22.6089 180.82 22.6446 180.856 22.6893C180.883 22.7161 180.909 22.743 180.936 22.7698Z" fill="#F38F1C"/>
<path d="M186.1 33.418C186.1 33.418 186.029 33.3465 185.993 33.3107C185.966 33.2839 185.94 33.257 185.913 33.2302C185.949 33.257 185.975 33.2928 186.011 33.3286C186.047 33.3643 186.074 33.3912 186.1 33.4269V33.418Z" fill="#F38F1C"/>
<path d="M180.936 22.7698C180.936 22.7698 180.874 22.7072 180.838 22.6714C180.802 22.6357 180.775 22.5999 180.749 22.5731C180.784 22.6089 180.82 22.6446 180.856 22.6893C180.883 22.7161 180.909 22.743 180.936 22.7698Z" fill="#F38F1C"/>
<path d="M180.936 22.7698C180.936 22.7698 180.874 22.7072 180.838 22.6714C180.802 22.6357 180.775 22.5999 180.749 22.5731C180.784 22.6089 180.82 22.6446 180.856 22.6893C180.883 22.7161 180.909 22.743 180.936 22.7698Z" fill="#F38F1C"/>
<path d="M193.588 30.7C192.65 31.6746 191.336 32.0143 190.139 31.7103C189.504 31.5494 188.906 31.2096 188.414 30.7C186.985 29.207 186.985 26.793 188.414 25.2999C188.906 24.7814 189.504 24.4506 190.139 24.2897C191.336 23.9857 192.65 24.3254 193.588 25.2999C195.017 26.793 195.017 29.207 193.588 30.7Z" fill="#F38F1C"/>
<path d="M186.011 38.7287C184.582 40.2217 182.267 40.2217 180.838 38.7287C179.712 37.5574 179.471 35.814 180.114 34.3925C180.293 34.0081 180.525 33.6415 180.838 33.3286L180.856 33.3107C181.365 32.7832 181.705 32.1484 182.098 31.5673C182.947 30.3245 182.348 24.8976 182.098 24.4417C181.776 23.8516 181.401 23.2794 180.927 22.7787C180.9 22.7519 180.874 22.7251 180.847 22.6983C180.811 22.6625 180.775 22.6267 180.74 22.582C180.472 22.287 180.266 21.9562 180.105 21.6075C179.462 20.186 179.703 18.4515 180.829 17.2714C182.259 15.7783 184.573 15.7783 186.002 17.2714C187.012 18.3263 187.307 19.8462 186.887 21.1784C186.717 21.7237 186.431 22.2244 186.02 22.6625H186.011C186.011 22.6625 186.002 22.6893 185.993 22.6893C185.484 23.2168 185.091 23.8158 184.751 24.4327C184.054 25.6933 183.974 30.1368 184.751 31.5583C185.073 32.1484 185.448 32.7117 185.922 33.2213C185.949 33.2481 185.975 33.2749 186.002 33.3018C186.038 33.3375 186.074 33.3733 186.109 33.409C186.476 33.8203 186.744 34.2941 186.905 34.8038C187.333 36.1359 187.039 37.6558 186.02 38.7108L186.011 38.7287Z" fill="#F38F1C"/>
<path d="M186.1 33.418C186.1 33.418 186.029 33.3465 185.993 33.3107C185.966 33.2839 185.94 33.257 185.913 33.2302C185.949 33.257 185.975 33.2928 186.011 33.3286C186.047 33.3643 186.074 33.3912 186.1 33.4269V33.418Z" fill="#F38F1C"/>
<path d="M170.822 38.7287C169.392 40.2217 167.078 40.2217 165.649 38.7287C164.219 37.2356 164.219 34.8127 165.649 33.3286C167.078 31.8355 169.392 31.8355 170.822 33.3286C172.252 34.8216 172.252 37.2445 170.822 38.7287Z" fill="#F38F1C"/>
</g>
</g>
<defs>
<filter id="filter0_bd_76_237" x="-19.8" y="-19.8" width="515.6" height="95.6" filterUnits="userSpaceOnUse" color-interpolation-filters="sRGB">
<feFlood flood-opacity="0" result="BackgroundImageFix"/>
<feGaussianBlur in="BackgroundImageFix" stdDeviation="9.9"/>
<feComposite in2="SourceAlpha" operator="in" result="effect1_backgroundBlur_76_237"/>
<feColorMatrix in="SourceAlpha" type="matrix" values="0 0 0 0 0 0 0 0 0 0 0 0 0 0 0 0 0 0 127 0" result="hardAlpha"/>
<feOffset dy="4"/>
<feGaussianBlur stdDeviation="2"/>
<feComposite in2="hardAlpha" operator="out"/>
<feColorMatrix type="matrix" values="0 0 0 0 0 0 0 0 0 0 0 0 0 0 0 0 0 0 0.25 0"/>
<feBlend mode="normal" in2="effect1_backgroundBlur_76_237" result="effect2_dropShadow_76_237"/>
<feBlend mode="normal" in="SourceGraphic" in2="effect2_dropShadow_76_237" result="shape"/>
</filter>
<clipPath id="clip0_76_237">
<rect width="157.6" height="40" fill="white" transform="translate(157 8)"/>
</clipPath>
</defs>
</svg>
