<svg width="1440" height="94" viewBox="0 0 1440 94" fill="none" xmlns="http://www.w3.org/2000/svg">
<path d="M -0.508 27.273 L -0.508 52.864 C -0.508 52.864 283.401 91.318 466.492 95.963 C 703.515 101.977 835.572 49.793 1072.493 58.963 C 1217.603 64.58 1442.494 95.963 1442.494 95.963 L 1442.494 22.963 L -0.508 27.273 Z" fill="#303767" style="transform-origin: 720.993px 59.705px;" transform="matrix(-0.99999499321, -0.003183000023, 0.003183000023, -0.99999499321, -0.000074605757, -0.000005239129)"/>
<path d="M-16 90.6072C-16 90.6072 219.199 17.548 375 6.10721C604.885 -10.7738 730.658 107.726 960 84.6073C1074.17 73.0982 1132.3 18.1081 1247 21.6073C1329.57 24.1263 1454 65.1073 1454 65.1073" stroke="#FE900F" stroke-width="7"/>
</svg>
