<svg width="1440" height="109" viewBox="0 0 1440 109" fill="none" xmlns="http://www.w3.org/2000/svg">
  <path d="M -4.046 2.376 L -4.046 27.966 C -4.046 27.966 281.25 66.421 465.235 71.066 C 703.415 77.079 836.116 24.895 1074.195 34.066 C 1220.014 39.683 1446.002 71.066 1446.002 71.066 L 1446.002 -1.934 L -4.046 2.376 Z"
        fill="white" style="transform-origin: 720.978px 34.808px;"
        transform="matrix(0.99999499321, 0.003196000122, -0.003196000122, 0.99999499321, -7.357e-9, -7.8142e-8)"/>
  <path d="M1455 105.5C1455 105.5 1219.8 32.4409 1064 21.0001C834.115 4.11908 708.342 122.619 479 99.5C364.83 87.9909 306.696 33.0008 192 36.5C109.434 39.019 -15 80 -15 80"
        stroke="#FE900F" stroke-width="7"/>
</svg>
