<svg width="1440" height="109" viewBox="0 0 1440 109" fill="none" xmlns="http://www.w3.org/2000/svg">
<path d="M -1.906 2.343 L -1.906 27.933 C -1.906 27.933 282.003 66.388 465.094 71.033 C 702.116 77.046 834.173 24.862 1071.094 34.033 C 1216.204 39.65 1441.094 71.033 1441.094 71.033 L 1441.094 -1.967 L -1.906 2.343 Z" fill="white" style="transform-origin: 719.594px 34.775px;" transform="matrix(0.99999499321, 0.003196000122, -0.003196000122, 0.99999499321, 1.226e-9, 9.691e-8)"/>
<path d="M1455 105.5C1455 105.5 1219.8 32.4409 1064 21.0001C834.115 4.11908 708.342 122.619 479 99.5C364.83 87.9909 306.696 33.0008 192 36.5C109.434 39.019 -15 80 -15 80" stroke="#FE900F" stroke-width="7"/>
</svg>
