<svg width="15" height="8" viewBox="0 0 15 8" fill="none" xmlns="http://www.w3.org/2000/svg">
<path d="M7.49216 5.42075L12.4422 0.470755C12.5344 0.375244 12.6448 0.299062 12.7668 0.246653C12.8888 0.194244 13.02 0.166658 13.1528 0.165504C13.2855 0.16435 13.4172 0.189652 13.5401 0.239933C13.663 0.290214 13.7747 0.364467 13.8686 0.45836C13.9625 0.552252 14.0367 0.663904 14.087 0.786801C14.1373 0.909697 14.1626 1.04138 14.1614 1.17416C14.1603 1.30694 14.1327 1.43815 14.0803 1.56016C14.0279 1.68216 13.9517 1.79251 13.8562 1.88475L8.19916 7.54175C8.01164 7.72923 7.75733 7.83454 7.49216 7.83454C7.227 7.83454 6.97269 7.72923 6.78516 7.54175L1.12816 1.88475C1.03265 1.79251 0.956472 1.68216 0.904063 1.56016C0.851654 1.43815 0.824068 1.30694 0.822914 1.17416C0.82176 1.04138 0.847062 0.909697 0.897343 0.786801C0.947623 0.663904 1.02188 0.552252 1.11577 0.45836C1.20966 0.364467 1.32131 0.290214 1.44421 0.239933C1.56711 0.189652 1.69879 0.16435 1.83157 0.165504C1.96434 0.166658 2.09556 0.194244 2.21757 0.246653C2.33957 0.299062 2.44992 0.375244 2.54216 0.470755L7.49216 5.42075Z" fill="white"/>
</svg>
