<svg width="14" height="8" viewBox="0 0 14 8" fill="none" xmlns="http://www.w3.org/2000/svg">
<path d="M6.99216 5.42075L11.9422 0.470755C12.0344 0.375244 12.1448 0.299062 12.2668 0.246653C12.3888 0.194244 12.52 0.166658 12.6528 0.165504C12.7855 0.16435 12.9172 0.189652 13.0401 0.239933C13.163 0.290214 13.2747 0.364467 13.3686 0.45836C13.4625 0.552252 13.5367 0.663904 13.587 0.786801C13.6373 0.909697 13.6626 1.04138 13.6614 1.17416C13.6603 1.30694 13.6327 1.43815 13.5803 1.56016C13.5279 1.68216 13.4517 1.79251 13.3562 1.88475L7.69916 7.54175C7.51164 7.72923 7.25733 7.83454 6.99216 7.83454C6.727 7.83454 6.47269 7.72923 6.28516 7.54175L0.628164 1.88475C0.532654 1.79251 0.456472 1.68216 0.404063 1.56016C0.351654 1.43815 0.324068 1.30694 0.322914 1.17416C0.32176 1.04138 0.347062 0.909697 0.397343 0.786801C0.447623 0.663904 0.521876 0.552252 0.615769 0.45836C0.709662 0.364467 0.821314 0.290214 0.94421 0.239933C1.06711 0.189652 1.19879 0.16435 1.33157 0.165504C1.46434 0.166658 1.59556 0.194244 1.71757 0.246653C1.83957 0.299062 1.94992 0.375244 2.04216 0.470755L6.99216 5.42075Z" fill="white"/>
</svg>
